<?xml version="1.0" encoding="UTF-8" standalone="no"?>
<!-- Created with Inkscape (http://www.inkscape.org/) -->

<svg
   xmlns:dc="http://purl.org/dc/elements/1.1/"
   xmlns:cc="http://creativecommons.org/ns#"
   xmlns:rdf="http://www.w3.org/1999/02/22-rdf-syntax-ns#"
   xmlns:svg="http://www.w3.org/2000/svg"
   xmlns="http://www.w3.org/2000/svg"
   xmlns:xlink="http://www.w3.org/1999/xlink"
   xmlns:sodipodi="http://sodipodi.sourceforge.net/DTD/sodipodi-0.dtd"
   xmlns:inkscape="http://www.inkscape.org/namespaces/inkscape"
   width="169.60191mm"
   height="114.9016mm"
   viewBox="0 0 600.95166 407.13166"
   id="svg8517"
   version="1.1"
   inkscape:version="0.92.1 r15371"
   sodipodi:docname="BASE.svg">
  <defs
     id="defs8519">
    <inkscape:path-effect
       effect="bspline"
       id="path-effect3954"
       is_visible="true"
       weight="33.333333"
       steps="2"
       helper_size="0"
       apply_no_weight="true"
       apply_with_weight="true"
       only_selected="false" />
    <filter
       inkscape:label="Drop Shadow"
       id="filter3087"
       style="color-interpolation-filters:sRGB">
      <feFlood
         result="flood"
         flood-color="rgb(0,0,0)"
         flood-opacity="0.5"
         id="feFlood3089" />
      <feComposite
         result="composite1"
         operator="in"
         in="flood"
         in2="SourceGraphic"
         id="feComposite3091" />
      <feGaussianBlur
         result="blur"
         stdDeviation="2"
         id="feGaussianBlur3093" />
      <feOffset
         result="offset"
         dy="8"
         dx="8"
         id="feOffset3095" />
      <feComposite
         result="fbSourceGraphic"
         operator="over"
         in="SourceGraphic"
         in2="offset"
         id="feComposite3097" />
      <feColorMatrix
         id="feColorMatrix3035"
         values="0 0 0 -1 0 0 0 0 -1 0 0 0 0 -1 0 0 0 0 1 0"
         in="fbSourceGraphic"
         result="fbSourceGraphicAlpha" />
      <feFlood
         in="fbSourceGraphic"
         result="flood"
         flood-color="rgb(255,255,255)"
         flood-opacity="0.5"
         id="feFlood3037" />
      <feComposite
         result="composite1"
         operator="in"
         in="flood"
         in2="fbSourceGraphic"
         id="feComposite3039" />
      <feGaussianBlur
         result="blur"
         stdDeviation="2"
         id="feGaussianBlur3041" />
      <feOffset
         result="offset"
         dy="4"
         dx="4"
         id="feOffset3043" />
      <feComposite
         result="fbSourceGraphic"
         operator="over"
         in="fbSourceGraphic"
         in2="offset"
         id="feComposite3045" />
      <feColorMatrix
         id="feColorMatrix3047"
         values="0 0 0 -1 0 0 0 0 -1 0 0 0 0 -1 0 0 0 0 1 0"
         in="fbSourceGraphic"
         result="fbSourceGraphicAlpha" />
      <feFlood
         in="fbSourceGraphic"
         result="flood"
         flood-color="rgb(255,255,255)"
         flood-opacity="0.5"
         id="feFlood3049" />
      <feComposite
         result="composite1"
         operator="in"
         in="flood"
         in2="fbSourceGraphic"
         id="feComposite3051" />
      <feGaussianBlur
         result="blur"
         stdDeviation="2"
         id="feGaussianBlur3053" />
      <feOffset
         result="offset"
         dy="4"
         dx="4"
         id="feOffset3055" />
      <feComposite
         result="composite2"
         operator="over"
         in="fbSourceGraphic"
         in2="offset"
         id="feComposite3057" />
    </filter>
    <filter
       inkscape:label="Drop Shadow"
       id="filter3075"
       style="color-interpolation-filters:sRGB">
      <feFlood
         result="flood"
         flood-color="rgb(0,0,0)"
         flood-opacity="0.5"
         id="feFlood3077" />
      <feComposite
         result="composite1"
         operator="in"
         in="flood"
         in2="SourceGraphic"
         id="feComposite3079" />
      <feGaussianBlur
         result="blur"
         stdDeviation="2"
         id="feGaussianBlur3081" />
      <feOffset
         result="offset"
         dy="8"
         dx="8"
         id="feOffset3083" />
      <feComposite
         result="composite2"
         operator="over"
         in="SourceGraphic"
         in2="offset"
         id="feComposite3085" />
    </filter>
    <clipPath
       id="clipPath3821"
       clipPathUnits="userSpaceOnUse">
      <rect
         ry="0"
         y="302.71548"
         x="19.369934"
         height="738.6275"
         width="880.35986"
         id="rect3823"
         style="fill:none;stroke:#000000;stroke-width:1.92365563;stroke-opacity:1" />
    </clipPath>
    <radialGradient
       gradientUnits="userSpaceOnUse"
       gradientTransform="matrix(2.956815,0,0,2.6312331,-802.38755,-273.62951)"
       r="224.75894"
       fy="359.39755"
       fx="426.78943"
       cy="359.39755"
       cx="426.78943"
       id="radialGradient3809"
       xlink:href="#linearGradient3803"
       inkscape:collect="always" />
    <linearGradient
       id="linearGradient3803">
      <stop
         id="stop3815"
         offset="0"
         style="stop-color:#000000;stop-opacity:0;" />
      <stop
         id="stop3813"
         offset="1"
         style="stop-color:#000000;stop-opacity:1;" />
      <stop
         id="stop3807"
         offset="1"
         style="stop-color:#000000;stop-opacity:0;" />
    </linearGradient>
  </defs>
  <sodipodi:namedview
     id="base"
     pagecolor="#ffffff"
     bordercolor="#666666"
     borderopacity="1.0"
     inkscape:pageopacity="0.0"
     inkscape:pageshadow="2"
     inkscape:zoom="0.88249387"
     inkscape:cx="779.42876"
     inkscape:cy="93.879805"
     inkscape:document-units="px"
     inkscape:current-layer="layer1"
     showgrid="false"
     fit-margin-top="0"
     fit-margin-left="0"
     fit-margin-right="0"
     fit-margin-bottom="0"
     inkscape:window-width="1920"
     inkscape:window-height="1017"
     inkscape:window-x="-8"
     inkscape:window-y="-8"
     inkscape:window-maximized="1"
     showguides="true"
     inkscape:guide-bbox="true" />
  <metadata
     id="metadata8522">
    <rdf:RDF>
      <cc:Work
         rdf:about="">
        <dc:format>image/svg+xml</dc:format>
        <dc:type
           rdf:resource="http://purl.org/dc/dcmitype/StillImage" />
        <dc:title />
      </cc:Work>
    </rdf:RDF>
  </metadata>
  <g
     inkscape:label="Capa 1"
     inkscape:groupmode="layer"
     id="layer1"
     transform="translate(-46.66704,-348.79638)">
    <text
       xml:space="preserve"
       style="font-style:normal;font-weight:normal;line-height:0%;font-family:sans-serif;letter-spacing:0px;word-spacing:0px;fill:#000000;fill-opacity:1;stroke:none;stroke-width:0.9375px;stroke-linecap:butt;stroke-linejoin:miter;stroke-opacity:1"
       x="-557.16687"
       y="683.59882"
       id="text4570"><tspan
         sodipodi:role="line"
         id="tspan4572"
         x="-557.16687"
         y="683.59882"
         style="font-size:37.5px;line-height:1.25;stroke-width:0.9375px"> </tspan></text>
    <g
       transform="matrix(0.00899998,0,0,0.00899998,25.237776,316.02714)"
       style="fill:none;fill-opacity:1;stroke:#000000;stroke-width:138.88919067;stroke-linecap:round;stroke-linejoin:round;stroke-miterlimit:4;stroke-dasharray:none;stroke-opacity:1"
       id="g2834">
      <path
         inkscape:connector-curvature="0"
         style="fill:none;stroke:#000000;stroke-width:138.88919067;stroke-miterlimit:4;stroke-dasharray:none;stroke-opacity:1"
         d="m 66322.854,40433.102 a 984.25201,984.25201 0 0 1 -984.252,984.252 984.25201,984.25201 0 0 1 -984.252,-984.252 984.25201,984.25201 0 0 1 984.252,-984.252 984.25201,984.25201 0 0 1 984.252,984.252 z"
         id="circle2836" />
    </g>
    <g
       transform="matrix(0.00899998,0,0,0.00899998,25.237776,316.02714)"
       style="fill:none;fill-opacity:1;stroke:#000000;stroke-width:138.88919067;stroke-linecap:round;stroke-linejoin:round;stroke-miterlimit:4;stroke-dasharray:none;stroke-opacity:1"
       id="g2840">
      <path
         inkscape:connector-curvature="0"
         style="fill:none;stroke:#000000;stroke-width:138.88919067;stroke-miterlimit:4;stroke-dasharray:none;stroke-opacity:1"
         d="m 66322.854,37283.5 a 984.25201,984.25201 0 0 1 -984.252,984.252 984.25201,984.25201 0 0 1 -984.252,-984.252 984.25201,984.25201 0 0 1 984.252,-984.252 984.25201,984.25201 0 0 1 984.252,984.252 z"
         id="circle2842" />
    </g>
    <g
       transform="matrix(0.00899998,0,0,0.00899998,25.237776,316.02714)"
       style="fill:none;fill-opacity:1;stroke:#000000;stroke-width:138.88919067;stroke-linecap:round;stroke-linejoin:round;stroke-miterlimit:4;stroke-dasharray:none;stroke-opacity:1"
       id="g2846">
      <path
         inkscape:connector-curvature="0"
         style="fill:none;stroke:#000000;stroke-width:138.88919067;stroke-miterlimit:4;stroke-dasharray:none;stroke-opacity:1"
         d="M 66299.252,12086.6 A 984.25201,984.25201 0 0 1 65315,13070.852 984.25201,984.25201 0 0 1 64330.748,12086.6 984.25201,984.25201 0 0 1 65315,11102.348 984.25201,984.25201 0 0 1 66299.252,12086.6 Z"
         id="circle2848" />
    </g>
    <g
       transform="matrix(0.00899998,0,0,0.00899998,25.237776,316.02714)"
       style="fill:none;fill-opacity:1;stroke:#000000;stroke-width:138.88919067;stroke-linecap:round;stroke-linejoin:round;stroke-miterlimit:4;stroke-dasharray:none;stroke-opacity:1"
       id="g2852">
      <path
         inkscape:connector-curvature="0"
         style="fill:none;stroke:#000000;stroke-width:138.88919067;stroke-miterlimit:4;stroke-dasharray:none;stroke-opacity:1"
         d="m 66322.854,15236.2 a 984.25201,984.25201 0 0 1 -984.252,984.252 984.25201,984.25201 0 0 1 -984.252,-984.252 984.25201,984.25201 0 0 1 984.252,-984.252 984.25201,984.25201 0 0 1 984.252,984.252 z"
         id="circle2854" />
    </g>
    <g
       transform="matrix(0.00899998,0,0,0.00899998,25.237776,316.02714)"
       style="fill:none;fill-opacity:1;stroke:#000000;stroke-width:138.88919067;stroke-linecap:round;stroke-linejoin:round;stroke-miterlimit:4;stroke-dasharray:none;stroke-opacity:1"
       id="g2858">
      <path
         inkscape:connector-curvature="0"
         style="fill:none;stroke:#000000;stroke-width:138.88919067;stroke-miterlimit:4;stroke-dasharray:none;stroke-opacity:1"
         d="m 40866.15,5787.3999 a 984.25201,984.25201 0 0 1 -984.252,984.252 984.25201,984.25201 0 0 1 -984.252,-984.252 984.25201,984.25201 0 0 1 984.252,-984.252 984.25201,984.25201 0 0 1 984.252,984.252 z"
         id="circle2860" />
    </g>
    <g
       transform="matrix(0.00899998,0,0,0.00899998,25.237776,316.02714)"
       style="fill:none;fill-opacity:1;stroke:#000000;stroke-width:138.88919067;stroke-linecap:round;stroke-linejoin:round;stroke-miterlimit:4;stroke-dasharray:none;stroke-opacity:1"
       id="g2864">
      <path
         inkscape:connector-curvature="0"
         style="fill:none;stroke:#000000;stroke-width:138.88919067;stroke-miterlimit:4;stroke-dasharray:none;stroke-opacity:1"
         d="m 44015.752,5787.3999 a 984.25201,984.25201 0 0 1 -984.252,984.252 984.25201,984.25201 0 0 1 -984.252,-984.252 984.25201,984.25201 0 0 1 984.252,-984.252 984.25201,984.25201 0 0 1 984.252,984.252 z"
         id="circle2866" />
    </g>
    <g
       transform="matrix(0.00899998,0,0,0.00899998,25.237776,316.02714)"
       style="fill:none;fill-opacity:1;stroke:#000000;stroke-width:138.88919067;stroke-linecap:round;stroke-linejoin:round;stroke-miterlimit:4;stroke-dasharray:none;stroke-opacity:1"
       id="g2870">
      <path
         inkscape:connector-curvature="0"
         style="fill:none;stroke:#000000;stroke-width:138.88919067;stroke-miterlimit:4;stroke-dasharray:none;stroke-opacity:1"
         d="m 50314.951,5787.3999 a 984.25201,984.25201 0 0 1 -984.252,984.252 984.25201,984.25201 0 0 1 -984.252,-984.252 984.25201,984.25201 0 0 1 984.252,-984.252 984.25201,984.25201 0 0 1 984.252,984.252 z"
         id="circle2872" />
    </g>
    <g
       transform="matrix(0.00899998,0,0,0.00899998,25.237776,316.02714)"
       style="fill:none;fill-opacity:1;stroke:#000000;stroke-width:138.88919067;stroke-linecap:round;stroke-linejoin:round;stroke-miterlimit:4;stroke-dasharray:none;stroke-opacity:1"
       id="g2876">
      <path
         inkscape:connector-curvature="0"
         style="fill:none;stroke:#000000;stroke-width:138.88919067;stroke-miterlimit:4;stroke-dasharray:none;stroke-opacity:1"
         d="m 47165.354,5787.3999 a 984.25201,984.25201 0 0 1 -984.252,984.252 984.25201,984.25201 0 0 1 -984.252,-984.252 984.25201,984.25201 0 0 1 984.252,-984.252 984.25201,984.25201 0 0 1 984.252,984.252 z"
         id="circle2878" />
    </g>
    <g
       transform="matrix(0.00899998,0,0,0.00899998,25.237776,316.02714)"
       style="fill:none;fill-opacity:1;stroke:#000000;stroke-width:138.88919067;stroke-linecap:round;stroke-linejoin:round;stroke-miterlimit:4;stroke-dasharray:none;stroke-opacity:1"
       id="g2882">
      <path
         inkscape:connector-curvature="0"
         style="fill:none;stroke:#000000;stroke-width:138.88919067;stroke-miterlimit:4;stroke-dasharray:none;stroke-opacity:1"
         d="m 53464.553,5787.3999 a 984.25201,984.25201 0 0 1 -984.252,984.252 984.25201,984.25201 0 0 1 -984.252,-984.252 984.25201,984.25201 0 0 1 984.252,-984.252 984.25201,984.25201 0 0 1 984.252,984.252 z"
         id="circle2884" />
    </g>
    <g
       transform="matrix(0.00899998,0,0,0.00899998,25.237776,316.02714)"
       style="fill:none;fill-opacity:1;stroke:#000000;stroke-width:138.88919067;stroke-linecap:round;stroke-linejoin:round;stroke-miterlimit:4;stroke-dasharray:none;stroke-opacity:1"
       id="g2888">
      <path
         inkscape:connector-curvature="0"
         style="fill:none;stroke:#000000;stroke-width:138.88919067;stroke-miterlimit:4;stroke-dasharray:none;stroke-opacity:1"
         d="m 56614.15,5787.3999 a 984.25201,984.25201 0 0 1 -984.252,984.252 984.25201,984.25201 0 0 1 -984.252,-984.252 984.25201,984.25201 0 0 1 984.252,-984.252 984.25201,984.25201 0 0 1 984.252,984.252 z"
         id="circle2890" />
    </g>
    <g
       transform="matrix(0.00899998,0,0,0.00899998,25.237776,316.02714)"
       style="fill:none;fill-opacity:1;stroke:#000000;stroke-width:138.88919067;stroke-linecap:round;stroke-linejoin:round;stroke-miterlimit:4;stroke-dasharray:none;stroke-opacity:1"
       id="g2894">
      <path
         inkscape:connector-curvature="0"
         style="fill:none;stroke:#000000;stroke-width:138.88919067;stroke-miterlimit:4;stroke-dasharray:none;stroke-opacity:1"
         d="m 56614.15,46732.301 a 984.25201,984.25201 0 0 1 -984.252,984.252 984.25201,984.25201 0 0 1 -984.252,-984.252 984.25201,984.25201 0 0 1 984.252,-984.252 984.25201,984.25201 0 0 1 984.252,984.252 z"
         id="circle2896" />
    </g>
    <g
       transform="matrix(0.00899998,0,0,0.00899998,25.237776,316.02714)"
       style="fill:none;fill-opacity:1;stroke:#000000;stroke-width:138.88919067;stroke-linecap:round;stroke-linejoin:round;stroke-miterlimit:4;stroke-dasharray:none;stroke-opacity:1"
       id="g2900">
      <path
         inkscape:connector-curvature="0"
         style="fill:none;stroke:#000000;stroke-width:138.88919067;stroke-miterlimit:4;stroke-dasharray:none;stroke-opacity:1"
         d="m 53464.553,46732.301 a 984.25201,984.25201 0 0 1 -984.252,984.252 984.25201,984.25201 0 0 1 -984.252,-984.252 984.25201,984.25201 0 0 1 984.252,-984.252 984.25201,984.25201 0 0 1 984.252,984.252 z"
         id="circle2902" />
    </g>
    <g
       transform="matrix(0.00899998,0,0,0.00899998,25.237776,316.02714)"
       style="fill:none;fill-opacity:1;stroke:#000000;stroke-width:138.88919067;stroke-linecap:round;stroke-linejoin:round;stroke-miterlimit:4;stroke-dasharray:none;stroke-opacity:1"
       id="g2906">
      <path
         inkscape:connector-curvature="0"
         style="fill:none;stroke:#000000;stroke-width:138.88919067;stroke-miterlimit:4;stroke-dasharray:none;stroke-opacity:1"
         d="m 47165.354,46732.301 a 984.25201,984.25201 0 0 1 -984.252,984.252 984.25201,984.25201 0 0 1 -984.252,-984.252 984.25201,984.25201 0 0 1 984.252,-984.252 984.25201,984.25201 0 0 1 984.252,984.252 z"
         id="circle2908" />
    </g>
    <g
       transform="matrix(0.00899998,0,0,0.00899998,25.237776,316.02714)"
       style="fill:none;fill-opacity:1;stroke:#000000;stroke-width:138.88919067;stroke-linecap:round;stroke-linejoin:round;stroke-miterlimit:4;stroke-dasharray:none;stroke-opacity:1"
       id="g2912">
      <path
         inkscape:connector-curvature="0"
         style="fill:none;stroke:#000000;stroke-width:138.88919067;stroke-miterlimit:4;stroke-dasharray:none;stroke-opacity:1"
         d="m 50314.951,46732.301 a 984.25201,984.25201 0 0 1 -984.252,984.252 984.25201,984.25201 0 0 1 -984.252,-984.252 984.25201,984.25201 0 0 1 984.252,-984.252 984.25201,984.25201 0 0 1 984.252,984.252 z"
         id="circle2914" />
    </g>
    <g
       transform="matrix(0.00899998,0,0,0.00899998,25.237776,316.02714)"
       style="fill:none;fill-opacity:1;stroke:#000000;stroke-width:138.88919067;stroke-linecap:round;stroke-linejoin:round;stroke-miterlimit:4;stroke-dasharray:none;stroke-opacity:1"
       id="g2918">
      <path
         inkscape:connector-curvature="0"
         style="fill:none;stroke:#000000;stroke-width:138.88919067;stroke-miterlimit:4;stroke-dasharray:none;stroke-opacity:1"
         d="m 44015.752,46732.301 a 984.25201,984.25201 0 0 1 -984.252,984.252 984.25201,984.25201 0 0 1 -984.252,-984.252 984.25201,984.25201 0 0 1 984.252,-984.252 984.25201,984.25201 0 0 1 984.252,984.252 z"
         id="circle2920" />
    </g>
    <g
       transform="matrix(0.00899998,0,0,0.00899998,25.237776,316.02714)"
       style="fill:none;fill-opacity:1;stroke:#000000;stroke-width:138.88919067;stroke-linecap:round;stroke-linejoin:round;stroke-miterlimit:4;stroke-dasharray:none;stroke-opacity:1"
       id="g2924">
      <path
         inkscape:connector-curvature="0"
         style="fill:none;stroke:#000000;stroke-width:138.88919067;stroke-miterlimit:4;stroke-dasharray:none;stroke-opacity:1"
         d="m 40866.15,46732.301 a 984.25201,984.25201 0 0 1 -984.252,984.252 984.25201,984.25201 0 0 1 -984.252,-984.252 984.25201,984.25201 0 0 1 984.252,-984.252 984.25201,984.25201 0 0 1 984.252,984.252 z"
         id="circle2926" />
    </g>
    <path
       style="opacity:1;fill:#ffffff;fill-opacity:1;stroke:#0000ff;stroke-width:1.75039387;stroke-miterlimit:4;stroke-dasharray:none;stroke-opacity:1"
       d="m 592.89447,484.2003 v 60.65941 h -18.07068 v 15.136 h 18.07068 v 58.65495 h 24.09485 V 559.99571 H 635.06 v -15.136 H 616.98932 V 484.2003 Z"
       id="rect3956"
       inkscape:connector-curvature="0" />
    <path
       id="path947"
       d="m 606.2448,504.52805 a 1.3029037,1.3029035 0 0 1 -1.30291,1.3029 1.3029037,1.3029035 0 0 1 -1.3029,-1.3029 1.3029037,1.3029035 0 0 1 1.3029,-1.30291 1.3029037,1.3029035 0 0 1 1.30291,1.30291 z"
       style="opacity:1;fill:#ffffff;fill-opacity:1;stroke:#000000;stroke-width:0.93750006;stroke-miterlimit:4;stroke-dasharray:none;stroke-opacity:1"
       inkscape:connector-curvature="0" />
    <path
       id="path947-6"
       d="m 606.2448,596.6546 a 1.3029037,1.3029037 0 0 1 -1.30291,1.30291 1.3029037,1.3029037 0 0 1 -1.3029,-1.30291 1.3029037,1.3029037 0 0 1 1.3029,-1.3029 1.3029037,1.3029037 0 0 1 1.30291,1.3029 z"
       style="opacity:1;fill:#ffffff;fill-opacity:1;stroke:#000000;stroke-width:0.93749988;stroke-miterlimit:4;stroke-dasharray:none;stroke-opacity:1"
       inkscape:connector-curvature="0" />
    <path
       id="path947-5"
       d="m 628.80743,552.72838 a 1.3029035,1.3029035 0 0 1 -1.3029,-1.3029 1.3029035,1.3029035 0 0 1 1.3029,-1.30291 1.3029035,1.3029035 0 0 1 1.30291,1.30291 1.3029035,1.3029035 0 0 1 -1.30291,1.3029 z"
       style="opacity:1;fill:#ffffff;fill-opacity:1;stroke:#000000;stroke-width:0.93750006;stroke-miterlimit:4;stroke-dasharray:none;stroke-opacity:1"
       inkscape:connector-curvature="0" />
    <path
       id="path947-6-5"
       d="m 580.26453,552.72838 a 1.3029038,1.3029037 0 0 1 -1.30291,-1.3029 1.3029038,1.3029037 0 0 1 1.30291,-1.30291 1.3029038,1.3029037 0 0 1 1.3029,1.30291 1.3029038,1.3029037 0 0 1 -1.3029,1.3029 z"
       style="opacity:1;fill:#ffffff;fill-opacity:1;stroke:#000000;stroke-width:0.93749994;stroke-miterlimit:4;stroke-dasharray:none;stroke-opacity:1"
       inkscape:connector-curvature="0" />
    <path
       id="path87"
       d="m 612.03914,551.42548 a 7.0972443,7.0972443 0 0 1 -7.09725,7.09724 7.0972443,7.0972443 0 0 1 -7.09724,-7.09724 7.0972443,7.0972443 0 0 1 7.09724,-7.09725 7.0972443,7.0972443 0 0 1 7.09725,7.09725 z"
       style="opacity:1;fill:#ffffff;fill-opacity:1;stroke:#000000;stroke-width:1.75039375;stroke-miterlimit:4;stroke-dasharray:none;stroke-opacity:1"
       inkscape:connector-curvature="0" />
    <path
       style="opacity:1;fill:none;fill-opacity:0;stroke:#000000;stroke-width:1.25000012;stroke-miterlimit:4;stroke-dasharray:none;stroke-opacity:1"
       d="m 346.99221,348.63801 v 49.73694 l 177.54795,0.79675 v 0 c 20.05347,-0.13644 39.43918,22.02248 40.08036,38.56811 l -0.47563,238.7789 v 0 c 0,10.55753 -16.21233,28.239 -30.24308,27.95731 v 0 h -186.9096 v 49.73693 h 219.62588 c 44.98453,0 81.19997,-59.61997 81.19997,-133.67798 V 482.31782 c 0,-74.058 -36.21544,-133.67981 -81.19997,-133.67981 z"
       id="rect4724"
       inkscape:connector-curvature="0"
       sodipodi:nodetypes="cccccccccccssssc" />
    <g
       aria-label="Made by ColdPlay"
       transform="rotate(90)"
       style="font-style:normal;font-variant:normal;font-weight:normal;font-stretch:normal;font-size:5px;line-height:1.25;font-family:Gabriola;-inkscape-font-specification:Gabriola;letter-spacing:0px;word-spacing:0px;fill:#0000ff;fill-opacity:1;stroke:#0000ff;stroke-width:0.93750002;opacity:1"
       id="text4735">
      <path
         d="m 636.70724,-576.83347 q -0.23735,0.15743 -0.43822,0.27392 -0.19751,0.11178 -0.3691,0.18262 -0.17147,0.0761 -0.31961,0.11179 -0.14823,0.0372 -0.28671,0.0372 -0.18789,0 -0.32949,-0.11179 -0.14187,-0.10622 -0.23737,-0.35536 -0.0923,-0.24844 -0.13835,-0.6545 -0.0462,-0.4057 -0.0462,-1.0046 v -0.44649 q 0,-0.31465 0,-0.72555 10e-4,-0.41604 0.005,-0.87777 10e-4,-0.46677 0.005,-0.94876 0.005,-0.482 0.0152,-0.92849 0.005,-0.45156 0.0152,-0.84226 0.005,-0.39069 0.0152,-0.66465 0.0171,-0.5936 0.0359,-1.18217 0.0243,-0.59364 0.0595,-1.16191 l -0.0272,-0.0184 q -0.0561,0.22816 -0.135,0.52265 -0.0791,0.28927 -0.20113,0.70013 -0.28998,0.98432 -0.5931,2.03965 -0.29988,1.05534 -0.60962,2.15633 -0.30646,1.09595 -0.61952,2.22737 -0.313,1.12638 -0.62275,2.25272 l -0.16147,-0.007 q -0.0691,-0.34499 -0.16807,-0.81181 -0.0987,-0.47182 -0.21766,-1.01472 -0.11841,-0.548 -0.25377,-1.15175 -0.13164,-0.60885 -0.2702,-1.22782 -0.13836,-0.62411 -0.28008,-1.24308 -0.13835,-0.619 -0.2702,-1.19235 -0.12863,-0.57333 -0.24724,-1.07561 -0.11521,-0.50736 -0.20752,-0.90312 -0.10584,-0.46173 -0.1845,-0.81685 -0.0759,-0.35537 -0.13165,-0.62916 l -0.0243,0.0185 q 0,0.152 0,0.30423 10e-4,0.14708 10e-4,0.31964 v 0.83715 q 0,0.80669 -0.0171,1.64894 -0.0171,0.83721 -0.0429,1.65405 -0.0268,0.81177 -0.0627,1.57286 -0.036,0.76105 -0.0759,1.40538 -0.033,0.5328 -0.0627,0.90824 -0.0271,0.37034 -0.0627,0.62408 -0.033,0.25353 -0.0825,0.4007 -0.0493,0.14216 -0.12513,0.21804 -0.0719,0.0761 -0.18107,0.0963 -0.10537,0.0205 -0.25375,0.0205 h -0.0987 q -0.0296,0 -0.0727,-0.004 -0.0429,0 -0.10549,-0.004 l -0.0462,-0.0505 q 0.1551,-0.49215 0.27352,-1.09592 0.1223,-0.60887 0.21092,-1.28873 0.0923,-0.67989 0.1583,-1.40544 0.066,-0.73061 0.10869,-1.45614 0.0462,-0.72556 0.0725,-1.43083 0.0296,-0.70521 0.0429,-1.33943 0.0152,-0.63421 0.0171,-1.17203 0.005,-0.53783 0.005,-0.93862 0,-0.25895 -0.0243,-0.42618 -0.0243,-0.16744 -0.0824,-0.26392 -0.0561,-0.10127 -0.15829,-0.13726 -0.0987,-0.0416 -0.25697,-0.0416 -0.10869,0 -0.25049,0.0249 -0.14187,0.0206 -0.31304,0.0613 l -0.036,-0.44647 q 0.603,-0.21312 0.99182,-0.31464 0.38885,-0.10671 0.61953,-0.10671 0.11841,0 0.20453,0.0372 0.0853,0.0291 0.14823,0.11178 0.066,0.0761 0.11533,0.20844 0.0493,0.12672 0.0956,0.31961 0.17446,0.7509 0.36904,1.59821 0.1943,0.84733 0.39541,1.73015 0.20432,0.88282 0.4053,1.77075 0.20432,0.8828 0.39215,1.7149 0.0725,0.32961 0.13165,0.6038 0.0627,0.26888 0.11213,0.50229 0.0526,0.22817 0.0954,0.4414 0.0462,0.20799 0.0852,0.41608 h 0.0243 q 0.0527,-0.21803 0.10869,-0.42621 0.0561,-0.21313 0.11841,-0.43636 0.0627,-0.22814 0.13501,-0.48708 0.0759,-0.25896 0.16806,-0.58348 0.23088,-0.81177 0.4778,-1.68445 0.25047,-0.87271 0.51074,-1.78594 0.26372,-0.91333 0.5338,-1.85195 0.2702,-0.93863 0.54372,-1.88234 0.0296,-0.10139 0.0788,-0.16743 0.0527,-0.0662 0.11213,-0.10127 0.0627,-0.0416 0.12862,-0.0556 0.0658,-0.0185 0.12229,-0.0185 0.0957,0 0.20752,0.0416 0.11533,0.0372 0.22069,0.10623 -0.0493,0.83213 -0.0891,1.59317 -0.036,0.76108 -0.0627,1.48154 -0.0268,0.72046 -0.0462,1.42571 -0.0193,0.70017 -0.0296,1.41555 -0.008,0.7154 -0.0171,1.46127 -0.001,0.74583 -0.001,1.55763 0,0.53783 0.0296,0.91834 0.0296,0.38034 0.10205,0.62408 0.0759,0.23868 0.20091,0.34997 0.12513,0.11178 0.31305,0.11178 0.069,0 0.13163,-0.004 0.0658,-0.004 0.13517,-0.0205 0.0692,-0.0205 0.15159,-0.0556 0.0856,-0.0372 0.19429,-0.0912 z"
         style="font-style:normal;font-variant:normal;font-weight:normal;font-stretch:normal;font-size:5px;font-family:Gabriola;-inkscape-font-specification:Gabriola;fill:#0000ff;stroke:#0000ff;stroke-width:0.93749994"
         id="path4737"
         inkscape:connector-curvature="0" />
      <path
         d="m 639.67947,-581.67381 q 0,-0.40066 -0.0857,-0.69507 -0.0853,-0.29427 -0.22416,-0.48202 -0.13835,-0.18794 -0.31305,-0.27888 -0.1749,-0.0912 -0.34927,-0.0912 -0.23401,0 -0.39546,0.0761 -0.16129,0.0761 -0.26344,0.20821 -0.0988,0.13181 -0.14489,0.31464 -0.0429,0.17772 -0.0429,0.38572 0,0.24343 0.0559,0.49217 0.0595,0.24369 0.17148,0.47693 l -0.0152,0.0556 q -0.18811,0.14234 -0.37892,0.14234 -0.11177,0 -0.21094,-0.0505 -0.0956,-0.0556 -0.16806,-0.15709 -0.0692,-0.10127 -0.11213,-0.24846 -0.0397,-0.14725 -0.0397,-0.32959 0,-0.29925 0.0923,-0.56319 0.0956,-0.26396 0.25052,-0.48202 0.15509,-0.21805 0.35916,-0.3907 0.20433,-0.17235 0.42177,-0.28929 0.21768,-0.12181 0.43498,-0.18262 0.22066,-0.0662 0.40859,-0.0662 0.34596,0 0.5898,0.14235 0.24728,0.14216 0.39875,0.41606 0.1551,0.26893 0.22417,0.6545 0.072,0.38573 0.072,0.87267 0,0.33503 -0.0193,0.7357 -0.0171,0.40066 -0.0398,0.84226 -0.0243,0.43632 -0.0429,0.90313 -0.0171,0.46674 -0.0171,0.92848 0,0.73063 0.17449,1.101 0.17786,0.36535 0.46456,0.36535 0.25375,0 0.5668,-0.28928 l 0.0957,0.21803 q -0.22069,0.33998 -0.4811,0.51751 -0.26025,0.1775 -0.547,0.1775 -0.21421,0 -0.39541,-0.11178 -0.18107,-0.11178 -0.31304,-0.32959 -0.13165,-0.22317 -0.20452,-0.55808 -0.0724,-0.335 -0.0724,-0.77631 0,-0.13182 10e-4,-0.26393 0.005,-0.13181 0.0243,-0.27889 h -0.0193 q -0.14187,0.43633 -0.32954,0.86253 -0.1845,0.42115 -0.4086,0.75601 -0.22068,0.3296 -0.47449,0.53274 -0.2505,0.20776 -0.52723,0.20776 -0.22715,0 -0.41518,-0.1218 -0.18789,-0.12181 -0.32292,-0.335 -0.13165,-0.21312 -0.20753,-0.50232 -0.0727,-0.29426 -0.0727,-0.63928 0,-0.44646 0.10549,-0.81174 0.10869,-0.36539 0.29655,-0.65454 0.19111,-0.28928 0.45474,-0.49725 0.26376,-0.21311 0.57335,-0.34996 0.30977,-0.14234 0.65573,-0.20821 0.34604,-0.0711 0.70518,-0.0711 0.0243,-0.31963 0.036,-0.61904 0.0171,-0.29926 0.0171,-0.65956 z m -2.02324,3.48569 q 0,0.19798 0.0271,0.38071 0.0296,0.17771 0.089,0.31463 0.0627,0.13725 0.15509,0.21804 0.0957,0.0761 0.22717,0.0761 0.14823,0 0.30648,-0.10634 0.15828,-0.10623 0.30972,-0.29425 0.15509,-0.18796 0.29325,-0.44649 0.14188,-0.26393 0.25377,-0.57334 0.11212,-0.30965 0.1845,-0.64945 0.0759,-0.34498 0.0988,-0.70524 -0.24379,0.005 -0.48438,0.0509 -0.24052,0.0372 -0.45804,0.11674 -0.21399,0.0811 -0.39875,0.21311 -0.18448,0.1318 -0.3196,0.32959 -0.13165,0.19287 -0.20752,0.46171 -0.0759,0.26393 -0.0759,0.61393 z"
         style="font-style:normal;font-variant:normal;font-weight:normal;font-stretch:normal;font-size:5px;font-family:Gabriola;-inkscape-font-specification:Gabriola;fill:#0000ff;stroke:#0000ff;stroke-width:0.93749994"
         id="path4739"
         inkscape:connector-curvature="0" />
      <path
         d="m 646.53006,-590.07589 q -0.11841,1.28875 -0.22713,2.63834 -0.10869,1.34962 -0.19112,2.68909 -0.0825,1.33946 -0.13165,2.63831 -0.0493,1.2989 -0.0493,2.49124 0,0.57331 0.005,0.98425 0.008,0.41107 0.0272,0.69512 0.0193,0.2843 0.0493,0.45155 0.0329,0.16745 0.0792,0.25895 0.0493,0.0912 0.11201,0.12182 0.0627,0.0249 0.14822,0.0249 0.1583,0 0.33941,-0.0711 0.18449,-0.0761 0.37234,-0.20821 l 0.0625,0.26392 q -0.11841,0.14725 -0.29983,0.29925 -0.17788,0.15201 -0.37563,0.27892 -0.1975,0.12672 -0.38884,0.20289 -0.18791,0.0811 -0.32622,0.0811 -0.10205,0 -0.17787,-0.0372 -0.0759,-0.0372 -0.13165,-0.12672 -0.0527,-0.0864 -0.0923,-0.23365 -0.036,-0.14726 -0.0595,-0.37533 -0.0296,-0.30425 -0.0493,-0.71035 -0.0171,-0.40608 -0.0171,-0.88281 0,-0.50736 0.0243,-1.02996 0.0272,-0.5277 0.0825,-1.05026 l -0.0296,-0.007 q -0.25376,1.02996 -0.5536,1.86207 -0.29655,0.83206 -0.61289,1.42059 -0.31632,0.5886 -0.63596,0.90821 -0.31963,0.31468 -0.61288,0.31468 -0.29659,0 -0.51077,-0.23368 -0.21397,-0.22817 -0.35261,-0.60376 -0.13551,-0.38073 -0.20112,-0.86761 -0.0659,-0.49215 -0.0659,-1.00966 0,-0.6241 0.0889,-1.22786 0.089,-0.60884 0.25375,-1.15173 0.16764,-0.54294 0.40195,-1.00461 0.23404,-0.4668 0.52397,-0.80164 0.28997,-0.33499 0.6261,-0.5226 0.33937,-0.19287 0.71174,-0.19287 0.26023,0 0.51733,0.10127 0.26022,0.10127 0.51735,0.33498 0.0171,-0.86251 0.0397,-1.75042 0.0271,-0.89297 0.0595,-1.73519 0.0329,-0.84226 0.0727,-1.59319 0.0396,-0.75089 0.0856,-1.33942 0.008,-0.1218 0.0527,-0.20799 0.0429,-0.0912 0.10869,-0.14233 0.066,-0.0556 0.14823,-0.0811 0.0825,-0.0249 0.16807,-0.0249 0.19751,0 0.41522,0.16252 z m -1.18291,7.1489 q -0.4449,-0.32461 -0.88312,-0.32461 -0.31963,0 -0.58985,0.15744 -0.26697,0.15709 -0.48107,0.43633 -0.21399,0.2739 -0.37566,0.64944 -0.16147,0.37034 -0.26698,0.80163 -0.10549,0.4262 -0.16144,0.88792 -0.0527,0.46169 -0.0527,0.91834 0,0.16253 0.008,0.37532 0.008,0.20844 0.036,0.43633 0.0296,0.22317 0.0759,0.44142 0.0462,0.21312 0.11521,0.3857 0.0692,0.17254 0.16466,0.2789 0.0987,0.10127 0.23087,0.10127 0.23735,0 0.48438,-0.27391 0.24724,-0.27391 0.48109,-0.72553 0.23736,-0.45156 0.44485,-1.03501 0.21095,-0.58355 0.37235,-1.19744 0.16464,-0.61899 0.26697,-1.2177 0.10549,-0.60373 0.12862,-1.09592 z"
         style="font-style:normal;font-variant:normal;font-weight:normal;font-stretch:normal;font-size:5px;font-family:Gabriola;-inkscape-font-specification:Gabriola;fill:#0000ff;stroke:#0000ff;stroke-width:0.93749994"
         id="path4741"
         inkscape:connector-curvature="0" />
      <path
         d="m 650.81046,-578.03081 q 0.0193,0.0185 0.0492,0.0457 0.0328,0.0249 0.0595,0.0605 0.0271,0.0291 0.0462,0.0711 0.0192,0.0372 0.0192,0.0711 0,0.0205 -0.008,0.0416 -0.18449,0.39569 -0.39873,0.69002 -0.21095,0.28929 -0.44153,0.48708 -0.22716,0.19288 -0.46465,0.28429 -0.23737,0.0963 -0.4679,0.0963 -0.39544,0 -0.72493,-0.24846 -0.32952,-0.24846 -0.56677,-0.6799 -0.23734,-0.43123 -0.37237,-1.00965 -0.13165,-0.58347 -0.13165,-1.24814 0,-0.54285 0.0759,-1.08577 0.0791,-0.54289 0.22414,-1.03502 0.14823,-0.49217 0.35918,-0.91331 0.21094,-0.42618 0.47781,-0.73566 0.27016,-0.31464 0.5898,-0.49216 0.32293,-0.17771 0.69199,-0.17771 0.24374,0 0.46462,0.10127 0.22067,0.10127 0.38551,0.29429 0.16826,0.18796 0.26698,0.4668 0.0987,0.27889 0.0987,0.63419 0,0.51755 -0.22069,0.90311 -0.21766,0.38573 -0.60302,0.65449 -0.38553,0.26897 -0.90946,0.43639 -0.52061,0.16252 -1.12691,0.24368 v 0.0864 q 0,0.64946 0.10549,1.18724 0.10869,0.53785 0.29657,0.92344 0.18793,0.38029 0.44155,0.59361 0.25371,0.21314 0.54704,0.21314 0.29653,0 0.60628,-0.22319 0.313,-0.22815 0.63266,-0.73566 z m -0.61949,-4.07425 q 0,-0.23368 -0.0527,-0.43635 -0.0492,-0.2029 -0.14185,-0.34997 -0.089,-0.15183 -0.21399,-0.23868 -0.12513,-0.0864 -0.27019,-0.0864 -0.21397,0 -0.38883,0.11674 -0.17469,0.11674 -0.31305,0.31961 -0.13834,0.19799 -0.24379,0.46678 -0.10549,0.26393 -0.18106,0.56322 -0.0727,0.29926 -0.11841,0.61391 -0.0462,0.31465 -0.066,0.6139 0.4679,-0.0509 0.83698,-0.17235 0.37237,-0.12673 0.62609,-0.31968 0.25698,-0.19797 0.39212,-0.46674 0.13517,-0.27395 0.13517,-0.6241 z"
         style="font-style:normal;font-variant:normal;font-weight:normal;font-stretch:normal;font-size:5px;font-family:Gabriola;-inkscape-font-specification:Gabriola;fill:#0000ff;stroke:#0000ff;stroke-width:0.93749994"
         id="path4743"
         inkscape:connector-curvature="0" />
      <path
         d="m 655.61149,-590.07589 q -0.0627,0.81181 -0.12513,1.67434 -0.0627,0.86251 -0.12229,1.74534 -0.0556,0.88284 -0.11213,1.77584 -0.0527,0.89295 -0.0988,1.76563 -0.0429,0.8676 -0.0759,1.7048 -0.033,0.83205 -0.0527,1.59823 l 0.036,0.004 q 0.26022,-0.98428 0.56018,-1.73523 0.29983,-0.75087 0.60957,-1.25823 0.30978,-0.5074 0.61293,-0.76617 0.30643,-0.25894 0.57663,-0.25894 0.22716,0 0.40206,0.13182 0.17446,0.12672 0.30311,0.34497 0.12863,0.21314 0.21399,0.49722 0.0853,0.27891 0.13835,0.58855 0.0527,0.30426 0.0724,0.61901 0.0243,0.31462 0.0243,0.58855 0,0.75596 -0.0987,1.41552 -0.0956,0.65458 -0.26694,1.19746 -0.17149,0.53781 -0.40535,0.95891 -0.23399,0.42115 -0.50744,0.71033 -0.27348,0.2893 -0.57666,0.43632 -0.30311,0.15182 -0.60961,0.15182 -0.20432,0 -0.41186,-0.0711 -0.20433,-0.0711 -0.40199,-0.21802 -0.19433,-0.14691 -0.36909,-0.37535 -0.17446,-0.23368 -0.31302,-0.54792 -0.11521,0.44649 -0.23396,0.73057 -0.11841,0.28435 -0.22069,0.45665 l -0.17148,-0.0661 q 0.18107,-0.7763 0.26696,-1.86206 0.0854,-1.09088 0.13165,-2.46583 0.0171,-0.58854 0.0397,-1.33943 0.0271,-0.75096 0.0526,-1.583 0.0271,-0.83214 0.0561,-1.69974 0.0296,-0.87266 0.0595,-1.6946 0.0296,-0.82197 0.0561,-1.55766 0.0271,-0.73569 0.0493,-1.30393 0.001,-0.12181 0.0492,-0.20799 0.0462,-0.0912 0.11521,-0.14234 0.069,-0.0556 0.15511,-0.0811 0.089,-0.0249 0.17489,-0.0249 0.2009,0 0.41848,0.16252 z m 2.15834,9.51326 q 0,-0.34496 -0.036,-0.71032 -0.033,-0.36533 -0.10869,-0.65958 -0.0725,-0.29926 -0.19431,-0.4871 -0.11841,-0.19286 -0.28999,-0.19286 -0.20089,0 -0.39869,0.15709 -0.1943,0.15182 -0.37896,0.41603 -0.18106,0.25895 -0.34927,0.60382 -0.16763,0.33999 -0.31635,0.71535 -0.14488,0.37533 -0.26345,0.76109 -0.11533,0.38027 -0.20091,0.72554 -0.0825,0.34495 -0.12863,0.62914 -0.0462,0.27891 -0.0462,0.44649 0.0492,0.31462 0.15157,0.57333 0.10549,0.25357 0.2505,0.43631 0.14824,0.17772 0.32621,0.27395 0.18109,0.0963 0.38225,0.0963 0.32952,0 0.61951,-0.25356 0.29325,-0.25893 0.51075,-0.74585 0.21768,-0.48707 0.34268,-1.18724 0.12861,-0.70527 0.12861,-1.59823 z"
         style="font-style:normal;font-variant:normal;font-weight:normal;font-stretch:normal;font-size:5px;font-family:Gabriola;-inkscape-font-specification:Gabriola;fill:#0000ff;stroke:#0000ff;stroke-width:0.93749994"
         id="path4745"
         inkscape:connector-curvature="0" />
      <path
         d="m 660.85078,-576.41233 q -0.0856,-0.48196 -0.18449,-1.00969 -0.0956,-0.52765 -0.19752,-1.06036 -0.0986,-0.53276 -0.20113,-1.05029 -0.0986,-0.5175 -0.19428,-0.98431 -0.0923,-0.46678 -0.17789,-0.86254 -0.0824,-0.40067 -0.14822,-0.69 -0.0692,-0.29925 -0.13515,-0.4871 -0.0627,-0.19286 -0.13167,-0.29924 -0.0692,-0.10623 -0.14504,-0.14708 -0.0759,-0.0416 -0.16807,-0.0416 -0.10585,0 -0.22416,0.0372 -0.12229,0.0372 -0.29001,0.0963 l -0.0493,-0.36538 q 0.19791,-0.11178 0.38554,-0.20289 0.19111,-0.0912 0.3526,-0.15709 0.16145,-0.0662 0.28665,-0.10126 0.12513,-0.0372 0.19752,-0.0372 0.0853,0 0.16145,0.0457 0.079,0.0458 0.15158,0.16253 0.0759,0.11178 0.14489,0.31462 0.0691,0.19799 0.13835,0.50231 0.0462,0.19286 0.10869,0.49722 0.066,0.29929 0.14185,0.685 0.0759,0.38071 0.16147,0.83205 0.0857,0.4516 0.17148,0.94376 0.0891,0.48703 0.17469,0.99952 0.0853,0.51239 0.16463,1.01472 0.16465,-0.66466 0.34269,-1.38513 0.18109,-0.72552 0.36577,-1.45614 0.18813,-0.7306 0.37236,-1.44602 0.18449,-0.72047 0.3559,-1.375 0.0296,-0.11178 0.0788,-0.18221 0.0526,-0.0711 0.11545,-0.11142 0.0627,-0.0458 0.12862,-0.061 0.0691,-0.0205 0.13516,-0.0205 0.1087,0 0.21094,0.0505 0.10205,0.0458 0.1943,0.11686 -0.14823,0.37034 -0.30972,0.82698 -0.15829,0.4516 -0.32625,0.96912 -0.16765,0.51243 -0.3394,1.07057 -0.16807,0.55806 -0.33609,1.14157 -0.16826,0.57838 -0.3328,1.16696 -0.16146,0.58348 -0.31307,1.15174 -0.15509,0.57334 -0.29323,1.13141 -0.13836,0.5632 -0.27024,1.08577 -0.13165,0.52768 -0.26022,1.0097 -0.12513,0.48708 -0.25697,0.9082 -0.12514,0.39073 -0.26697,0.72554 -0.14186,0.33999 -0.31302,0.58349 -0.17148,0.24843 -0.37895,0.39069 -0.20432,0.14233 -0.45472,0.14233 -0.15511,0 -0.2801,-0.0662 -0.12513,-0.0613 -0.21094,-0.16744 -0.089,-0.10127 -0.135,-0.23866 -0.0462,-0.13726 -0.0462,-0.28932 0,-0.16745 0.066,-0.34996 0.0627,-0.17772 0.16806,-0.26894 0.13835,0.1318 0.28011,0.18795 0.14186,0.0556 0.25373,0.0556 0.2702,0 0.4778,-0.22815 0.21091,-0.22319 0.39546,-0.67481 0.18449,-0.45157 0.36904,-1.13146 0.1879,-0.67988 0.41515,-1.59315 l 0.0658,-0.26892 z"
         style="font-style:normal;font-variant:normal;font-weight:normal;font-stretch:normal;font-size:5px;font-family:Gabriola;-inkscape-font-specification:Gabriola;fill:#0000ff;stroke:#0000ff;stroke-width:0.93749994"
         id="path4747"
         inkscape:connector-curvature="0" />
      <path
         d="m 669.92233,-588.3914 q 0.43166,0 0.79742,0.1218 0.36905,0.12181 0.63596,0.29923 0.26697,0.1775 0.4185,0.38072 0.15158,0.20289 0.15158,0.37037 0,0.34994 -0.0171,0.9082 -0.0171,0.5581 -0.0429,1.34962 l -0.28665,-0.0185 q 10e-4,-0.0711 10e-4,-0.13181 10e-4,-0.0662 10e-4,-0.13726 -10e-4,-0.34997 -0.0528,-0.66461 -0.0462,-0.31962 -0.17147,-0.6089 -0.13165,-0.28924 -0.31634,-0.51243 -0.18085,-0.22318 -0.39873,-0.37533 -0.21768,-0.15217 -0.46461,-0.22814 -0.24698,-0.0811 -0.50413,-0.0811 -0.44157,0 -0.804,0.21312 -0.35922,0.20822 -0.6426,0.58351 -0.28334,0.37034 -0.49424,0.88285 -0.20752,0.50737 -0.34602,1.10605 -0.13517,0.59866 -0.20433,1.2583 -0.0658,0.65957 -0.0658,1.33437 0,0.79654 0.0853,1.50184 0.0856,0.70523 0.24376,1.29887 0.1583,0.59361 0.38222,1.06548 0.22415,0.47184 0.50088,0.80167 0.2801,0.32458 0.60301,0.49721 0.32625,0.17236 0.68539,0.17236 0.25049,0 0.51402,-0.0811 0.26698,-0.0864 0.54042,-0.26392 0.27351,-0.18264 0.55031,-0.45666 0.28009,-0.27889 0.55688,-0.66461 0.0271,0.0205 0.0595,0.0505 0.036,0.0291 0.0659,0.0711 0.0296,0.0372 0.0493,0.0811 0.0243,0.0458 0.0243,0.0912 0,0.0291 -0.0271,0.0862 -0.3229,0.54797 -0.65243,0.91837 -0.32952,0.37029 -0.66233,0.59866 -0.33279,0.22817 -0.6722,0.32463 -0.33611,0.10126 -0.67219,0.10126 -0.44488,0 -0.85019,-0.19285 -0.40198,-0.18794 -0.74799,-0.54286 -0.34596,-0.35538 -0.62606,-0.85745 -0.28009,-0.50738 -0.47777,-1.13654 -0.19752,-0.62917 -0.30651,-1.36485 -0.10549,-0.74074 -0.10549,-1.56268 0,-0.7915 0.10206,-1.58807 0.10549,-0.80168 0.30975,-1.53229 0.20753,-0.73063 0.51731,-1.36484 0.31305,-0.63415 0.72823,-1.10101 0.41519,-0.4718 0.93582,-0.73567 0.52067,-0.26891 1.14673,-0.26891 z"
         style="font-style:normal;font-variant:normal;font-weight:normal;font-stretch:normal;font-size:5px;font-family:Gabriola;-inkscape-font-specification:Gabriola;fill:#0000ff;stroke:#0000ff;stroke-width:0.93749994"
         id="path4749"
         inkscape:connector-curvature="0" />
      <path
         d="m 672.66718,-579.37538 q 0,-0.51245 0.0692,-1.0401 0.0692,-0.52773 0.20432,-1.01984 0.135,-0.49721 0.3328,-0.92848 0.20092,-0.43635 0.46131,-0.76109 0.26022,-0.32459 0.57996,-0.51244 0.31964,-0.18794 0.69528,-0.18794 0.42175,0 0.7447,0.27391 0.32622,0.27391 0.547,0.72555 0.22069,0.44649 0.3328,1.01981 0.11533,0.57332 0.11533,1.17206 0,0.51243 -0.069,1.04008 -0.0691,0.52765 -0.20753,1.02492 -0.13501,0.49213 -0.33609,0.92848 -0.19773,0.43125 -0.45803,0.75599 -0.26023,0.32461 -0.57996,0.51244 -0.31964,0.18794 -0.69528,0.18794 -0.42176,0 -0.74798,-0.27389 -0.32291,-0.2739 -0.54372,-0.72047 -0.21766,-0.4516 -0.33279,-1.0249 -0.11213,-0.57334 -0.11213,-1.17203 z m 0.78755,-0.482 q 0,0.34496 0.0329,0.70016 0.036,0.35536 0.10869,0.68497 0.0727,0.32958 0.17787,0.61895 0.10869,0.28431 0.25377,0.49724 0.14823,0.21314 0.3295,0.33502 0.18449,0.12182 0.4053,0.12182 0.24048,0 0.42178,-0.15709 0.18447,-0.16253 0.31636,-0.4262 0.135,-0.26393 0.22067,-0.60376 0.0889,-0.33999 0.14187,-0.7002 0.0526,-0.36533 0.0719,-0.72047 0.0243,-0.35537 0.0243,-0.65449 0,-0.34996 -0.036,-0.70016 -0.033,-0.35534 -0.10549,-0.67989 -0.0727,-0.32961 -0.18107,-0.61393 -0.10549,-0.28925 -0.25372,-0.49723 -0.14489,-0.21311 -0.32953,-0.33498 -0.18107,-0.1218 -0.40199,-0.1218 -0.24047,0 -0.42508,0.15742 -0.18107,0.15709 -0.31635,0.4211 -0.13165,0.26394 -0.22067,0.60381 -0.0852,0.33999 -0.13834,0.70012 -0.0528,0.36034 -0.0759,0.72048 -0.0193,0.35537 -0.0193,0.64942 z"
         style="font-style:normal;font-variant:normal;font-weight:normal;font-stretch:normal;font-size:5px;font-family:Gabriola;-inkscape-font-specification:Gabriola;fill:#0000ff;stroke:#0000ff;stroke-width:0.93749994"
         id="path4751"
         inkscape:connector-curvature="0" />
      <path
         d="m 679.1059,-590.07589 q -0.066,0.86253 -0.13165,1.77075 -0.0627,0.90309 -0.12228,1.83164 -0.0562,0.9234 -0.10549,1.85693 -0.0493,0.93356 -0.0853,1.84178 -0.0359,0.90312 -0.0561,1.77584 -0.0193,0.87266 -0.0193,1.67431 0,0.50232 0.005,0.86255 0.008,0.36033 0.0272,0.60879 0.0193,0.24846 0.0493,0.40067 0.033,0.15182 0.0792,0.23368 0.0463,0.0811 0.10869,0.11179 0.0627,0.0249 0.14823,0.0249 0.15827,0 0.33939,-0.0711 0.18449,-0.0761 0.37235,-0.2082 l 0.0627,0.26391 q -0.11841,0.14727 -0.29989,0.29929 -0.17787,0.15182 -0.37561,0.2789 -0.1975,0.12672 -0.38887,0.20289 -0.1881,0.0811 -0.32618,0.0811 -0.17787,0 -0.28341,-0.14216 -0.10205,-0.13726 -0.15829,-0.45161 -0.0528,-0.31464 -0.0692,-0.81688 -0.0134,-0.50736 -0.0134,-1.2329 0,-0.26393 0.008,-0.75091 0.008,-0.49213 0.0271,-1.14156 0.0192,-0.64945 0.0429,-1.42069 0.0243,-0.7712 0.0492,-1.59314 0.027,-0.82701 0.0559,-1.66416 0.0296,-0.84225 0.0595,-1.62362 0.0296,-0.78639 0.0561,-1.48152 0.0271,-0.69511 0.0492,-1.22784 0.001,-0.1218 0.0462,-0.20796 0.0429,-0.0912 0.1087,-0.14235 0.0692,-0.0556 0.15158,-0.0811 0.0856,-0.0249 0.17148,-0.0249 0.19751,0 0.4152,0.16253 z"
         style="font-style:normal;font-variant:normal;font-weight:normal;font-stretch:normal;font-size:5px;font-family:Gabriola;-inkscape-font-specification:Gabriola;fill:#0000ff;stroke:#0000ff;stroke-width:0.93749994"
         id="path4753"
         inkscape:connector-curvature="0" />
      <path
         d="m 684.88559,-590.07589 q -0.11841,1.28875 -0.22715,2.63834 -0.10869,1.34962 -0.19109,2.68909 -0.0824,1.33946 -0.13165,2.63831 -0.0493,1.2989 -0.0493,2.49124 0,0.57331 0.005,0.98425 0.008,0.41107 0.027,0.69512 0.0193,0.2843 0.0493,0.45155 0.0329,0.16745 0.0791,0.25895 0.0493,0.0912 0.11213,0.12182 0.0627,0.0249 0.14823,0.0249 0.15829,0 0.33942,-0.0711 0.18448,-0.0761 0.37235,-0.20821 l 0.0627,0.26392 q -0.11841,0.14725 -0.29988,0.29925 -0.17788,0.15201 -0.37566,0.27892 -0.19751,0.12672 -0.38882,0.20289 -0.18791,0.0811 -0.32621,0.0811 -0.10205,0 -0.17788,-0.0372 -0.0759,-0.0372 -0.13164,-0.12672 -0.0527,-0.0864 -0.0926,-0.23365 -0.036,-0.14726 -0.0595,-0.37533 -0.0296,-0.30425 -0.0492,-0.71035 -0.0171,-0.40608 -0.0171,-0.88281 0,-0.50736 0.0243,-1.02996 0.0271,-0.5277 0.0823,-1.05026 l -0.0296,-0.007 q -0.25373,1.02996 -0.5536,1.86207 -0.29655,0.83206 -0.61288,1.42059 -0.31634,0.5886 -0.63598,0.90821 -0.31962,0.31468 -0.61292,0.31468 -0.29652,0 -0.51073,-0.23368 -0.21399,-0.22817 -0.35256,-0.60376 -0.13501,-0.38073 -0.20093,-0.86761 -0.066,-0.49215 -0.066,-1.00966 0,-0.6241 0.0891,-1.22786 0.089,-0.60884 0.25371,-1.15173 0.16849,-0.54294 0.40205,-1.00461 0.234,-0.4668 0.52394,-0.80164 0.28994,-0.33499 0.62606,-0.5226 0.33939,-0.19287 0.71176,-0.19287 0.2602,0 0.51737,0.10127 0.26018,0.10127 0.51728,0.33498 0.0171,-0.86251 0.0397,-1.75042 0.0271,-0.89297 0.0595,-1.73519 0.0328,-0.84226 0.0727,-1.59319 0.0396,-0.75089 0.0852,-1.33942 0.008,-0.1218 0.0527,-0.20799 0.0429,-0.0912 0.10869,-0.14233 0.066,-0.0556 0.14824,-0.0811 0.0825,-0.0249 0.16763,-0.0249 0.19793,0 0.41521,0.16252 z m -1.18295,7.1489 q -0.44484,-0.32461 -0.88311,-0.32461 -0.31961,0 -0.58983,0.15744 -0.26699,0.15709 -0.48109,0.43633 -0.21398,0.2739 -0.37566,0.64944 -0.16131,0.37034 -0.26697,0.80163 -0.10549,0.4262 -0.16131,0.88792 -0.0527,0.46169 -0.0527,0.91834 0,0.16253 0.008,0.37532 0.008,0.20844 0.036,0.43633 0.0296,0.22317 0.0759,0.44142 0.0462,0.21312 0.11521,0.3857 0.0692,0.17254 0.16465,0.2789 0.0987,0.10127 0.23062,0.10127 0.23738,0 0.48443,-0.27391 0.24699,-0.27391 0.48106,-0.72553 0.23736,-0.45156 0.44485,-1.03501 0.21094,-0.58355 0.37236,-1.19744 0.16466,-0.61899 0.26698,-1.2177 0.10549,-0.60373 0.12863,-1.09592 z"
         style="font-style:normal;font-variant:normal;font-weight:normal;font-stretch:normal;font-size:5px;font-family:Gabriola;-inkscape-font-specification:Gabriola;fill:#0000ff;stroke:#0000ff;stroke-width:0.93749994"
         id="path4755"
         inkscape:connector-curvature="0" />
      <path
         d="m 686.64847,-586.53949 q 0,-0.21309 -0.0243,-0.36533 -0.0243,-0.15201 -0.0823,-0.24846 -0.0561,-0.0963 -0.1583,-0.14235 -0.10205,-0.0458 -0.2602,-0.0458 -0.21767,0 -0.55689,0.0761 l -0.0397,-0.45155 q 0.30979,-0.0864 0.67554,-0.17751 0.36906,-0.0912 0.7546,-0.16745 0.38885,-0.0761 0.77762,-0.1218 0.39213,-0.0505 0.75131,-0.0505 0.47451,0 0.8897,0.13181 0.41848,0.1318 0.72824,0.45156 0.31301,0.31463 0.49426,0.84732 0.18107,0.53277 0.18107,1.32935 0,0.92845 -0.20455,1.66925 -0.20089,0.73566 -0.56674,1.2481 -0.36577,0.51245 -0.87983,0.78644 -0.51074,0.26893 -1.13021,0.26893 -0.13817,0 -0.19431,-0.0662 -0.0561,-0.0662 -0.0561,-0.28432 v -0.0662 q 0,-0.0509 10e-4,-0.0761 0.48439,0 0.83038,-0.15217 0.3493,-0.15709 0.58657,-0.41109 0.23734,-0.25896 0.37895,-0.58346 0.14186,-0.33002 0.21764,-0.67479 0.0759,-0.34998 0.0987,-0.69005 0.0243,-0.33998 0.0243,-0.6139 0,-0.73571 -0.13499,-1.22276 -0.13165,-0.49214 -0.36248,-0.78138 -0.22717,-0.28925 -0.53383,-0.40606 -0.30647,-0.12182 -0.65244,-0.12182 -0.17446,0 -0.33611,0.0206 -0.15827,0.0205 -0.34599,0.0556 -0.005,0.3907 -0.0193,1.04517 -0.008,0.6545 -0.0271,1.50689 -0.0152,0.84733 -0.033,1.86205 -0.0193,1.00968 -0.0397,2.11574 -0.0193,1.10098 -0.0429,2.26794 -0.0243,1.16192 -0.0462,2.31874 l -0.78096,0.15181 -0.0595,-0.005 q 0.0397,-1.4562 0.0727,-2.76015 0.033,-1.30392 0.0527,-2.53685 0.0243,-1.238 0.036,-2.44554 0.0134,-1.21264 0.0134,-2.48103 z"
         style="font-style:normal;font-variant:normal;font-weight:normal;font-stretch:normal;font-size:5px;font-family:Gabriola;-inkscape-font-specification:Gabriola;fill:#0000ff;stroke:#0000ff;stroke-width:0.93749994"
         id="path4757"
         inkscape:connector-curvature="0" />
      <path
         d="m 693.02462,-590.07589 q -0.066,0.86253 -0.13165,1.77075 -0.0625,0.90309 -0.12229,1.83164 -0.0562,0.9234 -0.10584,1.85693 -0.0493,0.93356 -0.0853,1.84178 -0.036,0.90312 -0.0561,1.77584 -0.0193,0.87266 -0.0193,1.67431 0,0.50232 0.005,0.86255 0.008,0.36033 0.0271,0.60879 0.0192,0.24846 0.0492,0.40067 0.033,0.15182 0.0791,0.23368 0.0462,0.0811 0.10881,0.11179 0.0627,0.0249 0.14823,0.0249 0.15829,0 0.33939,-0.0711 0.18449,-0.0761 0.37234,-0.2082 l 0.0627,0.26391 q -0.11841,0.14727 -0.29987,0.29929 -0.17788,0.15182 -0.37564,0.2789 -0.19752,0.12672 -0.38887,0.20289 -0.18789,0.0811 -0.32618,0.0811 -0.17788,0 -0.28339,-0.14216 -0.10205,-0.13726 -0.15828,-0.45161 -0.0527,-0.31464 -0.0692,-0.81688 -0.0152,-0.50736 -0.0152,-1.2329 0,-0.26393 0.008,-0.75091 0.008,-0.49213 0.0271,-1.14156 0.0192,-0.64945 0.0429,-1.42069 0.0243,-0.7712 0.0492,-1.59314 0.0271,-0.82701 0.0561,-1.66416 0.0296,-0.84225 0.0595,-1.62362 0.0296,-0.78639 0.0561,-1.48152 0.0271,-0.69511 0.0493,-1.22784 0.001,-0.1218 0.0462,-0.20796 0.0429,-0.0912 0.10869,-0.14235 0.0691,-0.0556 0.15159,-0.0811 0.0853,-0.0249 0.17149,-0.0249 0.1975,0 0.41519,0.16253 z"
         style="font-style:normal;font-variant:normal;font-weight:normal;font-stretch:normal;font-size:5px;font-family:Gabriola;-inkscape-font-specification:Gabriola;fill:#0000ff;stroke:#0000ff;stroke-width:0.93749994"
         id="path4759"
         inkscape:connector-curvature="0" />
      <path
         d="m 696.77777,-581.67381 q 0,-0.40066 -0.0857,-0.69507 -0.0852,-0.29427 -0.22416,-0.48202 -0.13835,-0.18794 -0.31299,-0.27888 -0.17446,-0.0912 -0.34932,-0.0912 -0.23396,0 -0.39541,0.0761 -0.16144,0.0761 -0.2637,0.20821 -0.0988,0.13181 -0.14489,0.31464 -0.0429,0.17772 -0.0429,0.38572 0,0.24343 0.0556,0.49217 0.0595,0.24369 0.17148,0.47693 l -0.0152,0.0556 q -0.18789,0.14234 -0.37896,0.14234 -0.11213,0 -0.21093,-0.0505 -0.0957,-0.0556 -0.16765,-0.15709 -0.0691,-0.10127 -0.11189,-0.24846 -0.0396,-0.14725 -0.0396,-0.32959 0,-0.29925 0.0923,-0.56319 0.0954,-0.26396 0.2505,-0.48202 0.15511,-0.21805 0.35915,-0.3907 0.20436,-0.17235 0.42181,-0.28929 0.21767,-0.12181 0.43497,-0.18262 0.22067,-0.0662 0.40858,-0.0662 0.34599,0 0.58984,0.14235 0.24698,0.14216 0.39871,0.41606 0.15509,0.26893 0.22415,0.6545 0.0727,0.38573 0.0727,0.87267 0,0.33503 -0.0193,0.7357 -0.0171,0.40066 -0.0398,0.84226 -0.0243,0.43632 -0.0429,0.90313 -0.0171,0.46674 -0.0171,0.92848 0,0.73063 0.17446,1.101 0.1779,0.36535 0.46465,0.36535 0.25377,0 0.56677,-0.28928 l 0.0956,0.21803 q -0.22069,0.33998 -0.4811,0.51751 -0.26021,0.1775 -0.54699,0.1775 -0.21422,0 -0.3954,-0.11178 -0.1811,-0.11178 -0.31306,-0.32959 -0.13165,-0.22317 -0.20432,-0.55808 -0.0725,-0.335 -0.0725,-0.77631 0,-0.13182 10e-4,-0.26393 0.005,-0.13181 0.0243,-0.27889 h -0.0193 q -0.14187,0.43633 -0.32949,0.86253 -0.18449,0.42115 -0.40862,0.75601 -0.22069,0.3296 -0.4745,0.53274 -0.2505,0.20776 -0.52722,0.20776 -0.22715,0 -0.41518,-0.1218 -0.1881,-0.12181 -0.32295,-0.335 -0.13165,-0.21312 -0.20754,-0.50232 -0.0725,-0.29426 -0.0725,-0.63928 0,-0.44646 0.10549,-0.81174 0.10869,-0.36539 0.29654,-0.65454 0.19111,-0.28928 0.45475,-0.49725 0.26372,-0.21311 0.57333,-0.34996 0.30973,-0.14234 0.65576,-0.20821 0.34595,-0.0711 0.70516,-0.0711 0.0243,-0.31963 0.036,-0.61904 0.0171,-0.29926 0.0171,-0.65956 z m -2.02319,3.48569 q 0,0.19798 0.0271,0.38071 0.0296,0.17771 0.089,0.31463 0.0627,0.13725 0.1551,0.21804 0.0954,0.0761 0.22716,0.0761 0.14823,0 0.30645,-0.10634 0.15829,-0.10623 0.30974,-0.29425 0.15511,-0.18796 0.29326,-0.44649 0.14187,-0.26393 0.25376,-0.57334 0.11177,-0.30965 0.18449,-0.64945 0.0759,-0.34498 0.0987,-0.70524 -0.24372,0.005 -0.48438,0.0509 -0.24048,0.0372 -0.45802,0.11674 -0.21398,0.0811 -0.39872,0.21311 -0.18449,0.1318 -0.31963,0.32959 -0.13165,0.19287 -0.20752,0.46171 -0.0759,0.26393 -0.0759,0.61393 z"
         style="font-style:normal;font-variant:normal;font-weight:normal;font-stretch:normal;font-size:5px;font-family:Gabriola;-inkscape-font-specification:Gabriola;fill:#0000ff;stroke:#0000ff;stroke-width:0.93749994"
         id="path4761"
         inkscape:connector-curvature="0" />
      <path
         d="m 700.1289,-576.41233 q -0.0856,-0.48196 -0.18447,-1.00969 -0.0957,-0.52765 -0.19751,-1.06036 -0.0989,-0.53276 -0.20091,-1.05029 -0.0987,-0.5175 -0.19431,-0.98431 -0.0927,-0.46678 -0.17787,-0.86254 -0.0825,-0.40067 -0.14824,-0.69 -0.0692,-0.29925 -0.13515,-0.4871 -0.0627,-0.19286 -0.13165,-0.29924 -0.0692,-0.10623 -0.14506,-0.14708 -0.0759,-0.0416 -0.16763,-0.0416 -0.10585,0 -0.22416,0.0372 -0.12229,0.0372 -0.29,0.0963 l -0.0493,-0.36538 q 0.19751,-0.11178 0.38555,-0.20289 0.19111,-0.0912 0.35259,-0.15709 0.16146,-0.0662 0.28665,-0.10126 0.12515,-0.0372 0.19752,-0.0372 0.0852,0 0.1613,0.0457 0.0789,0.0458 0.15157,0.16253 0.0758,0.11178 0.14505,0.31462 0.069,0.19799 0.13835,0.50231 0.0462,0.19286 0.10869,0.49722 0.0659,0.29929 0.14188,0.685 0.0759,0.38071 0.16145,0.83205 0.0857,0.4516 0.17148,0.94376 0.089,0.48703 0.17446,0.99952 0.0857,0.51239 0.16465,1.01472 0.16464,-0.66466 0.34267,-1.38513 0.18107,-0.72552 0.36576,-1.45614 0.18812,-0.7306 0.37239,-1.44602 0.18446,-0.72047 0.35585,-1.375 0.0296,-0.11178 0.0788,-0.18221 0.0526,-0.0711 0.1152,-0.11142 0.0627,-0.0458 0.12862,-0.061 0.069,-0.0205 0.135,-0.0205 0.10869,0 0.21094,0.0505 0.10205,0.0458 0.1943,0.11686 -0.14823,0.37034 -0.30976,0.82698 -0.1583,0.4516 -0.3262,0.96912 -0.16808,0.51243 -0.33942,1.07057 -0.16806,0.55806 -0.33609,1.14157 -0.16765,0.57838 -0.3328,1.16696 -0.16147,0.58348 -0.31304,1.15174 -0.15509,0.57334 -0.2933,1.13141 -0.13818,0.5632 -0.27018,1.08577 -0.13165,0.52768 -0.26023,1.0097 -0.12513,0.48708 -0.25698,0.9082 -0.12513,0.39073 -0.26696,0.72554 -0.14187,0.33999 -0.31304,0.58349 -0.17147,0.24843 -0.37897,0.39069 -0.20433,0.14233 -0.45473,0.14233 -0.1551,0 -0.28009,-0.0662 -0.12513,-0.0613 -0.21093,-0.16744 -0.0891,-0.10127 -0.135,-0.23866 -0.0462,-0.13726 -0.0462,-0.28932 0,-0.16745 0.0659,-0.34996 0.0627,-0.17772 0.16849,-0.26894 0.13835,0.1318 0.2801,0.18795 0.14185,0.0556 0.25371,0.0556 0.27023,0 0.4778,-0.22815 0.21094,-0.22319 0.39542,-0.67481 0.18449,-0.45157 0.36905,-1.13146 0.18789,-0.67988 0.41517,-1.59315 l 0.0658,-0.26892 z"
         style="font-style:normal;font-variant:normal;font-weight:normal;font-stretch:normal;font-size:5px;font-family:Gabriola;-inkscape-font-specification:Gabriola;fill:#0000ff;stroke:#0000ff;stroke-width:0.93749994"
         id="path4763"
         inkscape:connector-curvature="0" />
    </g>
  </g>
</svg>
