  0
SECTION
  2
HEADER
  9
$ACADVER
  1
AC1014
  9
$HANDSEED
  5
FFFF
  9
$MEASUREMENT
 70
     1
  0
ENDSEC
  0
SECTION
  2
TABLES
  0
TABLE
  2
VPORT
  5
8
330
0
100
AcDbSymbolTable
 70
     4
  0
VPORT
  5
2E
330
8
100
AcDbSymbolTableRecord
100
AcDbViewportTableRecord
  2
*ACTIVE
 70
     0
 10
0.0
 20
0.0
 11
1.0
 21
1.0
 12
210.0
 22
148.5
 13
0.0
 23
0.0
 14
10.0
 24
10.0
 15
10.0
 25
10.0
 16
0.0
 26
0.0
 36
1.0
 17
0.0
 27
0.0
 37
0.0
 40
341.0
 41
1.24
 42
50.0
 43
0.0
 44
0.0
 50
0.0
 51
0.0
 71
     0
 72
   100
 73
     1
 74
     3
 75
     0
 76
     0
 77
     0
 78
     0
  0
ENDTAB
  0
TABLE
  2
LTYPE
  5
5
330
0
100
AcDbSymbolTable
 70
     1
  0
LTYPE
  5
14
330
5
100
AcDbSymbolTableRecord
100
AcDbLinetypeTableRecord
  2
BYBLOCK
 70
     0
  3

 72
    65
 73
     0
 40
0.0
  0
LTYPE
  5
15
330
5
100
AcDbSymbolTableRecord
100
AcDbLinetypeTableRecord
  2
BYLAYER
 70
     0
  3

 72
    65
 73
     0
 40
0.0
  0
LTYPE
  5
16
330
5
100
AcDbSymbolTableRecord
100
AcDbLinetypeTableRecord
  2
CONTINUOUS
 70
     0
  3
Solid line
 72
    65
 73
     0
 40
0.0
  0
ENDTAB
  0
TABLE
  2
LAYER
  5
2
100
AcDbSymbolTable
 70
2
  0
LAYER
  5
50
100
AcDbSymbolTableRecord
100
AcDbLayerTableRecord
  2
0
 70
0
  6
CONTINUOUS
  0
LAYER
  5
51
100
AcDbSymbolTableRecord
100
AcDbLayerTableRecord
  2
Capa_1
 70
0
  6
CONTINUOUS
  0
ENDTAB
  0
TABLE
  2
STYLE
  5
3
330
0
100
AcDbSymbolTable
 70
     1
  0
STYLE
  5
11
330
3
100
AcDbSymbolTableRecord
100
AcDbTextStyleTableRecord
  2
STANDARD
 70
     0
 40
0.0
 41
1.0
 50
0.0
 71
     0
 42
2.5
  3
txt
  4

  0
ENDTAB
  0
TABLE
  2
VIEW
  5
6
330
0
100
AcDbSymbolTable
 70
     0
  0
ENDTAB
  0
TABLE
  2
UCS
  5
7
330
0
100
AcDbSymbolTable
 70
     0
  0
ENDTAB
  0
TABLE
  2
APPID
  5
9
330
0
100
AcDbSymbolTable
 70
     2
  0
APPID
  5
12
330
9
100
AcDbSymbolTableRecord
100
AcDbRegAppTableRecord
  2
ACAD
 70
     0
  0
ENDTAB
  0
TABLE
  2
DIMSTYLE
  5
A
330
0
100
AcDbSymbolTable
 70
     1
  0
DIMSTYLE
105
27
330
A
100
AcDbSymbolTableRecord
100
AcDbDimStyleTableRecord
  2
ISO-25
 70
     0
  3

  4

  5

  6

  7

 40
1.0
 41
2.5
 42
0.625
 43
3.75
 44
1.25
 45
0.0
 46
0.0
 47
0.0
 48
0.0
140
2.5
141
2.5
142
0.0
143
0.03937007874016
144
1.0
145
0.0
146
1.0
147
0.625
 71
     0
 72
     0
 73
     0
 74
     0
 75
     0
 76
     0
 77
     1
 78
     8
170
     0
171
     3
172
     1
173
     0
174
     0
175
     0
176
     0
177
     0
178
     0
270
     2
271
     2
272
     2
273
     2
274
     3
340
11
275
     0
280
     0
281
     0
282
     0
283
     0
284
     8
285
     0
286
     0
287
     3
288
     0
  0
ENDTAB
  0
TABLE
  2
BLOCK_RECORD
  5
1
330
0
100
AcDbSymbolTable
 70
     1
  0
BLOCK_RECORD
  5
1F
330
1
100
AcDbSymbolTableRecord
100
AcDbBlockTableRecord
  2
*MODEL_SPACE
  0
BLOCK_RECORD
  5
1B
330
1
100
AcDbSymbolTableRecord
100
AcDbBlockTableRecord
  2
*PAPER_SPACE
  0
ENDTAB
  0
ENDSEC
  0
SECTION
  2
BLOCKS
  0
BLOCK
  5
20
330
1F
100
AcDbEntity
  8
0
100
AcDbBlockBegin
  2
*MODEL_SPACE
 70
     0
 10
0.0
 20
0.0
 30
0.0
  3
*MODEL_SPACE
  1

  0
ENDBLK
  5
21
330
1F
100
AcDbEntity
  8
0
100
AcDbBlockEnd
  0
BLOCK
  5
1C
330
1B
100
AcDbEntity
 67
     1
  8
0
100
AcDbBlockBegin
  2
*PAPER_SPACE
  1

  0
ENDBLK
  5
1D
330
1B
100
AcDbEntity
 67
     1
  8
0
100
AcDbBlockEnd
  0
ENDSEC
  0
SECTION
  2
ENTITIES
  0
LINE
  5
100
100
AcDbEntity
  8
Capa_1
 62
7
100
AcDbLine
 10
162.411860
 20
21.449957
 30
0.0
 11
162.411860
 21
21.449957
 31
0.0
  0
SPLINE
  5
101
100
AcDbEntity
  8
Capa_1
 62
7
100
AcDbSpline
 70
0
 71
3
 72
19
 73
15
 74
13
 40
0.000000
 40
0.000000
 40
0.000000
 40
0.000000
 40
1.307145
 40
2.575520
 40
3.882665
 40
5.189810
 40
6.458186
 40
7.765331
 40
9.072476
 40
10.340851
 40
11.647996
 40
12.955141
 40
14.223517
 40
15.530662
 40
15.530662
 40
15.530662
 40
15.530662
 10
162.411860
 20
21.449957
 30
0.0
 10
162.343148
 20
21.009249
 30
0.0
 10
162.207763
 20
20.140905
 30
0.0
 10
161.212473
 20
19.184929
 30
0.0
 10
159.914160
 20
18.830711
 30
0.0
 10
158.602217
 20
19.184929
 30
0.0
 10
157.647011
 20
20.140905
 30
0.0
 10
157.292531
 20
21.449957
 30
0.0
 10
157.647011
 20
22.759009
 30
0.0
 10
158.602217
 20
23.714985
 30
0.0
 10
159.914160
 20
24.069203
 30
0.0
 10
161.212473
 20
23.714985
 30
0.0
 10
162.207763
 20
22.759009
 30
0.0
 10
162.343148
 20
21.890665
 30
0.0
 10
162.411860
 20
21.449957
 30
0.0
 11
162.411860
 21
21.449957
 31
0.0
 11
162.070538
 21
20.188162
 31
0.0
 11
161.173661
 21
19.291285
 31
0.0
 11
159.911866
 21
18.949962
 31
0.0
 11
158.650071
 21
19.291285
 31
0.0
 11
157.753194
 21
20.188162
 31
0.0
 11
157.411871
 21
21.449957
 31
0.0
 11
157.753194
 21
22.711752
 31
0.0
 11
158.650071
 21
23.608629
 31
0.0
 11
159.911866
 21
23.949951
 31
0.0
 11
161.173661
 21
23.608629
 31
0.0
 11
162.070538
 21
22.711752
 31
0.0
 11
162.411860
 21
21.449957
 31
0.0
  0
LINE
  5
102
100
AcDbEntity
  8
Capa_1
 62
7
100
AcDbLine
 10
162.411860
 20
29.449928
 30
0.0
 11
162.411860
 21
29.449928
 31
0.0
  0
SPLINE
  5
103
100
AcDbEntity
  8
Capa_1
 62
7
100
AcDbSpline
 70
0
 71
3
 72
19
 73
15
 74
13
 40
0.000000
 40
0.000000
 40
0.000000
 40
0.000000
 40
1.307145
 40
2.575520
 40
3.882665
 40
5.189810
 40
6.458186
 40
7.765331
 40
9.072476
 40
10.340851
 40
11.647996
 40
12.955141
 40
14.223517
 40
15.530662
 40
15.530662
 40
15.530662
 40
15.530662
 10
162.411860
 20
29.449928
 30
0.0
 10
162.343148
 20
29.009220
 30
0.0
 10
162.207763
 20
28.140876
 30
0.0
 10
161.212473
 20
27.184900
 30
0.0
 10
159.914160
 20
26.830682
 30
0.0
 10
158.602217
 20
27.184900
 30
0.0
 10
157.647011
 20
28.140876
 30
0.0
 10
157.292531
 20
29.449928
 30
0.0
 10
157.647011
 20
30.758980
 30
0.0
 10
158.602217
 20
31.714956
 30
0.0
 10
159.914160
 20
32.069174
 30
0.0
 10
161.212473
 20
31.714956
 30
0.0
 10
162.207763
 20
30.758980
 30
0.0
 10
162.343148
 20
29.890636
 30
0.0
 10
162.411860
 20
29.449928
 30
0.0
 11
162.411860
 21
29.449928
 31
0.0
 11
162.070538
 21
28.188133
 31
0.0
 11
161.173661
 21
27.291256
 31
0.0
 11
159.911866
 21
26.949934
 31
0.0
 11
158.650071
 21
27.291256
 31
0.0
 11
157.753194
 21
28.188133
 31
0.0
 11
157.411871
 21
29.449928
 31
0.0
 11
157.753194
 21
30.711723
 31
0.0
 11
158.650071
 21
31.608600
 31
0.0
 11
159.911866
 21
31.949923
 31
0.0
 11
161.173661
 21
31.608600
 31
0.0
 11
162.070538
 21
30.711723
 31
0.0
 11
162.411860
 21
29.449928
 31
0.0
  0
LINE
  5
104
100
AcDbEntity
  8
Capa_1
 62
7
100
AcDbLine
 10
162.351911
 20
93.449912
 30
0.0
 11
162.351911
 21
93.449912
 31
0.0
  0
SPLINE
  5
105
100
AcDbEntity
  8
Capa_1
 62
7
100
AcDbSpline
 70
0
 71
3
 72
19
 73
15
 74
13
 40
0.000000
 40
0.000000
 40
0.000000
 40
0.000000
 40
1.307145
 40
2.575520
 40
3.882665
 40
5.189810
 40
6.458186
 40
7.765331
 40
9.072476
 40
10.340851
 40
11.647996
 40
12.955141
 40
14.223517
 40
15.530662
 40
15.530662
 40
15.530662
 40
15.530662
 10
162.351911
 20
93.449912
 30
0.0
 10
162.283199
 20
93.009204
 30
0.0
 10
162.147814
 20
92.140860
 30
0.0
 10
161.152524
 20
91.184884
 30
0.0
 10
159.854211
 20
90.830666
 30
0.0
 10
158.542268
 20
91.184884
 30
0.0
 10
157.587062
 20
92.140860
 30
0.0
 10
157.232582
 20
93.449912
 30
0.0
 10
157.587062
 20
94.758964
 30
0.0
 10
158.542268
 20
95.714940
 30
0.0
 10
159.854211
 20
96.069158
 30
0.0
 10
161.152524
 20
95.714940
 30
0.0
 10
162.147814
 20
94.758964
 30
0.0
 10
162.283199
 20
93.890620
 30
0.0
 10
162.351911
 20
93.449912
 30
0.0
 11
162.351911
 21
93.449912
 31
0.0
 11
162.010589
 21
92.188117
 31
0.0
 11
161.113712
 21
91.291240
 31
0.0
 11
159.851917
 21
90.949917
 31
0.0
 11
158.590122
 21
91.291240
 31
0.0
 11
157.693245
 21
92.188117
 31
0.0
 11
157.351922
 21
93.449912
 31
0.0
 11
157.693245
 21
94.711707
 31
0.0
 11
158.590122
 21
95.608584
 31
0.0
 11
159.851917
 21
95.949906
 31
0.0
 11
161.113712
 21
95.608584
 31
0.0
 11
162.010589
 21
94.711707
 31
0.0
 11
162.351911
 21
93.449912
 31
0.0
  0
LINE
  5
106
100
AcDbEntity
  8
Capa_1
 62
7
100
AcDbLine
 10
162.411860
 20
85.449946
 30
0.0
 11
162.411860
 21
85.449946
 31
0.0
  0
SPLINE
  5
107
100
AcDbEntity
  8
Capa_1
 62
7
100
AcDbSpline
 70
0
 71
3
 72
19
 73
15
 74
13
 40
0.000000
 40
0.000000
 40
0.000000
 40
0.000000
 40
1.307145
 40
2.575520
 40
3.882665
 40
5.189810
 40
6.458186
 40
7.765331
 40
9.072476
 40
10.340851
 40
11.647996
 40
12.955141
 40
14.223517
 40
15.530662
 40
15.530662
 40
15.530662
 40
15.530662
 10
162.411860
 20
85.449946
 30
0.0
 10
162.343148
 20
85.009238
 30
0.0
 10
162.207763
 20
84.140894
 30
0.0
 10
161.212473
 20
83.184918
 30
0.0
 10
159.914160
 20
82.830700
 30
0.0
 10
158.602217
 20
83.184918
 30
0.0
 10
157.647011
 20
84.140894
 30
0.0
 10
157.292531
 20
85.449946
 30
0.0
 10
157.647011
 20
86.758998
 30
0.0
 10
158.602217
 20
87.714974
 30
0.0
 10
159.914160
 20
88.069192
 30
0.0
 10
161.212473
 20
87.714974
 30
0.0
 10
162.207763
 20
86.758998
 30
0.0
 10
162.343148
 20
85.890653
 30
0.0
 10
162.411860
 20
85.449946
 30
0.0
 11
162.411860
 21
85.449946
 31
0.0
 11
162.070538
 21
84.188151
 31
0.0
 11
161.173661
 21
83.291274
 31
0.0
 11
159.911866
 21
82.949951
 31
0.0
 11
158.650071
 21
83.291274
 31
0.0
 11
157.753194
 21
84.188151
 31
0.0
 11
157.411871
 21
85.449946
 31
0.0
 11
157.753194
 21
86.711741
 31
0.0
 11
158.650071
 21
87.608618
 31
0.0
 11
159.911866
 21
87.949940
 31
0.0
 11
161.173661
 21
87.608618
 31
0.0
 11
162.070538
 21
86.711741
 31
0.0
 11
162.411860
 21
85.449946
 31
0.0
  0
LINE
  5
108
100
AcDbEntity
  8
Capa_1
 62
7
100
AcDbLine
 10
97.751976
 20
109.449845
 30
0.0
 11
97.751976
 21
109.449845
 31
0.0
  0
SPLINE
  5
109
100
AcDbEntity
  8
Capa_1
 62
7
100
AcDbSpline
 70
0
 71
3
 72
19
 73
15
 74
13
 40
0.000000
 40
0.000000
 40
0.000000
 40
0.000000
 40
1.307145
 40
2.575520
 40
3.882665
 40
5.189810
 40
6.458186
 40
7.765331
 40
9.072476
 40
10.340851
 40
11.647996
 40
12.955141
 40
14.223517
 40
15.530662
 40
15.530662
 40
15.530662
 40
15.530662
 10
97.751976
 20
109.449845
 30
0.0
 10
97.683264
 20
109.009137
 30
0.0
 10
97.547878
 20
108.140793
 30
0.0
 10
96.552588
 20
107.184816
 30
0.0
 10
95.254276
 20
106.830598
 30
0.0
 10
93.942332
 20
107.184816
 30
0.0
 10
92.987127
 20
108.140793
 30
0.0
 10
92.632647
 20
109.449845
 30
0.0
 10
92.987127
 20
110.758897
 30
0.0
 10
93.942332
 20
111.714873
 30
0.0
 10
95.254276
 20
112.069091
 30
0.0
 10
96.552588
 20
111.714873
 30
0.0
 10
97.547878
 20
110.758897
 30
0.0
 10
97.683264
 20
109.890552
 30
0.0
 10
97.751976
 20
109.449845
 30
0.0
 11
97.751976
 21
109.449845
 31
0.0
 11
97.410653
 21
108.188050
 31
0.0
 11
96.513776
 21
107.291173
 31
0.0
 11
95.251981
 21
106.949850
 31
0.0
 11
93.990186
 21
107.291173
 31
0.0
 11
93.093309
 21
108.188050
 31
0.0
 11
92.751987
 21
109.449845
 31
0.0
 11
93.093309
 21
110.711640
 31
0.0
 11
93.990186
 21
111.608517
 31
0.0
 11
95.251981
 21
111.949839
 31
0.0
 11
96.513776
 21
111.608517
 31
0.0
 11
97.410653
 21
110.711640
 31
0.0
 11
97.751976
 21
109.449845
 31
0.0
  0
LINE
  5
10a
100
AcDbEntity
  8
Capa_1
 62
7
100
AcDbLine
 10
105.751947
 20
109.449845
 30
0.0
 11
105.751947
 21
109.449845
 31
0.0
  0
SPLINE
  5
10b
100
AcDbEntity
  8
Capa_1
 62
7
100
AcDbSpline
 70
0
 71
3
 72
19
 73
15
 74
13
 40
0.000000
 40
0.000000
 40
0.000000
 40
0.000000
 40
1.307145
 40
2.575520
 40
3.882665
 40
5.189810
 40
6.458186
 40
7.765331
 40
9.072476
 40
10.340851
 40
11.647996
 40
12.955141
 40
14.223517
 40
15.530662
 40
15.530662
 40
15.530662
 40
15.530662
 10
105.751947
 20
109.449845
 30
0.0
 10
105.683235
 20
109.009137
 30
0.0
 10
105.547849
 20
108.140793
 30
0.0
 10
104.552560
 20
107.184816
 30
0.0
 10
103.254247
 20
106.830598
 30
0.0
 10
101.942304
 20
107.184816
 30
0.0
 10
100.987098
 20
108.140793
 30
0.0
 10
100.632618
 20
109.449845
 30
0.0
 10
100.987098
 20
110.758897
 30
0.0
 10
101.942304
 20
111.714873
 30
0.0
 10
103.254247
 20
112.069091
 30
0.0
 10
104.552560
 20
111.714873
 30
0.0
 10
105.547849
 20
110.758897
 30
0.0
 10
105.683235
 20
109.890552
 30
0.0
 10
105.751947
 20
109.449845
 30
0.0
 11
105.751947
 21
109.449845
 31
0.0
 11
105.410625
 21
108.188050
 31
0.0
 11
104.513748
 21
107.291173
 31
0.0
 11
103.251953
 21
106.949850
 31
0.0
 11
101.990157
 21
107.291173
 31
0.0
 11
101.093281
 21
108.188050
 31
0.0
 11
100.751958
 21
109.449845
 31
0.0
 11
101.093281
 21
110.711640
 31
0.0
 11
101.990158
 21
111.608517
 31
0.0
 11
103.251953
 21
111.949839
 31
0.0
 11
104.513748
 21
111.608517
 31
0.0
 11
105.410625
 21
110.711640
 31
0.0
 11
105.751947
 21
109.449845
 31
0.0
  0
LINE
  5
10c
100
AcDbEntity
  8
Capa_1
 62
7
100
AcDbLine
 10
121.751877
 20
109.449845
 30
0.0
 11
121.751877
 21
109.449845
 31
0.0
  0
SPLINE
  5
10d
100
AcDbEntity
  8
Capa_1
 62
7
100
AcDbSpline
 70
0
 71
3
 72
19
 73
15
 74
13
 40
0.000000
 40
0.000000
 40
0.000000
 40
0.000000
 40
1.307145
 40
2.575520
 40
3.882665
 40
5.189810
 40
6.458186
 40
7.765331
 40
9.072476
 40
10.340851
 40
11.647996
 40
12.955141
 40
14.223517
 40
15.530662
 40
15.530662
 40
15.530662
 40
15.530662
 10
121.751877
 20
109.449845
 30
0.0
 10
121.683165
 20
109.009137
 30
0.0
 10
121.547779
 20
108.140793
 30
0.0
 10
120.552489
 20
107.184816
 30
0.0
 10
119.254177
 20
106.830598
 30
0.0
 10
117.942234
 20
107.184816
 30
0.0
 10
116.987028
 20
108.140793
 30
0.0
 10
116.632548
 20
109.449845
 30
0.0
 10
116.987028
 20
110.758897
 30
0.0
 10
117.942234
 20
111.714873
 30
0.0
 10
119.254177
 20
112.069091
 30
0.0
 10
120.552489
 20
111.714873
 30
0.0
 10
121.547779
 20
110.758897
 30
0.0
 10
121.683165
 20
109.890552
 30
0.0
 10
121.751877
 20
109.449845
 30
0.0
 11
121.751877
 21
109.449845
 31
0.0
 11
121.410554
 21
108.188050
 31
0.0
 11
120.513678
 21
107.291173
 31
0.0
 11
119.251883
 21
106.949850
 31
0.0
 11
117.990087
 21
107.291173
 31
0.0
 11
117.093211
 21
108.188050
 31
0.0
 11
116.751888
 21
109.449845
 31
0.0
 11
117.093211
 21
110.711640
 31
0.0
 11
117.990087
 21
111.608517
 31
0.0
 11
119.251883
 21
111.949839
 31
0.0
 11
120.513678
 21
111.608517
 31
0.0
 11
121.410554
 21
110.711640
 31
0.0
 11
121.751877
 21
109.449845
 31
0.0
  0
LINE
  5
10e
100
AcDbEntity
  8
Capa_1
 62
7
100
AcDbLine
 10
113.751918
 20
109.449845
 30
0.0
 11
113.751918
 21
109.449845
 31
0.0
  0
SPLINE
  5
10f
100
AcDbEntity
  8
Capa_1
 62
7
100
AcDbSpline
 70
0
 71
3
 72
19
 73
15
 74
13
 40
0.000000
 40
0.000000
 40
0.000000
 40
0.000000
 40
1.307145
 40
2.575520
 40
3.882665
 40
5.189810
 40
6.458186
 40
7.765331
 40
9.072476
 40
10.340851
 40
11.647996
 40
12.955141
 40
14.223517
 40
15.530662
 40
15.530662
 40
15.530662
 40
15.530662
 10
113.751918
 20
109.449845
 30
0.0
 10
113.683207
 20
109.009137
 30
0.0
 10
113.547821
 20
108.140793
 30
0.0
 10
112.552531
 20
107.184816
 30
0.0
 10
111.254218
 20
106.830598
 30
0.0
 10
109.942275
 20
107.184816
 30
0.0
 10
108.987070
 20
108.140793
 30
0.0
 10
108.632590
 20
109.449845
 30
0.0
 10
108.987070
 20
110.758897
 30
0.0
 10
109.942275
 20
111.714873
 30
0.0
 10
111.254218
 20
112.069091
 30
0.0
 10
112.552531
 20
111.714873
 30
0.0
 10
113.547821
 20
110.758897
 30
0.0
 10
113.683207
 20
109.890552
 30
0.0
 10
113.751918
 20
109.449845
 30
0.0
 11
113.751918
 21
109.449845
 31
0.0
 11
113.410596
 21
108.188050
 31
0.0
 11
112.513719
 21
107.291173
 31
0.0
 11
111.251924
 21
106.949850
 31
0.0
 11
109.990129
 21
107.291173
 31
0.0
 11
109.093252
 21
108.188050
 31
0.0
 11
108.751929
 21
109.449845
 31
0.0
 11
109.093252
 21
110.711640
 31
0.0
 11
109.990129
 21
111.608517
 31
0.0
 11
111.251924
 21
111.949839
 31
0.0
 11
112.513719
 21
111.608517
 31
0.0
 11
113.410596
 21
110.711640
 31
0.0
 11
113.751918
 21
109.449845
 31
0.0
  0
LINE
  5
110
100
AcDbEntity
  8
Capa_1
 62
7
100
AcDbLine
 10
129.751848
 20
109.449845
 30
0.0
 11
129.751848
 21
109.449845
 31
0.0
  0
SPLINE
  5
111
100
AcDbEntity
  8
Capa_1
 62
7
100
AcDbSpline
 70
0
 71
3
 72
19
 73
15
 74
13
 40
0.000000
 40
0.000000
 40
0.000000
 40
0.000000
 40
1.307145
 40
2.575520
 40
3.882665
 40
5.189810
 40
6.458186
 40
7.765331
 40
9.072476
 40
10.340851
 40
11.647996
 40
12.955141
 40
14.223517
 40
15.530662
 40
15.530662
 40
15.530662
 40
15.530662
 10
129.751848
 20
109.449845
 30
0.0
 10
129.683136
 20
109.009137
 30
0.0
 10
129.547751
 20
108.140793
 30
0.0
 10
128.552461
 20
107.184816
 30
0.0
 10
127.254148
 20
106.830598
 30
0.0
 10
125.942205
 20
107.184816
 30
0.0
 10
124.986999
 20
108.140793
 30
0.0
 10
124.632519
 20
109.449845
 30
0.0
 10
124.986999
 20
110.758897
 30
0.0
 10
125.942205
 20
111.714873
 30
0.0
 10
127.254148
 20
112.069091
 30
0.0
 10
128.552461
 20
111.714873
 30
0.0
 10
129.547751
 20
110.758897
 30
0.0
 10
129.683136
 20
109.890552
 30
0.0
 10
129.751848
 20
109.449845
 30
0.0
 11
129.751848
 21
109.449845
 31
0.0
 11
129.410526
 21
108.188050
 31
0.0
 11
128.513649
 21
107.291173
 31
0.0
 11
127.251854
 21
106.949850
 31
0.0
 11
125.990059
 21
107.291173
 31
0.0
 11
125.093182
 21
108.188050
 31
0.0
 11
124.751859
 21
109.449845
 31
0.0
 11
125.093182
 21
110.711640
 31
0.0
 11
125.990059
 21
111.608517
 31
0.0
 11
127.251854
 21
111.949839
 31
0.0
 11
128.513649
 21
111.608517
 31
0.0
 11
129.410526
 21
110.711640
 31
0.0
 11
129.751848
 21
109.449845
 31
0.0
  0
LINE
  5
112
100
AcDbEntity
  8
Capa_1
 62
7
100
AcDbLine
 10
137.751807
 20
109.449845
 30
0.0
 11
137.751807
 21
109.449845
 31
0.0
  0
SPLINE
  5
113
100
AcDbEntity
  8
Capa_1
 62
7
100
AcDbSpline
 70
0
 71
3
 72
19
 73
15
 74
13
 40
0.000000
 40
0.000000
 40
0.000000
 40
0.000000
 40
1.307145
 40
2.575520
 40
3.882665
 40
5.189810
 40
6.458186
 40
7.765331
 40
9.072476
 40
10.340851
 40
11.647996
 40
12.955141
 40
14.223517
 40
15.530662
 40
15.530662
 40
15.530662
 40
15.530662
 10
137.751807
 20
109.449845
 30
0.0
 10
137.683095
 20
109.009137
 30
0.0
 10
137.547709
 20
108.140793
 30
0.0
 10
136.552419
 20
107.184816
 30
0.0
 10
135.254107
 20
106.830598
 30
0.0
 10
133.942163
 20
107.184816
 30
0.0
 10
132.986958
 20
108.140793
 30
0.0
 10
132.632478
 20
109.449845
 30
0.0
 10
132.986958
 20
110.758897
 30
0.0
 10
133.942163
 20
111.714873
 30
0.0
 10
135.254107
 20
112.069091
 30
0.0
 10
136.552419
 20
111.714873
 30
0.0
 10
137.547709
 20
110.758897
 30
0.0
 10
137.683095
 20
109.890552
 30
0.0
 10
137.751807
 20
109.449845
 30
0.0
 11
137.751807
 21
109.449845
 31
0.0
 11
137.410484
 21
108.188050
 31
0.0
 11
136.513608
 21
107.291173
 31
0.0
 11
135.251812
 21
106.949850
 31
0.0
 11
133.990017
 21
107.291173
 31
0.0
 11
133.093140
 21
108.188050
 31
0.0
 11
132.751818
 21
109.449845
 31
0.0
 11
133.093140
 21
110.711640
 31
0.0
 11
133.990017
 21
111.608517
 31
0.0
 11
135.251812
 21
111.949839
 31
0.0
 11
136.513608
 21
111.608517
 31
0.0
 11
137.410484
 21
110.711640
 31
0.0
 11
137.751807
 21
109.449845
 31
0.0
  0
LINE
  5
114
100
AcDbEntity
  8
Capa_1
 62
7
100
AcDbLine
 10
137.751807
 20
5.450027
 30
0.0
 11
137.751807
 21
5.450027
 31
0.0
  0
SPLINE
  5
115
100
AcDbEntity
  8
Capa_1
 62
7
100
AcDbSpline
 70
0
 71
3
 72
19
 73
15
 74
13
 40
0.000000
 40
0.000000
 40
0.000000
 40
0.000000
 40
1.307145
 40
2.575520
 40
3.882665
 40
5.189810
 40
6.458186
 40
7.765331
 40
9.072476
 40
10.340851
 40
11.647996
 40
12.955141
 40
14.223517
 40
15.530662
 40
15.530662
 40
15.530662
 40
15.530662
 10
137.751807
 20
5.450027
 30
0.0
 10
137.683095
 20
5.009319
 30
0.0
 10
137.547709
 20
4.140975
 30
0.0
 10
136.552419
 20
3.184999
 30
0.0
 10
135.254107
 20
2.830781
 30
0.0
 10
133.942163
 20
3.184999
 30
0.0
 10
132.986958
 20
4.140975
 30
0.0
 10
132.632478
 20
5.450027
 30
0.0
 10
132.986958
 20
6.759079
 30
0.0
 10
133.942163
 20
7.715055
 30
0.0
 10
135.254107
 20
8.069273
 30
0.0
 10
136.552419
 20
7.715055
 30
0.0
 10
137.547709
 20
6.759079
 30
0.0
 10
137.683095
 20
5.890735
 30
0.0
 10
137.751807
 20
5.450027
 30
0.0
 11
137.751807
 21
5.450027
 31
0.0
 11
137.410484
 21
4.188232
 31
0.0
 11
136.513608
 21
3.291355
 31
0.0
 11
135.251812
 21
2.950032
 31
0.0
 11
133.990017
 21
3.291355
 31
0.0
 11
133.093140
 21
4.188232
 31
0.0
 11
132.751818
 21
5.450027
 31
0.0
 11
133.093140
 21
6.711822
 31
0.0
 11
133.990017
 21
7.608699
 31
0.0
 11
135.251812
 21
7.950021
 31
0.0
 11
136.513608
 21
7.608699
 31
0.0
 11
137.410484
 21
6.711822
 31
0.0
 11
137.751807
 21
5.450027
 31
0.0
  0
LINE
  5
116
100
AcDbEntity
  8
Capa_1
 62
7
100
AcDbLine
 10
129.751848
 20
5.450027
 30
0.0
 11
129.751848
 21
5.450027
 31
0.0
  0
SPLINE
  5
117
100
AcDbEntity
  8
Capa_1
 62
7
100
AcDbSpline
 70
0
 71
3
 72
19
 73
15
 74
13
 40
0.000000
 40
0.000000
 40
0.000000
 40
0.000000
 40
1.307145
 40
2.575520
 40
3.882665
 40
5.189810
 40
6.458186
 40
7.765331
 40
9.072476
 40
10.340851
 40
11.647996
 40
12.955141
 40
14.223517
 40
15.530662
 40
15.530662
 40
15.530662
 40
15.530662
 10
129.751848
 20
5.450027
 30
0.0
 10
129.683136
 20
5.009319
 30
0.0
 10
129.547751
 20
4.140975
 30
0.0
 10
128.552461
 20
3.184999
 30
0.0
 10
127.254148
 20
2.830781
 30
0.0
 10
125.942205
 20
3.184999
 30
0.0
 10
124.986999
 20
4.140975
 30
0.0
 10
124.632519
 20
5.450027
 30
0.0
 10
124.986999
 20
6.759079
 30
0.0
 10
125.942205
 20
7.715055
 30
0.0
 10
127.254148
 20
8.069273
 30
0.0
 10
128.552461
 20
7.715055
 30
0.0
 10
129.547751
 20
6.759079
 30
0.0
 10
129.683136
 20
5.890735
 30
0.0
 10
129.751848
 20
5.450027
 30
0.0
 11
129.751848
 21
5.450027
 31
0.0
 11
129.410526
 21
4.188232
 31
0.0
 11
128.513649
 21
3.291355
 31
0.0
 11
127.251854
 21
2.950032
 31
0.0
 11
125.990059
 21
3.291355
 31
0.0
 11
125.093182
 21
4.188232
 31
0.0
 11
124.751859
 21
5.450027
 31
0.0
 11
125.093182
 21
6.711822
 31
0.0
 11
125.990059
 21
7.608699
 31
0.0
 11
127.251854
 21
7.950021
 31
0.0
 11
128.513649
 21
7.608699
 31
0.0
 11
129.410526
 21
6.711822
 31
0.0
 11
129.751848
 21
5.450027
 31
0.0
  0
LINE
  5
118
100
AcDbEntity
  8
Capa_1
 62
7
100
AcDbLine
 10
113.751918
 20
5.450027
 30
0.0
 11
113.751918
 21
5.450027
 31
0.0
  0
SPLINE
  5
119
100
AcDbEntity
  8
Capa_1
 62
7
100
AcDbSpline
 70
0
 71
3
 72
19
 73
15
 74
13
 40
0.000000
 40
0.000000
 40
0.000000
 40
0.000000
 40
1.307145
 40
2.575520
 40
3.882665
 40
5.189810
 40
6.458186
 40
7.765331
 40
9.072476
 40
10.340851
 40
11.647996
 40
12.955141
 40
14.223517
 40
15.530662
 40
15.530662
 40
15.530662
 40
15.530662
 10
113.751918
 20
5.450027
 30
0.0
 10
113.683207
 20
5.009319
 30
0.0
 10
113.547821
 20
4.140975
 30
0.0
 10
112.552531
 20
3.184999
 30
0.0
 10
111.254218
 20
2.830781
 30
0.0
 10
109.942275
 20
3.184999
 30
0.0
 10
108.987070
 20
4.140975
 30
0.0
 10
108.632590
 20
5.450027
 30
0.0
 10
108.987070
 20
6.759079
 30
0.0
 10
109.942275
 20
7.715055
 30
0.0
 10
111.254218
 20
8.069273
 30
0.0
 10
112.552531
 20
7.715055
 30
0.0
 10
113.547821
 20
6.759079
 30
0.0
 10
113.683207
 20
5.890735
 30
0.0
 10
113.751918
 20
5.450027
 30
0.0
 11
113.751918
 21
5.450027
 31
0.0
 11
113.410596
 21
4.188232
 31
0.0
 11
112.513719
 21
3.291355
 31
0.0
 11
111.251924
 21
2.950032
 31
0.0
 11
109.990129
 21
3.291355
 31
0.0
 11
109.093252
 21
4.188232
 31
0.0
 11
108.751929
 21
5.450027
 31
0.0
 11
109.093252
 21
6.711822
 31
0.0
 11
109.990129
 21
7.608699
 31
0.0
 11
111.251924
 21
7.950021
 31
0.0
 11
112.513719
 21
7.608699
 31
0.0
 11
113.410596
 21
6.711822
 31
0.0
 11
113.751918
 21
5.450027
 31
0.0
  0
LINE
  5
11a
100
AcDbEntity
  8
Capa_1
 62
7
100
AcDbLine
 10
121.751877
 20
5.450027
 30
0.0
 11
121.751877
 21
5.450027
 31
0.0
  0
SPLINE
  5
11b
100
AcDbEntity
  8
Capa_1
 62
7
100
AcDbSpline
 70
0
 71
3
 72
19
 73
15
 74
13
 40
0.000000
 40
0.000000
 40
0.000000
 40
0.000000
 40
1.307145
 40
2.575520
 40
3.882665
 40
5.189810
 40
6.458186
 40
7.765331
 40
9.072476
 40
10.340851
 40
11.647996
 40
12.955141
 40
14.223517
 40
15.530662
 40
15.530662
 40
15.530662
 40
15.530662
 10
121.751877
 20
5.450027
 30
0.0
 10
121.683165
 20
5.009319
 30
0.0
 10
121.547779
 20
4.140975
 30
0.0
 10
120.552489
 20
3.184999
 30
0.0
 10
119.254177
 20
2.830781
 30
0.0
 10
117.942234
 20
3.184999
 30
0.0
 10
116.987028
 20
4.140975
 30
0.0
 10
116.632548
 20
5.450027
 30
0.0
 10
116.987028
 20
6.759079
 30
0.0
 10
117.942234
 20
7.715055
 30
0.0
 10
119.254177
 20
8.069273
 30
0.0
 10
120.552489
 20
7.715055
 30
0.0
 10
121.547779
 20
6.759079
 30
0.0
 10
121.683165
 20
5.890735
 30
0.0
 10
121.751877
 20
5.450027
 30
0.0
 11
121.751877
 21
5.450027
 31
0.0
 11
121.410554
 21
4.188232
 31
0.0
 11
120.513678
 21
3.291355
 31
0.0
 11
119.251883
 21
2.950032
 31
0.0
 11
117.990087
 21
3.291355
 31
0.0
 11
117.093211
 21
4.188232
 31
0.0
 11
116.751888
 21
5.450027
 31
0.0
 11
117.093211
 21
6.711822
 31
0.0
 11
117.990087
 21
7.608699
 31
0.0
 11
119.251883
 21
7.950021
 31
0.0
 11
120.513678
 21
7.608699
 31
0.0
 11
121.410554
 21
6.711822
 31
0.0
 11
121.751877
 21
5.450027
 31
0.0
  0
LINE
  5
11c
100
AcDbEntity
  8
Capa_1
 62
7
100
AcDbLine
 10
105.751947
 20
5.450027
 30
0.0
 11
105.751947
 21
5.450027
 31
0.0
  0
SPLINE
  5
11d
100
AcDbEntity
  8
Capa_1
 62
7
100
AcDbSpline
 70
0
 71
3
 72
19
 73
15
 74
13
 40
0.000000
 40
0.000000
 40
0.000000
 40
0.000000
 40
1.307145
 40
2.575520
 40
3.882665
 40
5.189810
 40
6.458186
 40
7.765331
 40
9.072476
 40
10.340851
 40
11.647996
 40
12.955141
 40
14.223517
 40
15.530662
 40
15.530662
 40
15.530662
 40
15.530662
 10
105.751947
 20
5.450027
 30
0.0
 10
105.683235
 20
5.009319
 30
0.0
 10
105.547849
 20
4.140975
 30
0.0
 10
104.552560
 20
3.184999
 30
0.0
 10
103.254247
 20
2.830781
 30
0.0
 10
101.942304
 20
3.184999
 30
0.0
 10
100.987098
 20
4.140975
 30
0.0
 10
100.632618
 20
5.450027
 30
0.0
 10
100.987098
 20
6.759079
 30
0.0
 10
101.942304
 20
7.715055
 30
0.0
 10
103.254247
 20
8.069273
 30
0.0
 10
104.552560
 20
7.715055
 30
0.0
 10
105.547849
 20
6.759079
 30
0.0
 10
105.683235
 20
5.890735
 30
0.0
 10
105.751947
 20
5.450027
 30
0.0
 11
105.751947
 21
5.450027
 31
0.0
 11
105.410625
 21
4.188232
 31
0.0
 11
104.513748
 21
3.291355
 31
0.0
 11
103.251953
 21
2.950032
 31
0.0
 11
101.990157
 21
3.291355
 31
0.0
 11
101.093281
 21
4.188232
 31
0.0
 11
100.751958
 21
5.450027
 31
0.0
 11
101.093281
 21
6.711822
 31
0.0
 11
101.990158
 21
7.608699
 31
0.0
 11
103.251953
 21
7.950021
 31
0.0
 11
104.513748
 21
7.608699
 31
0.0
 11
105.410625
 21
6.711822
 31
0.0
 11
105.751947
 21
5.450027
 31
0.0
  0
LINE
  5
11e
100
AcDbEntity
  8
Capa_1
 62
7
100
AcDbLine
 10
97.751976
 20
5.450027
 30
0.0
 11
97.751976
 21
5.450027
 31
0.0
  0
SPLINE
  5
11f
100
AcDbEntity
  8
Capa_1
 62
7
100
AcDbSpline
 70
0
 71
3
 72
19
 73
15
 74
13
 40
0.000000
 40
0.000000
 40
0.000000
 40
0.000000
 40
1.307145
 40
2.575520
 40
3.882665
 40
5.189810
 40
6.458186
 40
7.765331
 40
9.072476
 40
10.340851
 40
11.647996
 40
12.955141
 40
14.223517
 40
15.530662
 40
15.530662
 40
15.530662
 40
15.530662
 10
97.751976
 20
5.450027
 30
0.0
 10
97.683264
 20
5.009319
 30
0.0
 10
97.547878
 20
4.140975
 30
0.0
 10
96.552588
 20
3.184999
 30
0.0
 10
95.254276
 20
2.830781
 30
0.0
 10
93.942332
 20
3.184999
 30
0.0
 10
92.987127
 20
4.140975
 30
0.0
 10
92.632647
 20
5.450027
 30
0.0
 10
92.987127
 20
6.759079
 30
0.0
 10
93.942332
 20
7.715055
 30
0.0
 10
95.254276
 20
8.069273
 30
0.0
 10
96.552588
 20
7.715055
 30
0.0
 10
97.547878
 20
6.759079
 30
0.0
 10
97.683264
 20
5.890735
 30
0.0
 10
97.751976
 20
5.450027
 30
0.0
 11
97.751976
 21
5.450027
 31
0.0
 11
97.410653
 21
4.188232
 31
0.0
 11
96.513776
 21
3.291355
 31
0.0
 11
95.251981
 21
2.950032
 31
0.0
 11
93.990186
 21
3.291355
 31
0.0
 11
93.093309
 21
4.188232
 31
0.0
 11
92.751987
 21
5.450027
 31
0.0
 11
93.093309
 21
6.711822
 31
0.0
 11
93.990186
 21
7.608699
 31
0.0
 11
95.251981
 21
7.950021
 31
0.0
 11
96.513776
 21
7.608699
 31
0.0
 11
97.410653
 21
6.711822
 31
0.0
 11
97.751976
 21
5.450027
 31
0.0
  0
SPLINE
  5
120
100
AcDbEntity
  8
Capa_1
 62
7
100
AcDbSpline
 70
0
 71
3
 72
13
 73
9
 74
7
 40
0.000000
 40
0.000000
 40
0.000000
 40
0.000000
 40
5.328430
 40
11.005660
 40
17.357788
 40
24.367565
 40
31.836205
 40
39.652491
 40
39.652491
 40
39.652491
 40
39.652491
 10
149.405886
 20
0.050002
 30
0.0
 10
151.190995
 20
0.262736
 30
0.0
 10
154.878065
 20
0.702132
 30
0.0
 10
159.838999
 20
4.016271
 30
0.0
 10
164.002296
 20
8.864991
 30
0.0
 10
167.128170
 20
15.130522
 30
0.0
 10
169.166139
 20
22.338345
 30
0.0
 10
169.421367
 20
27.440850
 30
0.0
 10
169.551883
 20
30.050129
 30
0.0
 11
149.405886
 21
0.050002
 31
0.0
 11
154.634257
 21
1.077769
 31
0.0
 11
159.466235
 21
4.058195
 31
0.0
 11
163.651307
 21
8.836761
 31
0.0
 11
166.860259
 21
15.068903
 31
0.0
 11
168.861706
 21
22.264374
 31
0.0
 11
169.551883
 21
30.050129
 31
0.0
  0
LINE
  5
121
100
AcDbEntity
  8
Capa_1
 62
7
100
AcDbLine
 10
149.404522
 20
0.050764
 30
0.0
 11
84.938218
 21
0.050764
 31
0.0
  0
LINE
  5
122
100
AcDbEntity
  8
Capa_1
 62
7
100
AcDbLine
 10
169.550348
 20
84.851015
 30
0.0
 11
169.550348
 21
30.050637
 31
0.0
  0
LINE
  5
123
100
AcDbEntity
  8
Capa_1
 62
7
100
AcDbLine
 10
84.938218
 20
114.850888
 30
0.0
 11
149.404522
 21
114.850888
 31
0.0
  0
SPLINE
  5
124
100
AcDbEntity
  8
Capa_1
 62
7
100
AcDbSpline
 70
0
 71
3
 72
13
 73
9
 74
7
 40
0.000000
 40
0.000000
 40
0.000000
 40
0.000000
 40
7.816230
 40
15.284811
 40
22.294528
 40
28.646604
 40
34.323793
 40
39.652188
 40
39.652188
 40
39.652188
 40
39.652188
 10
169.551883
 20
84.849999
 30
0.0
 10
169.421351
 20
87.459259
 30
0.0
 10
169.166092
 20
92.561724
 30
0.0
 10
167.128099
 20
99.769478
 30
0.0
 10
164.002220
 20
106.034941
 30
0.0
 10
159.838935
 20
110.883604
 30
0.0
 10
154.878027
 20
114.197701
 30
0.0
 10
151.190983
 20
114.637090
 30
0.0
 10
149.405886
 20
114.849822
 30
0.0
 11
169.551883
 21
84.849999
 31
0.0
 11
168.861662
 21
92.635694
 31
0.0
 11
166.860191
 21
99.831096
 31
0.0
 11
163.651235
 21
106.063170
 31
0.0
 11
159.466176
 21
110.841679
 31
0.0
 11
154.634224
 21
113.822067
 31
0.0
 11
149.405886
 21
114.849822
 31
0.0
  0
LINE
  5
125
100
AcDbEntity
  8
Capa_1
 62
5
100
AcDbLine
 10
142.516058
 20
74.950445
 30
0.0
 11
149.316058
 21
74.950445
 31
0.0
  0
LINE
  5
126
100
AcDbEntity
  8
Capa_1
 62
5
100
AcDbLine
 10
149.316058
 20
74.950445
 30
0.0
 11
149.316058
 21
39.950444
 31
0.0
  0
LINE
  5
127
100
AcDbEntity
  8
Capa_1
 62
5
100
AcDbLine
 10
149.316058
 20
39.950444
 30
0.0
 11
142.516058
 21
39.950444
 31
0.0
  0
LINE
  5
128
100
AcDbEntity
  8
Capa_1
 62
5
100
AcDbLine
 10
142.516058
 20
39.950444
 30
0.0
 11
142.516058
 21
74.950445
 31
0.0
  0
LINE
  5
129
100
AcDbEntity
  8
Capa_1
 62
5
100
AcDbLine
 10
137.416060
 20
59.450442
 30
0.0
 11
154.416060
 21
59.450442
 31
0.0
  0
LINE
  5
12a
100
AcDbEntity
  8
Capa_1
 62
5
100
AcDbLine
 10
154.416060
 20
59.450442
 30
0.0
 11
154.416060
 21
55.450442
 31
0.0
  0
LINE
  5
12b
100
AcDbEntity
  8
Capa_1
 62
5
100
AcDbLine
 10
154.416060
 20
55.450442
 30
0.0
 11
137.416060
 21
55.450442
 31
0.0
  0
LINE
  5
12c
100
AcDbEntity
  8
Capa_1
 62
5
100
AcDbLine
 10
137.416060
 20
55.450442
 30
0.0
 11
137.416060
 21
59.450442
 31
0.0
  0
SPLINE
  5
12d
100
AcDbEntity
  8
Capa_1
 62
7
100
AcDbSpline
 70
0
 71
3
 72
10
 73
6
 74
4
 40
0.000000
 40
0.000000
 40
0.000000
 40
0.000000
 40
38.266532
 40
76.533240
 40
114.800123
 40
114.800123
 40
114.800123
 40
114.800123
 10
84.938218
 20
114.850887
 30
0.0
 10
84.938218
 20
102.095377
 30
0.0
 10
84.938218
 20
76.584297
 30
0.0
 10
84.938218
 20
38.317589
 30
0.0
 10
84.938218
 20
12.806392
 30
0.0
 10
84.938218
 20
0.050764
 30
0.0
 11
84.938218
 21
114.850887
 31
0.0
 11
84.938218
 21
76.584356
 31
0.0
 11
84.938218
 21
38.317648
 31
0.0
 11
84.938218
 21
0.050764
 31
0.0
  0
ENDSEC
  0
SECTION
  2
OBJECTS
  0
DICTIONARY
  5
C
330
0
100
AcDbDictionary
  3
ACAD_GROUP
350
D
  3
ACAD_MLINESTYLE
350
17
  0
DICTIONARY
  5
D
330
C
100
AcDbDictionary
  0
DICTIONARY
  5
1A
330
C
100
AcDbDictionary
  0
DICTIONARY
  5
17
330
C
100
AcDbDictionary
  3
STANDARD
350
18
  0
DICTIONARY
  5
19
330
C
100
AcDbDictionary
  0
ENDSEC
  0
EOF
