  0
SECTION
  2
HEADER
  9
$ACADVER
  1
AC1014
  9
$HANDSEED
  5
FFFF
  9
$MEASUREMENT
 70
     1
  0
ENDSEC
  0
SECTION
  2
TABLES
  0
TABLE
  2
VPORT
  5
8
330
0
100
AcDbSymbolTable
 70
     4
  0
VPORT
  5
2E
330
8
100
AcDbSymbolTableRecord
100
AcDbViewportTableRecord
  2
*ACTIVE
 70
     0
 10
0.0
 20
0.0
 11
1.0
 21
1.0
 12
210.0
 22
148.5
 13
0.0
 23
0.0
 14
10.0
 24
10.0
 15
10.0
 25
10.0
 16
0.0
 26
0.0
 36
1.0
 17
0.0
 27
0.0
 37
0.0
 40
341.0
 41
1.24
 42
50.0
 43
0.0
 44
0.0
 50
0.0
 51
0.0
 71
     0
 72
   100
 73
     1
 74
     3
 75
     0
 76
     0
 77
     0
 78
     0
  0
ENDTAB
  0
TABLE
  2
LTYPE
  5
5
330
0
100
AcDbSymbolTable
 70
     1
  0
LTYPE
  5
14
330
5
100
AcDbSymbolTableRecord
100
AcDbLinetypeTableRecord
  2
BYBLOCK
 70
     0
  3

 72
    65
 73
     0
 40
0.0
  0
LTYPE
  5
15
330
5
100
AcDbSymbolTableRecord
100
AcDbLinetypeTableRecord
  2
BYLAYER
 70
     0
  3

 72
    65
 73
     0
 40
0.0
  0
LTYPE
  5
16
330
5
100
AcDbSymbolTableRecord
100
AcDbLinetypeTableRecord
  2
CONTINUOUS
 70
     0
  3
Solid line
 72
    65
 73
     0
 40
0.0
  0
ENDTAB
  0
TABLE
  2
LAYER
  5
2
100
AcDbSymbolTable
 70
2
  0
LAYER
  5
50
100
AcDbSymbolTableRecord
100
AcDbLayerTableRecord
  2
0
 70
0
  6
CONTINUOUS
  0
LAYER
  5
51
100
AcDbSymbolTableRecord
100
AcDbLayerTableRecord
  2
Capa_1
 70
0
  6
CONTINUOUS
  0
ENDTAB
  0
TABLE
  2
STYLE
  5
3
330
0
100
AcDbSymbolTable
 70
     1
  0
STYLE
  5
11
330
3
100
AcDbSymbolTableRecord
100
AcDbTextStyleTableRecord
  2
STANDARD
 70
     0
 40
0.0
 41
1.0
 50
0.0
 71
     0
 42
2.5
  3
txt
  4

  0
ENDTAB
  0
TABLE
  2
VIEW
  5
6
330
0
100
AcDbSymbolTable
 70
     0
  0
ENDTAB
  0
TABLE
  2
UCS
  5
7
330
0
100
AcDbSymbolTable
 70
     0
  0
ENDTAB
  0
TABLE
  2
APPID
  5
9
330
0
100
AcDbSymbolTable
 70
     2
  0
APPID
  5
12
330
9
100
AcDbSymbolTableRecord
100
AcDbRegAppTableRecord
  2
ACAD
 70
     0
  0
ENDTAB
  0
TABLE
  2
DIMSTYLE
  5
A
330
0
100
AcDbSymbolTable
 70
     1
  0
DIMSTYLE
105
27
330
A
100
AcDbSymbolTableRecord
100
AcDbDimStyleTableRecord
  2
ISO-25
 70
     0
  3

  4

  5

  6

  7

 40
1.0
 41
2.5
 42
0.625
 43
3.75
 44
1.25
 45
0.0
 46
0.0
 47
0.0
 48
0.0
140
2.5
141
2.5
142
0.0
143
0.03937007874016
144
1.0
145
0.0
146
1.0
147
0.625
 71
     0
 72
     0
 73
     0
 74
     0
 75
     0
 76
     0
 77
     1
 78
     8
170
     0
171
     3
172
     1
173
     0
174
     0
175
     0
176
     0
177
     0
178
     0
270
     2
271
     2
272
     2
273
     2
274
     3
340
11
275
     0
280
     0
281
     0
282
     0
283
     0
284
     8
285
     0
286
     0
287
     3
288
     0
  0
ENDTAB
  0
TABLE
  2
BLOCK_RECORD
  5
1
330
0
100
AcDbSymbolTable
 70
     1
  0
BLOCK_RECORD
  5
1F
330
1
100
AcDbSymbolTableRecord
100
AcDbBlockTableRecord
  2
*MODEL_SPACE
  0
BLOCK_RECORD
  5
1B
330
1
100
AcDbSymbolTableRecord
100
AcDbBlockTableRecord
  2
*PAPER_SPACE
  0
ENDTAB
  0
ENDSEC
  0
SECTION
  2
BLOCKS
  0
BLOCK
  5
20
330
1F
100
AcDbEntity
  8
0
100
AcDbBlockBegin
  2
*MODEL_SPACE
 70
     0
 10
0.0
 20
0.0
 30
0.0
  3
*MODEL_SPACE
  1

  0
ENDBLK
  5
21
330
1F
100
AcDbEntity
  8
0
100
AcDbBlockEnd
  0
BLOCK
  5
1C
330
1B
100
AcDbEntity
 67
     1
  8
0
100
AcDbBlockBegin
  2
*PAPER_SPACE
  1

  0
ENDBLK
  5
1D
330
1B
100
AcDbEntity
 67
     1
  8
0
100
AcDbBlockEnd
  0
ENDSEC
  0
SECTION
  2
ENTITIES
  0
LINE
  5
100
100
AcDbEntity
  8
Capa_1
 62
7
100
AcDbLine
 10
97.751976
 20
109.449845
 30
0.0
 11
97.751976
 21
109.449845
 31
0.0
  0
SPLINE
  5
101
100
AcDbEntity
  8
Capa_1
 62
7
100
AcDbSpline
 70
0
 71
3
 72
19
 73
15
 74
13
 40
0.000000
 40
0.000000
 40
0.000000
 40
0.000000
 40
1.307145
 40
2.575520
 40
3.882665
 40
5.189810
 40
6.458186
 40
7.765331
 40
9.072476
 40
10.340851
 40
11.647996
 40
12.955141
 40
14.223517
 40
15.530662
 40
15.530662
 40
15.530662
 40
15.530662
 10
97.751976
 20
109.449845
 30
0.0
 10
97.683264
 20
109.009137
 30
0.0
 10
97.547878
 20
108.140793
 30
0.0
 10
96.552588
 20
107.184816
 30
0.0
 10
95.254276
 20
106.830598
 30
0.0
 10
93.942332
 20
107.184816
 30
0.0
 10
92.987127
 20
108.140793
 30
0.0
 10
92.632647
 20
109.449845
 30
0.0
 10
92.987127
 20
110.758897
 30
0.0
 10
93.942332
 20
111.714873
 30
0.0
 10
95.254276
 20
112.069091
 30
0.0
 10
96.552588
 20
111.714873
 30
0.0
 10
97.547878
 20
110.758897
 30
0.0
 10
97.683264
 20
109.890552
 30
0.0
 10
97.751976
 20
109.449845
 30
0.0
 11
97.751976
 21
109.449845
 31
0.0
 11
97.410653
 21
108.188050
 31
0.0
 11
96.513776
 21
107.291173
 31
0.0
 11
95.251981
 21
106.949850
 31
0.0
 11
93.990186
 21
107.291173
 31
0.0
 11
93.093309
 21
108.188050
 31
0.0
 11
92.751987
 21
109.449845
 31
0.0
 11
93.093309
 21
110.711640
 31
0.0
 11
93.990186
 21
111.608517
 31
0.0
 11
95.251981
 21
111.949839
 31
0.0
 11
96.513776
 21
111.608517
 31
0.0
 11
97.410653
 21
110.711640
 31
0.0
 11
97.751976
 21
109.449845
 31
0.0
  0
LINE
  5
102
100
AcDbEntity
  8
Capa_1
 62
7
100
AcDbLine
 10
105.751947
 20
109.449845
 30
0.0
 11
105.751947
 21
109.449845
 31
0.0
  0
SPLINE
  5
103
100
AcDbEntity
  8
Capa_1
 62
7
100
AcDbSpline
 70
0
 71
3
 72
19
 73
15
 74
13
 40
0.000000
 40
0.000000
 40
0.000000
 40
0.000000
 40
1.307145
 40
2.575520
 40
3.882665
 40
5.189810
 40
6.458186
 40
7.765331
 40
9.072476
 40
10.340851
 40
11.647996
 40
12.955141
 40
14.223517
 40
15.530662
 40
15.530662
 40
15.530662
 40
15.530662
 10
105.751947
 20
109.449845
 30
0.0
 10
105.683235
 20
109.009137
 30
0.0
 10
105.547849
 20
108.140793
 30
0.0
 10
104.552560
 20
107.184816
 30
0.0
 10
103.254247
 20
106.830598
 30
0.0
 10
101.942304
 20
107.184816
 30
0.0
 10
100.987098
 20
108.140793
 30
0.0
 10
100.632618
 20
109.449845
 30
0.0
 10
100.987098
 20
110.758897
 30
0.0
 10
101.942304
 20
111.714873
 30
0.0
 10
103.254247
 20
112.069091
 30
0.0
 10
104.552560
 20
111.714873
 30
0.0
 10
105.547849
 20
110.758897
 30
0.0
 10
105.683235
 20
109.890552
 30
0.0
 10
105.751947
 20
109.449845
 30
0.0
 11
105.751947
 21
109.449845
 31
0.0
 11
105.410625
 21
108.188050
 31
0.0
 11
104.513748
 21
107.291173
 31
0.0
 11
103.251953
 21
106.949850
 31
0.0
 11
101.990157
 21
107.291173
 31
0.0
 11
101.093281
 21
108.188050
 31
0.0
 11
100.751958
 21
109.449845
 31
0.0
 11
101.093281
 21
110.711640
 31
0.0
 11
101.990158
 21
111.608517
 31
0.0
 11
103.251953
 21
111.949839
 31
0.0
 11
104.513748
 21
111.608517
 31
0.0
 11
105.410625
 21
110.711640
 31
0.0
 11
105.751947
 21
109.449845
 31
0.0
  0
LINE
  5
104
100
AcDbEntity
  8
Capa_1
 62
7
100
AcDbLine
 10
121.751877
 20
109.449845
 30
0.0
 11
121.751877
 21
109.449845
 31
0.0
  0
SPLINE
  5
105
100
AcDbEntity
  8
Capa_1
 62
7
100
AcDbSpline
 70
0
 71
3
 72
19
 73
15
 74
13
 40
0.000000
 40
0.000000
 40
0.000000
 40
0.000000
 40
1.307145
 40
2.575520
 40
3.882665
 40
5.189810
 40
6.458186
 40
7.765331
 40
9.072476
 40
10.340851
 40
11.647996
 40
12.955141
 40
14.223517
 40
15.530662
 40
15.530662
 40
15.530662
 40
15.530662
 10
121.751877
 20
109.449845
 30
0.0
 10
121.683165
 20
109.009137
 30
0.0
 10
121.547779
 20
108.140793
 30
0.0
 10
120.552489
 20
107.184816
 30
0.0
 10
119.254177
 20
106.830598
 30
0.0
 10
117.942234
 20
107.184816
 30
0.0
 10
116.987028
 20
108.140793
 30
0.0
 10
116.632548
 20
109.449845
 30
0.0
 10
116.987028
 20
110.758897
 30
0.0
 10
117.942234
 20
111.714873
 30
0.0
 10
119.254177
 20
112.069091
 30
0.0
 10
120.552489
 20
111.714873
 30
0.0
 10
121.547779
 20
110.758897
 30
0.0
 10
121.683165
 20
109.890552
 30
0.0
 10
121.751877
 20
109.449845
 30
0.0
 11
121.751877
 21
109.449845
 31
0.0
 11
121.410554
 21
108.188050
 31
0.0
 11
120.513678
 21
107.291173
 31
0.0
 11
119.251883
 21
106.949850
 31
0.0
 11
117.990087
 21
107.291173
 31
0.0
 11
117.093211
 21
108.188050
 31
0.0
 11
116.751888
 21
109.449845
 31
0.0
 11
117.093211
 21
110.711640
 31
0.0
 11
117.990087
 21
111.608517
 31
0.0
 11
119.251883
 21
111.949839
 31
0.0
 11
120.513678
 21
111.608517
 31
0.0
 11
121.410554
 21
110.711640
 31
0.0
 11
121.751877
 21
109.449845
 31
0.0
  0
LINE
  5
106
100
AcDbEntity
  8
Capa_1
 62
7
100
AcDbLine
 10
113.751918
 20
109.449845
 30
0.0
 11
113.751918
 21
109.449845
 31
0.0
  0
SPLINE
  5
107
100
AcDbEntity
  8
Capa_1
 62
7
100
AcDbSpline
 70
0
 71
3
 72
19
 73
15
 74
13
 40
0.000000
 40
0.000000
 40
0.000000
 40
0.000000
 40
1.307145
 40
2.575520
 40
3.882665
 40
5.189810
 40
6.458186
 40
7.765331
 40
9.072476
 40
10.340851
 40
11.647996
 40
12.955141
 40
14.223517
 40
15.530662
 40
15.530662
 40
15.530662
 40
15.530662
 10
113.751918
 20
109.449845
 30
0.0
 10
113.683207
 20
109.009137
 30
0.0
 10
113.547821
 20
108.140793
 30
0.0
 10
112.552531
 20
107.184816
 30
0.0
 10
111.254218
 20
106.830598
 30
0.0
 10
109.942275
 20
107.184816
 30
0.0
 10
108.987070
 20
108.140793
 30
0.0
 10
108.632590
 20
109.449845
 30
0.0
 10
108.987070
 20
110.758897
 30
0.0
 10
109.942275
 20
111.714873
 30
0.0
 10
111.254218
 20
112.069091
 30
0.0
 10
112.552531
 20
111.714873
 30
0.0
 10
113.547821
 20
110.758897
 30
0.0
 10
113.683207
 20
109.890552
 30
0.0
 10
113.751918
 20
109.449845
 30
0.0
 11
113.751918
 21
109.449845
 31
0.0
 11
113.410596
 21
108.188050
 31
0.0
 11
112.513719
 21
107.291173
 31
0.0
 11
111.251924
 21
106.949850
 31
0.0
 11
109.990129
 21
107.291173
 31
0.0
 11
109.093252
 21
108.188050
 31
0.0
 11
108.751929
 21
109.449845
 31
0.0
 11
109.093252
 21
110.711640
 31
0.0
 11
109.990129
 21
111.608517
 31
0.0
 11
111.251924
 21
111.949839
 31
0.0
 11
112.513719
 21
111.608517
 31
0.0
 11
113.410596
 21
110.711640
 31
0.0
 11
113.751918
 21
109.449845
 31
0.0
  0
LINE
  5
108
100
AcDbEntity
  8
Capa_1
 62
7
100
AcDbLine
 10
129.751848
 20
109.449845
 30
0.0
 11
129.751848
 21
109.449845
 31
0.0
  0
SPLINE
  5
109
100
AcDbEntity
  8
Capa_1
 62
7
100
AcDbSpline
 70
0
 71
3
 72
19
 73
15
 74
13
 40
0.000000
 40
0.000000
 40
0.000000
 40
0.000000
 40
1.307145
 40
2.575520
 40
3.882665
 40
5.189810
 40
6.458186
 40
7.765331
 40
9.072476
 40
10.340851
 40
11.647996
 40
12.955141
 40
14.223517
 40
15.530662
 40
15.530662
 40
15.530662
 40
15.530662
 10
129.751848
 20
109.449845
 30
0.0
 10
129.683136
 20
109.009137
 30
0.0
 10
129.547751
 20
108.140793
 30
0.0
 10
128.552461
 20
107.184816
 30
0.0
 10
127.254148
 20
106.830598
 30
0.0
 10
125.942205
 20
107.184816
 30
0.0
 10
124.986999
 20
108.140793
 30
0.0
 10
124.632519
 20
109.449845
 30
0.0
 10
124.986999
 20
110.758897
 30
0.0
 10
125.942205
 20
111.714873
 30
0.0
 10
127.254148
 20
112.069091
 30
0.0
 10
128.552461
 20
111.714873
 30
0.0
 10
129.547751
 20
110.758897
 30
0.0
 10
129.683136
 20
109.890552
 30
0.0
 10
129.751848
 20
109.449845
 30
0.0
 11
129.751848
 21
109.449845
 31
0.0
 11
129.410526
 21
108.188050
 31
0.0
 11
128.513649
 21
107.291173
 31
0.0
 11
127.251854
 21
106.949850
 31
0.0
 11
125.990059
 21
107.291173
 31
0.0
 11
125.093182
 21
108.188050
 31
0.0
 11
124.751859
 21
109.449845
 31
0.0
 11
125.093182
 21
110.711640
 31
0.0
 11
125.990059
 21
111.608517
 31
0.0
 11
127.251854
 21
111.949839
 31
0.0
 11
128.513649
 21
111.608517
 31
0.0
 11
129.410526
 21
110.711640
 31
0.0
 11
129.751848
 21
109.449845
 31
0.0
  0
LINE
  5
10a
100
AcDbEntity
  8
Capa_1
 62
7
100
AcDbLine
 10
137.751807
 20
109.449845
 30
0.0
 11
137.751807
 21
109.449845
 31
0.0
  0
SPLINE
  5
10b
100
AcDbEntity
  8
Capa_1
 62
7
100
AcDbSpline
 70
0
 71
3
 72
19
 73
15
 74
13
 40
0.000000
 40
0.000000
 40
0.000000
 40
0.000000
 40
1.307145
 40
2.575520
 40
3.882665
 40
5.189810
 40
6.458186
 40
7.765331
 40
9.072476
 40
10.340851
 40
11.647996
 40
12.955141
 40
14.223517
 40
15.530662
 40
15.530662
 40
15.530662
 40
15.530662
 10
137.751807
 20
109.449845
 30
0.0
 10
137.683095
 20
109.009137
 30
0.0
 10
137.547709
 20
108.140793
 30
0.0
 10
136.552419
 20
107.184816
 30
0.0
 10
135.254107
 20
106.830598
 30
0.0
 10
133.942163
 20
107.184816
 30
0.0
 10
132.986958
 20
108.140793
 30
0.0
 10
132.632478
 20
109.449845
 30
0.0
 10
132.986958
 20
110.758897
 30
0.0
 10
133.942163
 20
111.714873
 30
0.0
 10
135.254107
 20
112.069091
 30
0.0
 10
136.552419
 20
111.714873
 30
0.0
 10
137.547709
 20
110.758897
 30
0.0
 10
137.683095
 20
109.890552
 30
0.0
 10
137.751807
 20
109.449845
 30
0.0
 11
137.751807
 21
109.449845
 31
0.0
 11
137.410484
 21
108.188050
 31
0.0
 11
136.513608
 21
107.291173
 31
0.0
 11
135.251812
 21
106.949850
 31
0.0
 11
133.990017
 21
107.291173
 31
0.0
 11
133.093140
 21
108.188050
 31
0.0
 11
132.751818
 21
109.449845
 31
0.0
 11
133.093140
 21
110.711640
 31
0.0
 11
133.990017
 21
111.608517
 31
0.0
 11
135.251812
 21
111.949839
 31
0.0
 11
136.513608
 21
111.608517
 31
0.0
 11
137.410484
 21
110.711640
 31
0.0
 11
137.751807
 21
109.449845
 31
0.0
  0
LINE
  5
10c
100
AcDbEntity
  8
Capa_1
 62
7
100
AcDbLine
 10
137.751807
 20
5.450027
 30
0.0
 11
137.751807
 21
5.450027
 31
0.0
  0
SPLINE
  5
10d
100
AcDbEntity
  8
Capa_1
 62
7
100
AcDbSpline
 70
0
 71
3
 72
19
 73
15
 74
13
 40
0.000000
 40
0.000000
 40
0.000000
 40
0.000000
 40
1.307145
 40
2.575520
 40
3.882665
 40
5.189810
 40
6.458186
 40
7.765331
 40
9.072476
 40
10.340851
 40
11.647996
 40
12.955141
 40
14.223517
 40
15.530662
 40
15.530662
 40
15.530662
 40
15.530662
 10
137.751807
 20
5.450027
 30
0.0
 10
137.683095
 20
5.009319
 30
0.0
 10
137.547709
 20
4.140975
 30
0.0
 10
136.552419
 20
3.184999
 30
0.0
 10
135.254107
 20
2.830781
 30
0.0
 10
133.942163
 20
3.184999
 30
0.0
 10
132.986958
 20
4.140975
 30
0.0
 10
132.632478
 20
5.450027
 30
0.0
 10
132.986958
 20
6.759079
 30
0.0
 10
133.942163
 20
7.715055
 30
0.0
 10
135.254107
 20
8.069273
 30
0.0
 10
136.552419
 20
7.715055
 30
0.0
 10
137.547709
 20
6.759079
 30
0.0
 10
137.683095
 20
5.890735
 30
0.0
 10
137.751807
 20
5.450027
 30
0.0
 11
137.751807
 21
5.450027
 31
0.0
 11
137.410484
 21
4.188232
 31
0.0
 11
136.513608
 21
3.291355
 31
0.0
 11
135.251812
 21
2.950032
 31
0.0
 11
133.990017
 21
3.291355
 31
0.0
 11
133.093140
 21
4.188232
 31
0.0
 11
132.751818
 21
5.450027
 31
0.0
 11
133.093140
 21
6.711822
 31
0.0
 11
133.990017
 21
7.608699
 31
0.0
 11
135.251812
 21
7.950021
 31
0.0
 11
136.513608
 21
7.608699
 31
0.0
 11
137.410484
 21
6.711822
 31
0.0
 11
137.751807
 21
5.450027
 31
0.0
  0
LINE
  5
10e
100
AcDbEntity
  8
Capa_1
 62
7
100
AcDbLine
 10
129.751848
 20
5.450027
 30
0.0
 11
129.751848
 21
5.450027
 31
0.0
  0
SPLINE
  5
10f
100
AcDbEntity
  8
Capa_1
 62
7
100
AcDbSpline
 70
0
 71
3
 72
19
 73
15
 74
13
 40
0.000000
 40
0.000000
 40
0.000000
 40
0.000000
 40
1.307145
 40
2.575520
 40
3.882665
 40
5.189810
 40
6.458186
 40
7.765331
 40
9.072476
 40
10.340851
 40
11.647996
 40
12.955141
 40
14.223517
 40
15.530662
 40
15.530662
 40
15.530662
 40
15.530662
 10
129.751848
 20
5.450027
 30
0.0
 10
129.683136
 20
5.009319
 30
0.0
 10
129.547751
 20
4.140975
 30
0.0
 10
128.552461
 20
3.184999
 30
0.0
 10
127.254148
 20
2.830781
 30
0.0
 10
125.942205
 20
3.184999
 30
0.0
 10
124.986999
 20
4.140975
 30
0.0
 10
124.632519
 20
5.450027
 30
0.0
 10
124.986999
 20
6.759079
 30
0.0
 10
125.942205
 20
7.715055
 30
0.0
 10
127.254148
 20
8.069273
 30
0.0
 10
128.552461
 20
7.715055
 30
0.0
 10
129.547751
 20
6.759079
 30
0.0
 10
129.683136
 20
5.890735
 30
0.0
 10
129.751848
 20
5.450027
 30
0.0
 11
129.751848
 21
5.450027
 31
0.0
 11
129.410526
 21
4.188232
 31
0.0
 11
128.513649
 21
3.291355
 31
0.0
 11
127.251854
 21
2.950032
 31
0.0
 11
125.990059
 21
3.291355
 31
0.0
 11
125.093182
 21
4.188232
 31
0.0
 11
124.751859
 21
5.450027
 31
0.0
 11
125.093182
 21
6.711822
 31
0.0
 11
125.990059
 21
7.608699
 31
0.0
 11
127.251854
 21
7.950021
 31
0.0
 11
128.513649
 21
7.608699
 31
0.0
 11
129.410526
 21
6.711822
 31
0.0
 11
129.751848
 21
5.450027
 31
0.0
  0
LINE
  5
110
100
AcDbEntity
  8
Capa_1
 62
7
100
AcDbLine
 10
113.751918
 20
5.450027
 30
0.0
 11
113.751918
 21
5.450027
 31
0.0
  0
SPLINE
  5
111
100
AcDbEntity
  8
Capa_1
 62
7
100
AcDbSpline
 70
0
 71
3
 72
19
 73
15
 74
13
 40
0.000000
 40
0.000000
 40
0.000000
 40
0.000000
 40
1.307145
 40
2.575520
 40
3.882665
 40
5.189810
 40
6.458186
 40
7.765331
 40
9.072476
 40
10.340851
 40
11.647996
 40
12.955141
 40
14.223517
 40
15.530662
 40
15.530662
 40
15.530662
 40
15.530662
 10
113.751918
 20
5.450027
 30
0.0
 10
113.683207
 20
5.009319
 30
0.0
 10
113.547821
 20
4.140975
 30
0.0
 10
112.552531
 20
3.184999
 30
0.0
 10
111.254218
 20
2.830781
 30
0.0
 10
109.942275
 20
3.184999
 30
0.0
 10
108.987070
 20
4.140975
 30
0.0
 10
108.632590
 20
5.450027
 30
0.0
 10
108.987070
 20
6.759079
 30
0.0
 10
109.942275
 20
7.715055
 30
0.0
 10
111.254218
 20
8.069273
 30
0.0
 10
112.552531
 20
7.715055
 30
0.0
 10
113.547821
 20
6.759079
 30
0.0
 10
113.683207
 20
5.890735
 30
0.0
 10
113.751918
 20
5.450027
 30
0.0
 11
113.751918
 21
5.450027
 31
0.0
 11
113.410596
 21
4.188232
 31
0.0
 11
112.513719
 21
3.291355
 31
0.0
 11
111.251924
 21
2.950032
 31
0.0
 11
109.990129
 21
3.291355
 31
0.0
 11
109.093252
 21
4.188232
 31
0.0
 11
108.751929
 21
5.450027
 31
0.0
 11
109.093252
 21
6.711822
 31
0.0
 11
109.990129
 21
7.608699
 31
0.0
 11
111.251924
 21
7.950021
 31
0.0
 11
112.513719
 21
7.608699
 31
0.0
 11
113.410596
 21
6.711822
 31
0.0
 11
113.751918
 21
5.450027
 31
0.0
  0
LINE
  5
112
100
AcDbEntity
  8
Capa_1
 62
7
100
AcDbLine
 10
121.751877
 20
5.450027
 30
0.0
 11
121.751877
 21
5.450027
 31
0.0
  0
SPLINE
  5
113
100
AcDbEntity
  8
Capa_1
 62
7
100
AcDbSpline
 70
0
 71
3
 72
19
 73
15
 74
13
 40
0.000000
 40
0.000000
 40
0.000000
 40
0.000000
 40
1.307145
 40
2.575520
 40
3.882665
 40
5.189810
 40
6.458186
 40
7.765331
 40
9.072476
 40
10.340851
 40
11.647996
 40
12.955141
 40
14.223517
 40
15.530662
 40
15.530662
 40
15.530662
 40
15.530662
 10
121.751877
 20
5.450027
 30
0.0
 10
121.683165
 20
5.009319
 30
0.0
 10
121.547779
 20
4.140975
 30
0.0
 10
120.552489
 20
3.184999
 30
0.0
 10
119.254177
 20
2.830781
 30
0.0
 10
117.942234
 20
3.184999
 30
0.0
 10
116.987028
 20
4.140975
 30
0.0
 10
116.632548
 20
5.450027
 30
0.0
 10
116.987028
 20
6.759079
 30
0.0
 10
117.942234
 20
7.715055
 30
0.0
 10
119.254177
 20
8.069273
 30
0.0
 10
120.552489
 20
7.715055
 30
0.0
 10
121.547779
 20
6.759079
 30
0.0
 10
121.683165
 20
5.890735
 30
0.0
 10
121.751877
 20
5.450027
 30
0.0
 11
121.751877
 21
5.450027
 31
0.0
 11
121.410554
 21
4.188232
 31
0.0
 11
120.513678
 21
3.291355
 31
0.0
 11
119.251883
 21
2.950032
 31
0.0
 11
117.990087
 21
3.291355
 31
0.0
 11
117.093211
 21
4.188232
 31
0.0
 11
116.751888
 21
5.450027
 31
0.0
 11
117.093211
 21
6.711822
 31
0.0
 11
117.990087
 21
7.608699
 31
0.0
 11
119.251883
 21
7.950021
 31
0.0
 11
120.513678
 21
7.608699
 31
0.0
 11
121.410554
 21
6.711822
 31
0.0
 11
121.751877
 21
5.450027
 31
0.0
  0
LINE
  5
114
100
AcDbEntity
  8
Capa_1
 62
7
100
AcDbLine
 10
105.751947
 20
5.450027
 30
0.0
 11
105.751947
 21
5.450027
 31
0.0
  0
SPLINE
  5
115
100
AcDbEntity
  8
Capa_1
 62
7
100
AcDbSpline
 70
0
 71
3
 72
19
 73
15
 74
13
 40
0.000000
 40
0.000000
 40
0.000000
 40
0.000000
 40
1.307145
 40
2.575520
 40
3.882665
 40
5.189810
 40
6.458186
 40
7.765331
 40
9.072476
 40
10.340851
 40
11.647996
 40
12.955141
 40
14.223517
 40
15.530662
 40
15.530662
 40
15.530662
 40
15.530662
 10
105.751947
 20
5.450027
 30
0.0
 10
105.683235
 20
5.009319
 30
0.0
 10
105.547849
 20
4.140975
 30
0.0
 10
104.552560
 20
3.184999
 30
0.0
 10
103.254247
 20
2.830781
 30
0.0
 10
101.942304
 20
3.184999
 30
0.0
 10
100.987098
 20
4.140975
 30
0.0
 10
100.632618
 20
5.450027
 30
0.0
 10
100.987098
 20
6.759079
 30
0.0
 10
101.942304
 20
7.715055
 30
0.0
 10
103.254247
 20
8.069273
 30
0.0
 10
104.552560
 20
7.715055
 30
0.0
 10
105.547849
 20
6.759079
 30
0.0
 10
105.683235
 20
5.890735
 30
0.0
 10
105.751947
 20
5.450027
 30
0.0
 11
105.751947
 21
5.450027
 31
0.0
 11
105.410625
 21
4.188232
 31
0.0
 11
104.513748
 21
3.291355
 31
0.0
 11
103.251953
 21
2.950032
 31
0.0
 11
101.990157
 21
3.291355
 31
0.0
 11
101.093281
 21
4.188232
 31
0.0
 11
100.751958
 21
5.450027
 31
0.0
 11
101.093281
 21
6.711822
 31
0.0
 11
101.990158
 21
7.608699
 31
0.0
 11
103.251953
 21
7.950021
 31
0.0
 11
104.513748
 21
7.608699
 31
0.0
 11
105.410625
 21
6.711822
 31
0.0
 11
105.751947
 21
5.450027
 31
0.0
  0
LINE
  5
116
100
AcDbEntity
  8
Capa_1
 62
7
100
AcDbLine
 10
97.751976
 20
5.450027
 30
0.0
 11
97.751976
 21
5.450027
 31
0.0
  0
SPLINE
  5
117
100
AcDbEntity
  8
Capa_1
 62
7
100
AcDbSpline
 70
0
 71
3
 72
19
 73
15
 74
13
 40
0.000000
 40
0.000000
 40
0.000000
 40
0.000000
 40
1.307145
 40
2.575520
 40
3.882665
 40
5.189810
 40
6.458186
 40
7.765331
 40
9.072476
 40
10.340851
 40
11.647996
 40
12.955141
 40
14.223517
 40
15.530662
 40
15.530662
 40
15.530662
 40
15.530662
 10
97.751976
 20
5.450027
 30
0.0
 10
97.683264
 20
5.009319
 30
0.0
 10
97.547878
 20
4.140975
 30
0.0
 10
96.552588
 20
3.184999
 30
0.0
 10
95.254276
 20
2.830781
 30
0.0
 10
93.942332
 20
3.184999
 30
0.0
 10
92.987127
 20
4.140975
 30
0.0
 10
92.632647
 20
5.450027
 30
0.0
 10
92.987127
 20
6.759079
 30
0.0
 10
93.942332
 20
7.715055
 30
0.0
 10
95.254276
 20
8.069273
 30
0.0
 10
96.552588
 20
7.715055
 30
0.0
 10
97.547878
 20
6.759079
 30
0.0
 10
97.683264
 20
5.890735
 30
0.0
 10
97.751976
 20
5.450027
 30
0.0
 11
97.751976
 21
5.450027
 31
0.0
 11
97.410653
 21
4.188232
 31
0.0
 11
96.513776
 21
3.291355
 31
0.0
 11
95.251981
 21
2.950032
 31
0.0
 11
93.990186
 21
3.291355
 31
0.0
 11
93.093309
 21
4.188232
 31
0.0
 11
92.751987
 21
5.450027
 31
0.0
 11
93.093309
 21
6.711822
 31
0.0
 11
93.990186
 21
7.608699
 31
0.0
 11
95.251981
 21
7.950021
 31
0.0
 11
96.513776
 21
7.608699
 31
0.0
 11
97.410653
 21
6.711822
 31
0.0
 11
97.751976
 21
5.450027
 31
0.0
  0
SPLINE
  5
118
100
AcDbEntity
  8
Capa_1
 62
7
100
AcDbSpline
 70
0
 71
3
 72
13
 73
9
 74
7
 40
0.000000
 40
0.000000
 40
0.000000
 40
0.000000
 40
4.385307
 40
9.325566
 40
15.197504
 40
21.956641
 40
29.334859
 40
37.140925
 40
37.140925
 40
37.140925
 40
37.140925
 10
135.082621
 20
0.050002
 30
0.0
 10
136.551990
 20
0.273794
 30
0.0
 10
139.676675
 20
0.749698
 30
0.0
 10
143.700701
 20
4.151757
 30
0.0
 10
147.043439
 20
8.980422
 30
0.0
 10
149.556611
 20
15.213123
 30
0.0
 10
151.198500
 20
22.378422
 30
0.0
 10
151.403899
 20
27.445303
 30
0.0
 10
151.509493
 20
30.050129
 30
0.0
 11
135.082621
 21
0.050002
 31
0.0
 11
139.345790
 21
1.077771
 31
0.0
 11
143.285742
 21
4.058197
 31
0.0
 11
146.698214
 21
8.836762
 31
0.0
 11
149.314766
 21
15.068904
 31
0.0
 11
150.946728
 21
22.264374
 31
0.0
 11
151.509493
 21
30.050129
 31
0.0
  0
LINE
  5
119
100
AcDbEntity
  8
Capa_1
 62
7
100
AcDbLine
 10
135.081510
 20
0.050764
 30
0.0
 11
89.395404
 21
0.050764
 31
0.0
  0
LINE
  5
11a
100
AcDbEntity
  8
Capa_1
 62
7
100
AcDbLine
 10
151.508243
 20
84.851015
 30
0.0
 11
151.508243
 21
30.050637
 31
0.0
  0
LINE
  5
11b
100
AcDbEntity
  8
Capa_1
 62
7
100
AcDbLine
 10
89.283134
 20
114.850887
 30
0.0
 11
135.081510
 21
114.850887
 31
0.0
  0
LINE
  5
11c
100
AcDbEntity
  8
Capa_1
 62
7
100
AcDbLine
 10
89.395404
 20
0.051467
 30
0.0
 11
89.395404
 21
114.598191
 31
0.0
  0
LINE
  5
11d
100
AcDbEntity
  8
Capa_1
 62
7
100
AcDbLine
 10
111.954685
 20
48.599305
 30
0.0
 11
135.187079
 21
48.599305
 31
0.0
  0
LINE
  5
11e
100
AcDbEntity
  8
Capa_1
 62
7
100
AcDbLine
 10
135.187079
 20
48.599305
 30
0.0
 11
135.187079
 21
36.247554
 31
0.0
  0
LINE
  5
11f
100
AcDbEntity
  8
Capa_1
 62
7
100
AcDbLine
 10
135.187079
 20
36.247554
 30
0.0
 11
111.954685
 21
36.247554
 31
0.0
  0
LINE
  5
120
100
AcDbEntity
  8
Capa_1
 62
7
100
AcDbLine
 10
111.954685
 20
36.247554
 30
0.0
 11
111.954685
 21
48.599305
 31
0.0
  0
LINE
  5
121
100
AcDbEntity
  8
Capa_1
 62
7
100
AcDbLine
 10
99.835803
 20
103.734408
 30
0.0
 11
136.833816
 21
103.734408
 31
0.0
  0
LINE
  5
122
100
AcDbEntity
  8
Capa_1
 62
7
100
AcDbLine
 10
136.833816
 20
103.734408
 30
0.0
 11
136.833816
 21
54.819723
 31
0.0
  0
LINE
  5
123
100
AcDbEntity
  8
Capa_1
 62
7
100
AcDbLine
 10
136.833816
 20
54.819723
 30
0.0
 11
99.835803
 21
54.819723
 31
0.0
  0
LINE
  5
124
100
AcDbEntity
  8
Capa_1
 62
7
100
AcDbLine
 10
99.835803
 20
54.819723
 30
0.0
 11
99.835803
 21
103.734408
 31
0.0
  0
SPLINE
  5
125
100
AcDbEntity
  8
Capa_1
 62
7
100
AcDbSpline
 70
0
 71
3
 72
13
 73
9
 74
7
 40
0.000000
 40
0.000000
 40
0.000000
 40
0.000000
 40
7.806009
 40
15.184164
 40
21.943239
 40
27.815124
 40
32.755345
 40
37.140622
 40
37.140622
 40
37.140622
 40
37.140622
 10
151.509493
 20
84.849999
 30
0.0
 10
151.403886
 20
87.454805
 30
0.0
 10
151.198462
 20
92.521645
 30
0.0
 10
149.556554
 20
99.686877
 30
0.0
 10
147.043377
 20
105.919511
 30
0.0
 10
143.700648
 20
110.748121
 30
0.0
 10
139.676642
 20
114.150136
 30
0.0
 10
136.551981
 20
114.626032
 30
0.0
 10
135.082621
 20
114.849821
 30
0.0
 11
151.509493
 21
84.849999
 31
0.0
 11
150.946692
 21
92.635694
 31
0.0
 11
149.314711
 21
99.831095
 31
0.0
 11
146.698155
 21
106.063168
 31
0.0
 11
143.285694
 21
110.841677
 31
0.0
 11
139.345763
 21
113.822066
 31
0.0
 11
135.082621
 21
114.849821
 31
0.0
  0
ENDSEC
  0
SECTION
  2
OBJECTS
  0
DICTIONARY
  5
C
330
0
100
AcDbDictionary
  3
ACAD_GROUP
350
D
  3
ACAD_MLINESTYLE
350
17
  0
DICTIONARY
  5
D
330
C
100
AcDbDictionary
  0
DICTIONARY
  5
1A
330
C
100
AcDbDictionary
  0
DICTIONARY
  5
17
330
C
100
AcDbDictionary
  3
STANDARD
350
18
  0
DICTIONARY
  5
19
330
C
100
AcDbDictionary
  0
ENDSEC
  0
EOF
