<?xml version="1.0" encoding="UTF-8" standalone="no"?>
<!-- Created with Inkscape (http://www.inkscape.org/) -->

<svg
   xmlns:dc="http://purl.org/dc/elements/1.1/"
   xmlns:cc="http://creativecommons.org/ns#"
   xmlns:rdf="http://www.w3.org/1999/02/22-rdf-syntax-ns#"
   xmlns:svg="http://www.w3.org/2000/svg"
   xmlns="http://www.w3.org/2000/svg"
   xmlns:xlink="http://www.w3.org/1999/xlink"
   xmlns:sodipodi="http://sodipodi.sourceforge.net/DTD/sodipodi-0.dtd"
   xmlns:inkscape="http://www.inkscape.org/namespaces/inkscape"
   width="169.60191mm"
   height="114.9016mm"
   viewBox="0 0 600.95166 407.13166"
   id="svg8517"
   version="1.1"
   inkscape:version="0.91 r13725"
   sodipodi:docname="Compluino_03-brd.svg">
  <defs
     id="defs8519">
    <filter
       inkscape:label="Drop Shadow"
       id="filter3087"
       style="color-interpolation-filters:sRGB">
      <feFlood
         result="flood"
         flood-color="rgb(0,0,0)"
         flood-opacity="0.5"
         id="feFlood3089" />
      <feComposite
         result="composite1"
         operator="in"
         in="flood"
         in2="SourceGraphic"
         id="feComposite3091" />
      <feGaussianBlur
         result="blur"
         stdDeviation="2"
         id="feGaussianBlur3093" />
      <feOffset
         result="offset"
         dy="8"
         dx="8"
         id="feOffset3095" />
      <feComposite
         result="fbSourceGraphic"
         operator="over"
         in="SourceGraphic"
         in2="offset"
         id="feComposite3097" />
      <feColorMatrix
         id="feColorMatrix3035"
         values="0 0 0 -1 0 0 0 0 -1 0 0 0 0 -1 0 0 0 0 1 0"
         in="fbSourceGraphic"
         result="fbSourceGraphicAlpha" />
      <feFlood
         in="fbSourceGraphic"
         result="flood"
         flood-color="rgb(255,255,255)"
         flood-opacity="0.5"
         id="feFlood3037" />
      <feComposite
         result="composite1"
         operator="in"
         in="flood"
         in2="fbSourceGraphic"
         id="feComposite3039" />
      <feGaussianBlur
         result="blur"
         stdDeviation="2"
         id="feGaussianBlur3041" />
      <feOffset
         result="offset"
         dy="4"
         dx="4"
         id="feOffset3043" />
      <feComposite
         result="fbSourceGraphic"
         operator="over"
         in="fbSourceGraphic"
         in2="offset"
         id="feComposite3045" />
      <feColorMatrix
         id="feColorMatrix3047"
         values="0 0 0 -1 0 0 0 0 -1 0 0 0 0 -1 0 0 0 0 1 0"
         in="fbSourceGraphic"
         result="fbSourceGraphicAlpha" />
      <feFlood
         in="fbSourceGraphic"
         result="flood"
         flood-color="rgb(255,255,255)"
         flood-opacity="0.5"
         id="feFlood3049" />
      <feComposite
         result="composite1"
         operator="in"
         in="flood"
         in2="fbSourceGraphic"
         id="feComposite3051" />
      <feGaussianBlur
         result="blur"
         stdDeviation="2"
         id="feGaussianBlur3053" />
      <feOffset
         result="offset"
         dy="4"
         dx="4"
         id="feOffset3055" />
      <feComposite
         result="composite2"
         operator="over"
         in="fbSourceGraphic"
         in2="offset"
         id="feComposite3057" />
    </filter>
    <filter
       inkscape:label="Drop Shadow"
       id="filter3075"
       style="color-interpolation-filters:sRGB">
      <feFlood
         result="flood"
         flood-color="rgb(0,0,0)"
         flood-opacity="0.5"
         id="feFlood3077" />
      <feComposite
         result="composite1"
         operator="in"
         in="flood"
         in2="SourceGraphic"
         id="feComposite3079" />
      <feGaussianBlur
         result="blur"
         stdDeviation="2"
         id="feGaussianBlur3081" />
      <feOffset
         result="offset"
         dy="8"
         dx="8"
         id="feOffset3083" />
      <feComposite
         result="composite2"
         operator="over"
         in="SourceGraphic"
         in2="offset"
         id="feComposite3085" />
    </filter>
    <clipPath
       id="clipPath3821"
       clipPathUnits="userSpaceOnUse">
      <rect
         ry="0"
         y="302.71548"
         x="19.369934"
         height="738.6275"
         width="880.35986"
         id="rect3823"
         style="fill:none;stroke:#000000;stroke-width:1.92365563;stroke-opacity:1" />
    </clipPath>
    <radialGradient
       gradientUnits="userSpaceOnUse"
       gradientTransform="matrix(2.956815,0,0,2.6312331,-802.38755,-273.62951)"
       r="224.75894"
       fy="359.39755"
       fx="426.78943"
       cy="359.39755"
       cx="426.78943"
       id="radialGradient3809"
       xlink:href="#linearGradient3803"
       inkscape:collect="always" />
    <linearGradient
       id="linearGradient3803">
      <stop
         id="stop3815"
         offset="0"
         style="stop-color:#000000;stop-opacity:0;" />
      <stop
         id="stop3813"
         offset="1"
         style="stop-color:#000000;stop-opacity:1;" />
      <stop
         id="stop3807"
         offset="1"
         style="stop-color:#000000;stop-opacity:0;" />
    </linearGradient>
  </defs>
  <sodipodi:namedview
     id="base"
     pagecolor="#ffffff"
     bordercolor="#666666"
     borderopacity="1.0"
     inkscape:pageopacity="0.0"
     inkscape:pageshadow="2"
     inkscape:zoom="0.98994949"
     inkscape:cx="58.915533"
     inkscape:cy="175.74845"
     inkscape:document-units="px"
     inkscape:current-layer="layer1"
     showgrid="false"
     fit-margin-top="0"
     fit-margin-left="0"
     fit-margin-right="0"
     fit-margin-bottom="0"
     inkscape:window-width="1920"
     inkscape:window-height="971"
     inkscape:window-x="0"
     inkscape:window-y="0"
     inkscape:window-maximized="1"
     showguides="true"
     inkscape:guide-bbox="true" />
  <metadata
     id="metadata8522">
    <rdf:RDF>
      <cc:Work
         rdf:about="">
        <dc:format>image/svg+xml</dc:format>
        <dc:type
           rdf:resource="http://purl.org/dc/dcmitype/StillImage" />
        <dc:title />
      </cc:Work>
    </rdf:RDF>
  </metadata>
  <g
     inkscape:label="Capa 1"
     inkscape:groupmode="layer"
     id="layer1"
     transform="translate(-46.66704,-348.79638)">
    <g
       transform="matrix(0.00899998,0,0,0.00899998,25.237776,316.02714)"
       style="fill:none;fill-opacity:1;stroke:#000000;stroke-width:138.88919753;stroke-linecap:round;stroke-linejoin:round;stroke-opacity:1;stroke-miterlimit:4;stroke-dasharray:none"
       id="g2822">
      <path
         style="stroke:#000000;stroke-opacity:1;fill:none;stroke-width:138.88919753;stroke-miterlimit:4;stroke-dasharray:none"
         d="m 5374.0118,13661.4 a 984.25201,984.25201 0 0 1 -984.252,984.252 984.25201,984.25201 0 0 1 -984.252,-984.252 984.25201,984.25201 0 0 1 984.252,-984.252 984.25201,984.25201 0 0 1 984.252,984.252 z"
         id="circle2824" />
    </g>
    <g
       transform="matrix(0.00899998,0,0,0.00899998,25.237776,316.02714)"
       style="fill:none;fill-opacity:1;stroke:#000000;stroke-width:138.88919753;stroke-linecap:round;stroke-linejoin:round;stroke-opacity:1;stroke-miterlimit:4;stroke-dasharray:none"
       id="g2828">
      <path
         style="stroke:#000000;stroke-opacity:1;fill:none;stroke-width:138.88919753;stroke-miterlimit:4;stroke-dasharray:none"
         d="m 5039.3721,38858.301 a 984.25201,984.25201 0 0 1 -984.252,984.252 984.25201,984.25201 0 0 1 -984.252,-984.252 984.25201,984.25201 0 0 1 984.252,-984.252 984.25201,984.25201 0 0 1 984.252,984.252 z"
         id="circle2830" />
    </g>
    <g
       transform="matrix(0.00899998,0,0,0.00899998,25.237776,316.02714)"
       style="fill:none;fill-opacity:1;stroke:#000000;stroke-width:138.88919753;stroke-linecap:round;stroke-linejoin:round;stroke-opacity:1;stroke-miterlimit:4;stroke-dasharray:none"
       id="g2834">
      <path
         style="stroke:#000000;stroke-opacity:1;fill:none;stroke-width:138.88919753;stroke-miterlimit:4;stroke-dasharray:none"
         d="m 66322.854,40433.102 a 984.25201,984.25201 0 0 1 -984.252,984.252 984.25201,984.25201 0 0 1 -984.252,-984.252 984.25201,984.25201 0 0 1 984.252,-984.252 984.25201,984.25201 0 0 1 984.252,984.252 z"
         id="circle2836" />
    </g>
    <g
       transform="matrix(0.00899998,0,0,0.00899998,25.237776,316.02714)"
       style="fill:none;fill-opacity:1;stroke:#000000;stroke-width:138.88919753;stroke-linecap:round;stroke-linejoin:round;stroke-opacity:1;stroke-miterlimit:4;stroke-dasharray:none"
       id="g2840">
      <path
         style="stroke:#000000;stroke-opacity:1;fill:none;stroke-width:138.88919753;stroke-miterlimit:4;stroke-dasharray:none"
         d="m 66322.854,37283.5 a 984.25201,984.25201 0 0 1 -984.252,984.252 984.25201,984.25201 0 0 1 -984.252,-984.252 984.25201,984.25201 0 0 1 984.252,-984.252 984.25201,984.25201 0 0 1 984.252,984.252 z"
         id="circle2842" />
    </g>
    <g
       transform="matrix(0.00899998,0,0,0.00899998,25.237776,316.02714)"
       style="fill:none;fill-opacity:1;stroke:#000000;stroke-width:138.88919753;stroke-linecap:round;stroke-linejoin:round;stroke-opacity:1;stroke-miterlimit:4;stroke-dasharray:none"
       id="g2846">
      <path
         style="stroke:#000000;stroke-opacity:1;fill:none;stroke-width:138.88919753;stroke-miterlimit:4;stroke-dasharray:none"
         d="M 66299.252,12086.6 A 984.25201,984.25201 0 0 1 65315,13070.852 984.25201,984.25201 0 0 1 64330.748,12086.6 984.25201,984.25201 0 0 1 65315,11102.348 984.25201,984.25201 0 0 1 66299.252,12086.6 Z"
         id="circle2848" />
    </g>
    <g
       transform="matrix(0.00899998,0,0,0.00899998,25.237776,316.02714)"
       style="fill:none;fill-opacity:1;stroke:#000000;stroke-width:138.88919753;stroke-linecap:round;stroke-linejoin:round;stroke-opacity:1;stroke-miterlimit:4;stroke-dasharray:none"
       id="g2852">
      <path
         style="stroke:#000000;stroke-opacity:1;fill:none;stroke-width:138.88919753;stroke-miterlimit:4;stroke-dasharray:none"
         d="m 66322.854,15236.2 a 984.25201,984.25201 0 0 1 -984.252,984.252 984.25201,984.25201 0 0 1 -984.252,-984.252 984.25201,984.25201 0 0 1 984.252,-984.252 984.25201,984.25201 0 0 1 984.252,984.252 z"
         id="circle2854" />
    </g>
    <g
       transform="matrix(0.00899998,0,0,0.00899998,25.237776,316.02714)"
       style="fill:none;fill-opacity:1;stroke:#000000;stroke-width:138.88919753;stroke-linecap:round;stroke-linejoin:round;stroke-opacity:1;stroke-miterlimit:4;stroke-dasharray:none"
       id="g2858">
      <path
         style="stroke:#000000;stroke-opacity:1;fill:none;stroke-width:138.88919753;stroke-miterlimit:4;stroke-dasharray:none"
         d="m 40866.15,5787.3999 a 984.25201,984.25201 0 0 1 -984.252,984.252 984.25201,984.25201 0 0 1 -984.252,-984.252 984.25201,984.25201 0 0 1 984.252,-984.252 984.25201,984.25201 0 0 1 984.252,984.252 z"
         id="circle2860" />
    </g>
    <g
       transform="matrix(0.00899998,0,0,0.00899998,25.237776,316.02714)"
       style="fill:none;fill-opacity:1;stroke:#000000;stroke-width:138.88919753;stroke-linecap:round;stroke-linejoin:round;stroke-opacity:1;stroke-miterlimit:4;stroke-dasharray:none"
       id="g2864">
      <path
         style="stroke:#000000;stroke-opacity:1;fill:none;stroke-width:138.88919753;stroke-miterlimit:4;stroke-dasharray:none"
         d="m 44015.752,5787.3999 a 984.25201,984.25201 0 0 1 -984.252,984.252 984.25201,984.25201 0 0 1 -984.252,-984.252 984.25201,984.25201 0 0 1 984.252,-984.252 984.25201,984.25201 0 0 1 984.252,984.252 z"
         id="circle2866" />
    </g>
    <g
       transform="matrix(0.00899998,0,0,0.00899998,25.237776,316.02714)"
       style="fill:none;fill-opacity:1;stroke:#000000;stroke-width:138.88919753;stroke-linecap:round;stroke-linejoin:round;stroke-opacity:1;stroke-miterlimit:4;stroke-dasharray:none"
       id="g2870">
      <path
         style="stroke:#000000;stroke-opacity:1;fill:none;stroke-width:138.88919753;stroke-miterlimit:4;stroke-dasharray:none"
         d="m 50314.951,5787.3999 a 984.25201,984.25201 0 0 1 -984.252,984.252 984.25201,984.25201 0 0 1 -984.252,-984.252 984.25201,984.25201 0 0 1 984.252,-984.252 984.25201,984.25201 0 0 1 984.252,984.252 z"
         id="circle2872" />
    </g>
    <g
       transform="matrix(0.00899998,0,0,0.00899998,25.237776,316.02714)"
       style="fill:none;fill-opacity:1;stroke:#000000;stroke-width:138.88919753;stroke-linecap:round;stroke-linejoin:round;stroke-opacity:1;stroke-miterlimit:4;stroke-dasharray:none"
       id="g2876">
      <path
         style="stroke:#000000;stroke-opacity:1;fill:none;stroke-width:138.88919753;stroke-miterlimit:4;stroke-dasharray:none"
         d="m 47165.354,5787.3999 a 984.25201,984.25201 0 0 1 -984.252,984.252 984.25201,984.25201 0 0 1 -984.252,-984.252 984.25201,984.25201 0 0 1 984.252,-984.252 984.25201,984.25201 0 0 1 984.252,984.252 z"
         id="circle2878" />
    </g>
    <g
       transform="matrix(0.00899998,0,0,0.00899998,25.237776,316.02714)"
       style="fill:none;fill-opacity:1;stroke:#000000;stroke-width:138.88919753;stroke-linecap:round;stroke-linejoin:round;stroke-opacity:1;stroke-miterlimit:4;stroke-dasharray:none"
       id="g2882">
      <path
         style="stroke:#000000;stroke-opacity:1;fill:none;stroke-width:138.88919753;stroke-miterlimit:4;stroke-dasharray:none"
         d="m 53464.553,5787.3999 a 984.25201,984.25201 0 0 1 -984.252,984.252 984.25201,984.25201 0 0 1 -984.252,-984.252 984.25201,984.25201 0 0 1 984.252,-984.252 984.25201,984.25201 0 0 1 984.252,984.252 z"
         id="circle2884" />
    </g>
    <g
       transform="matrix(0.00899998,0,0,0.00899998,25.237776,316.02714)"
       style="fill:none;fill-opacity:1;stroke:#000000;stroke-width:138.88919753;stroke-linecap:round;stroke-linejoin:round;stroke-opacity:1;stroke-miterlimit:4;stroke-dasharray:none"
       id="g2888">
      <path
         style="stroke:#000000;stroke-opacity:1;fill:none;stroke-width:138.88919753;stroke-miterlimit:4;stroke-dasharray:none"
         d="m 56614.15,5787.3999 a 984.25201,984.25201 0 0 1 -984.252,984.252 984.25201,984.25201 0 0 1 -984.252,-984.252 984.25201,984.25201 0 0 1 984.252,-984.252 984.25201,984.25201 0 0 1 984.252,984.252 z"
         id="circle2890" />
    </g>
    <g
       transform="matrix(0.00899998,0,0,0.00899998,25.237776,316.02714)"
       style="fill:none;fill-opacity:1;stroke:#000000;stroke-width:138.88919753;stroke-linecap:round;stroke-linejoin:round;stroke-opacity:1;stroke-miterlimit:4;stroke-dasharray:none"
       id="g2894">
      <path
         style="stroke:#000000;stroke-opacity:1;fill:none;stroke-width:138.88919753;stroke-miterlimit:4;stroke-dasharray:none"
         d="m 56614.15,46732.301 a 984.25201,984.25201 0 0 1 -984.252,984.252 984.25201,984.25201 0 0 1 -984.252,-984.252 984.25201,984.25201 0 0 1 984.252,-984.252 984.25201,984.25201 0 0 1 984.252,984.252 z"
         id="circle2896" />
    </g>
    <g
       transform="matrix(0.00899998,0,0,0.00899998,25.237776,316.02714)"
       style="fill:none;fill-opacity:1;stroke:#000000;stroke-width:138.88919753;stroke-linecap:round;stroke-linejoin:round;stroke-opacity:1;stroke-miterlimit:4;stroke-dasharray:none"
       id="g2900">
      <path
         style="stroke:#000000;stroke-opacity:1;fill:none;stroke-width:138.88919753;stroke-miterlimit:4;stroke-dasharray:none"
         d="m 53464.553,46732.301 a 984.25201,984.25201 0 0 1 -984.252,984.252 984.25201,984.25201 0 0 1 -984.252,-984.252 984.25201,984.25201 0 0 1 984.252,-984.252 984.25201,984.25201 0 0 1 984.252,984.252 z"
         id="circle2902" />
    </g>
    <g
       transform="matrix(0.00899998,0,0,0.00899998,25.237776,316.02714)"
       style="fill:none;fill-opacity:1;stroke:#000000;stroke-width:138.88919753;stroke-linecap:round;stroke-linejoin:round;stroke-opacity:1;stroke-miterlimit:4;stroke-dasharray:none"
       id="g2906">
      <path
         style="stroke:#000000;stroke-opacity:1;fill:none;stroke-width:138.88919753;stroke-miterlimit:4;stroke-dasharray:none"
         d="m 47165.354,46732.301 a 984.25201,984.25201 0 0 1 -984.252,984.252 984.25201,984.25201 0 0 1 -984.252,-984.252 984.25201,984.25201 0 0 1 984.252,-984.252 984.25201,984.25201 0 0 1 984.252,984.252 z"
         id="circle2908" />
    </g>
    <g
       transform="matrix(0.00899998,0,0,0.00899998,25.237776,316.02714)"
       style="fill:none;fill-opacity:1;stroke:#000000;stroke-width:138.88919753;stroke-linecap:round;stroke-linejoin:round;stroke-opacity:1;stroke-miterlimit:4;stroke-dasharray:none"
       id="g2912">
      <path
         style="stroke:#000000;stroke-opacity:1;fill:none;stroke-width:138.88919753;stroke-miterlimit:4;stroke-dasharray:none"
         d="m 50314.951,46732.301 a 984.25201,984.25201 0 0 1 -984.252,984.252 984.25201,984.25201 0 0 1 -984.252,-984.252 984.25201,984.25201 0 0 1 984.252,-984.252 984.25201,984.25201 0 0 1 984.252,984.252 z"
         id="circle2914" />
    </g>
    <g
       transform="matrix(0.00899998,0,0,0.00899998,25.237776,316.02714)"
       style="fill:none;fill-opacity:1;stroke:#000000;stroke-width:138.88919753;stroke-linecap:round;stroke-linejoin:round;stroke-opacity:1;stroke-miterlimit:4;stroke-dasharray:none"
       id="g2918">
      <path
         style="stroke:#000000;stroke-opacity:1;fill:none;stroke-width:138.88919753;stroke-miterlimit:4;stroke-dasharray:none"
         d="m 44015.752,46732.301 a 984.25201,984.25201 0 0 1 -984.252,984.252 984.25201,984.25201 0 0 1 -984.252,-984.252 984.25201,984.25201 0 0 1 984.252,-984.252 984.25201,984.25201 0 0 1 984.252,984.252 z"
         id="circle2920" />
    </g>
    <g
       transform="matrix(0.00899998,0,0,0.00899998,25.237776,316.02714)"
       style="fill:none;fill-opacity:1;stroke:#000000;stroke-width:138.88919753;stroke-linecap:round;stroke-linejoin:round;stroke-opacity:1;stroke-miterlimit:4;stroke-dasharray:none"
       id="g2924">
      <path
         style="stroke:#000000;stroke-opacity:1;fill:none;stroke-width:138.88919753;stroke-miterlimit:4;stroke-dasharray:none"
         d="m 40866.15,46732.301 a 984.25201,984.25201 0 0 1 -984.252,984.252 984.25201,984.25201 0 0 1 -984.252,-984.252 984.25201,984.25201 0 0 1 984.252,-984.252 984.25201,984.25201 0 0 1 984.252,984.252 z"
         id="circle2926" />
    </g>
    <g
       transform="matrix(0.00899998,0,0,0.00899998,25.237776,316.02714)"
       style="fill:#c2c200;fill-opacity:0;stroke:#000000;stroke-width:138.88919753;stroke-linecap:round;stroke-linejoin:round;stroke-opacity:1"
       id="g4308">
      <path
         inkscape:connector-curvature="0"
         d="M 57322.8,48858.3 A 11811,11811 0 0 0 69133.9,37047.2"
         id="path4310"
         style="stroke:#000000;stroke-opacity:1;stroke-width:138.88919753" />
      <path
         inkscape:connector-curvature="0"
         d="M 69133.9,15472.4 A 11811,11811 0 0 0 57322.8,3661.42"
         id="path4312"
         style="stroke:#000000;stroke-opacity:1;stroke-width:138.88919753" />
      <path
         inkscape:connector-curvature="0"
         d="m 19527,40688 -17126,0"
         id="path4314"
         style="stroke:#000000;stroke-opacity:1;stroke-width:138.88919753" />
      <path
         inkscape:connector-curvature="0"
         d="m 19527,48858 0,-8170"
         id="path4316"
         style="stroke:#000000;stroke-opacity:1;stroke-width:138.88919753" />
      <path
         inkscape:connector-curvature="0"
         d="m 57322,48858 -37795,0"
         id="path4318"
         style="stroke:#000000;stroke-opacity:1;stroke-width:138.88919753" />
      <path
         inkscape:connector-curvature="0"
         d="m 69133,15472 0,21575"
         id="path4320"
         style="stroke:#000000;stroke-opacity:1;stroke-width:138.88919753" />
      <path
         inkscape:connector-curvature="0"
         d="m 19527,3661 37795,0"
         id="path4322"
         style="stroke:#000000;stroke-opacity:1;stroke-width:138.88919753" />
      <path
         inkscape:connector-curvature="0"
         d="m 19527,11830 0,-8169"
         id="path4324"
         style="stroke:#000000;stroke-opacity:1;stroke-width:138.88919753" />
      <path
         inkscape:connector-curvature="0"
         d="m 2401,11830 17126,0"
         id="path4326"
         style="stroke:#000000;stroke-opacity:1;stroke-width:138.88919753" />
      <path
         inkscape:connector-curvature="0"
         d="m 2401,40688 0,-28858"
         id="path4328"
         style="stroke:#000000;stroke-opacity:1;stroke-width:138.88919753" />
    </g>
    <text
       xml:space="preserve"
       style="font-style:normal;font-variant:normal;font-weight:normal;font-stretch:normal;font-size:34.14812851px;line-height:125%;font-family:Arial;-inkscape-font-specification:Arial;letter-spacing:0px;word-spacing:0px;fill:#000000;fill-opacity:1;stroke:none;stroke-width:1px;stroke-linecap:butt;stroke-linejoin:miter;stroke-opacity:1"
       x="209.47079"
       y="509.28677"
       id="text4180"><tspan
         sodipodi:role="line"
         id="tspan4182"
         x="209.47079"
         y="509.28677"
         style="font-style:normal;font-variant:normal;font-weight:bold;font-stretch:normal;font-family:Harabara;-inkscape-font-specification:'Harabara Bold';letter-spacing:6.72718239px;fill:none;stroke:#ff0000;stroke-width:1px">Compluino 03</tspan></text>
    <g
       id="g4998"
       transform="matrix(1.5901915,0,0,1.5950225,-189.09125,-359.40589)"
       style="stroke-width:0.62790203">
      <g
         inkscape:label="Layer 1"
         id="layer1-2"
         transform="matrix(0.32418767,0,0,0.32176665,213.35016,457.40838)"
         style="fill:none;stroke:#ff0000;stroke-width:1.82261276">
        <g
           transform="translate(59.713686,1955.2555)"
           id="g9"
           style="fill:none;stroke:#ff0000;stroke-width:1.82261276">
          <g
             id="g11"
             style="fill:none;stroke:#ff0000;stroke-width:1.82261276">
            <path
               d="m 255.688,-1502.962 6.496,0.082 c -1,3.625 -2.854,6.374 -5.561,8.244 -2.71,1.96 -6.099,2.911 -10.168,2.859 -4.938,-0.062 -8.771,-1.71 -11.5,-4.949 -2.732,-3.151 -4.062,-7.629 -3.988,-13.432 0.068,-5.54 1.464,-9.855 4.188,-12.938 2.812,-3.167 6.686,-4.724 11.621,-4.66 5.195,0.064 9.202,1.676 12.021,4.828 1.534,1.925 2.632,4.147 3.296,6.665 l -9.094,-0.114 c -0.423,-0.869 -0.848,-1.523 -1.273,-1.964 -1.111,-1.225 -2.705,-1.853 -4.783,-1.878 -1.906,-0.024 -3.472,0.563 -4.699,1.759 -1.58,1.715 -2.396,4.562 -2.446,8.544 -0.049,3.983 0.694,6.809 2.233,8.472 1.106,1.401 2.786,2.112 5.039,2.141 1.471,0.019 2.732,-0.267 3.778,-0.86 0.261,-0.082 0.499,-0.23 0.719,-0.445 0.22,-0.212 0.461,-0.449 0.725,-0.706 0.175,-0.257 0.527,-0.598 1.053,-1.026 0.522,-0.426 1.304,-0.635 2.343,-0.622 z"
               id="path13"
               inkscape:connector-curvature="0"
               style="fill:none;stroke:#ff0000;stroke-width:1.82261276" />
          </g>
          <g
             id="g15"
             style="fill:none;stroke:#ff0000;stroke-width:1.82261276">
            <path
               d="m 269.464,-1495.254 c -1.797,-1.582 -3.069,-3.696 -3.817,-6.349 -0.743,-2.65 -1.101,-5.404 -1.064,-8.263 0.03,-2.338 0.385,-4.672 1.062,-7.001 0.679,-2.331 1.721,-4.266 3.128,-5.808 2.281,-2.57 5.2,-4.068 8.759,-4.502 3.554,-0.43 6.758,-0.11 9.602,0.966 3.272,1.339 5.669,3.622 7.188,6.844 1.437,2.878 2.132,6.222 2.084,10.029 -0.035,2.773 -0.369,5.151 -0.999,7.133 -0.632,1.986 -1.433,3.665 -2.402,5.037 -2.112,2.831 -4.778,4.575 -7.99,5.226 -2.867,0.744 -5.747,0.772 -8.639,0.087 -2.896,-0.685 -5.198,-1.819 -6.912,-3.399 z m 6.525,-22.783 c -1.844,1.972 -2.705,4.925 -2.58,8.868 0.122,3.942 0.825,6.699 2.105,8.274 0.51,0.702 1.413,1.298 2.705,1.788 1.292,0.493 2.611,0.553 3.96,0.179 1.345,-0.371 2.549,-1.331 3.609,-2.877 1.057,-1.545 1.65,-4.049 1.782,-7.512 0.039,-3.118 -0.431,-5.462 -1.406,-7.033 -0.977,-1.571 -2.11,-2.581 -3.404,-3.031 -1.294,-0.448 -2.594,-0.486 -3.895,-0.112 -1.306,0.372 -2.266,0.859 -2.876,1.456 z"
               id="path17"
               inkscape:connector-curvature="0"
               style="fill:none;stroke:#ff0000;stroke-width:1.82261276" />
          </g>
          <g
             id="g19"
             style="fill:none;stroke:#ff0000;stroke-width:1.82261276">
            <path
               d="m 329.41,-1491.385 -8.962,-0.112 0.255,-20.264 0.022,-1.817 c 0.026,-2.078 -0.584,-3.6 -1.827,-4.569 -1.243,-0.968 -2.644,-1.462 -4.202,-1.481 -1.56,-0.02 -2.952,0.439 -4.176,1.377 -1.225,0.938 -1.85,2.443 -1.875,4.521 l -0.277,22.082 -9.093,-0.114 0.255,-20.263 c 0.073,-5.888 1.66,-9.807 4.759,-11.761 3.098,-1.954 6.512,-2.992 10.237,-3.12 1.991,0.024 3.937,0.267 5.837,0.723 1.897,0.457 3.621,1.344 5.165,2.664 1.311,-1.108 2.858,-1.892 4.639,-2.346 1.78,-0.453 3.625,-0.713 5.53,-0.776 3.812,0.048 7.306,1.09 10.485,3.121 3.178,2.032 4.73,6.079 4.654,12.138 l -0.254,20.265 -4.546,-0.058 c -1.299,-0.017 -2.356,-0.439 -3.167,-1.273 -0.814,-0.832 -1.211,-1.9 -1.193,-3.199 l 0.222,-17.665 c 0.025,-2.077 -0.584,-3.599 -1.828,-4.568 -1.243,-0.968 -2.646,-1.462 -4.204,-1.482 -1.558,-0.019 -2.974,0.44 -4.238,1.376 -1.27,0.939 -1.915,2.445 -1.941,4.521 l -0.022,1.818 z"
               id="path21"
               inkscape:connector-curvature="0"
               style="fill:none;stroke:#ff0000;stroke-width:1.82261276" />
          </g>
          <g
             id="g23"
             style="fill:none;stroke:#ff0000;stroke-width:1.82261276">
            <path
               d="m 363.44,-1482.644 c -0.016,1.213 -0.463,2.247 -1.337,3.102 -0.876,0.854 -1.924,1.274 -3.133,1.26 l -4.417,-0.056 0.406,-32.342 c 0.075,-6.06 1.9,-10.175 5.479,-12.338 3.578,-2.164 7.444,-3.22 11.603,-3.168 2.162,0.027 4.346,0.468 6.544,1.317 2.197,0.851 3.936,2.063 5.214,3.638 2.558,3.41 3.802,7.757 3.735,13.038 -0.068,5.456 -1.422,9.855 -4.063,13.2 -2.64,3.259 -5.993,4.859 -10.062,4.809 -2.167,-0.027 -4.066,-0.439 -5.702,-1.239 -1.723,-0.887 -3.088,-2.247 -4.105,-4.079 z m 15.126,-25.272 c 0.042,-3.376 -0.574,-5.982 -1.85,-7.816 -1.276,-1.836 -3.128,-2.769 -5.552,-2.799 -2.335,-0.03 -4.167,0.856 -5.489,2.66 -1.232,1.631 -1.872,4.221 -1.917,7.771 -0.042,3.292 0.578,5.768 1.855,7.427 1.277,1.836 3.129,2.768 5.552,2.798 2.25,0.029 4.038,-0.857 5.36,-2.661 1.323,-1.803 2.002,-4.263 2.041,-7.38 z"
               id="path25"
               inkscape:connector-curvature="0"
               style="fill:none;stroke:#ff0000;stroke-width:1.82261276" />
          </g>
          <g
             id="g27"
             style="fill:none;stroke:#ff0000;stroke-width:1.82261276">
            <path
               d="m 391.528,-1538.682 4.677,0.058 c 1.212,0.016 2.244,0.439 3.101,1.272 0.855,0.836 1.276,1.857 1.262,3.068 l -0.55,43.784 -9.093,-0.114 z"
               id="path29"
               inkscape:connector-curvature="0"
               style="fill:none;stroke:#ff0000;stroke-width:1.82261276" />
          </g>
          <g
             id="g31"
             style="fill:none;stroke:#ff0000;stroke-width:1.82261276">
            <path
               d="m 435.285,-1524.612 -0.255,20.263 c -0.076,6.151 -1.731,10.157 -4.957,12.02 -3.23,1.866 -6.748,2.773 -10.558,2.725 -3.723,-0.219 -7.108,-1.299 -10.156,-3.244 -3.052,-1.942 -4.538,-5.902 -4.463,-11.878 l 0.255,-20.263 9.091,0.114 -0.277,22.081 c -0.025,2.078 0.56,3.603 1.763,4.569 1.198,0.969 2.58,1.461 4.139,1.48 1.558,0.02 2.97,-0.438 4.239,-1.376 1.266,-0.935 1.914,-2.444 1.94,-4.522 l 0.222,-17.664 c 0.015,-1.212 0.438,-2.247 1.272,-3.103 0.832,-0.854 1.9,-1.275 3.199,-1.259 z"
               id="path33"
               inkscape:connector-curvature="0"
               style="fill:none;stroke:#ff0000;stroke-width:1.82261276" />
          </g>
          <g
             id="g35"
             style="fill:none;stroke:#ff0000;stroke-width:1.82261276">
            <g
               id="g37"
               style="fill:none;stroke:#ff0000;stroke-width:1.82261276">
              <path
                 d="m 448.897,-1534.372 -0.034,13.782 c 0.955,-1.643 2.345,-2.982 4.167,-4.017 1.561,-0.861 3.465,-1.291 5.717,-1.287 4.07,0.011 7.402,1.707 9.992,5.091 2.59,3.384 3.88,7.761 3.864,13.13 -0.011,5.369 -1.321,9.739 -3.927,13.109 -1.304,1.645 -3.06,2.83 -5.269,3.56 -2.212,0.729 -4.4,1.094 -6.564,1.088 -4.157,-0.01 -8.009,-1.098 -11.554,-3.274 -3.546,-2.171 -5.309,-6.333 -5.294,-12.483 l 0.08,-33.136 4.416,0.011 c 1.21,0 2.249,0.44 3.112,1.307 0.865,0.867 1.296,1.907 1.294,3.119 z m 14.743,26.287 c 0.008,-3.117 -0.635,-5.542 -1.929,-7.279 -1.295,-1.82 -3.069,-2.735 -5.32,-2.74 -2.426,-0.01 -4.286,0.857 -5.592,2.585 -1.303,1.815 -1.958,4.281 -1.967,7.398 -0.008,3.638 0.592,6.281 1.8,7.929 1.296,1.821 3.111,2.735 5.451,2.741 2.423,0.01 4.288,-0.899 5.591,-2.715 1.305,-1.815 1.959,-4.453 1.966,-7.919 z"
                 id="path39"
                 inkscape:connector-curvature="0"
                 style="fill:none;stroke:#ff0000;stroke-width:1.82261276" />
            </g>
            <g
               id="g41"
               style="fill:none;stroke:#ff0000;stroke-width:1.82261276">
              <path
                 d="m 480.077,-1493.627 c -1.813,-1.563 -3.107,-3.665 -3.879,-6.309 -0.773,-2.643 -1.159,-5.395 -1.15,-8.251 0.005,-2.339 0.336,-4.677 0.993,-7.012 0.653,-2.338 1.674,-4.284 3.065,-5.84 2.256,-2.594 5.162,-4.121 8.715,-4.591 3.55,-0.465 6.755,-0.18 9.609,0.868 3.286,1.307 5.708,3.566 7.258,6.771 1.464,2.863 2.193,6.199 2.185,10.008 -0.007,2.772 -0.316,5.153 -0.926,7.143 -0.613,1.992 -1.396,3.68 -2.35,5.062 -2.088,2.851 -4.734,4.623 -7.938,5.306 -2.86,0.771 -5.74,0.831 -8.638,0.174 -2.901,-0.656 -5.215,-1.766 -6.944,-3.329 z m 6.292,-22.847 c -1.823,1.989 -2.654,4.951 -2.49,8.893 0.163,3.942 0.895,6.691 2.19,8.254 0.518,0.695 1.426,1.282 2.722,1.76 1.3,0.479 2.617,0.526 3.963,0.139 1.341,-0.385 2.535,-1.357 3.579,-2.914 1.043,-1.556 1.61,-4.064 1.706,-7.529 0.007,-3.118 -0.486,-5.457 -1.477,-7.019 -0.994,-1.562 -2.137,-2.559 -3.435,-2.996 -1.297,-0.435 -2.598,-0.461 -3.898,-0.073 -1.298,0.384 -2.254,0.882 -2.86,1.485 z"
                 id="path43"
                 inkscape:connector-curvature="0"
                 style="fill:none;stroke:#ff0000;stroke-width:1.82261276" />
            </g>
          </g>
          <g
             id="g45"
             style="fill:none;stroke:#ff0000;stroke-width:1.82261276">
            <path
               d="m 525.25,-1490.399 c -2.857,0.166 -5.954,0.115 -9.285,-0.152 -3.337,-0.268 -4.997,-2.394 -4.987,-6.379 l 0.099,-41.578 4.677,0.013 c 1.125,0 2.121,0.438 2.984,1.306 0.863,0.868 1.295,1.908 1.293,3.121 l -0.023,9.233 5.326,0.013 -0.005,1.818 c -0.004,1.299 -0.439,2.358 -1.306,3.179 -0.87,0.822 -1.911,1.23 -3.121,1.229 h -0.91 l -0.046,19.225 c -0.004,1.474 0.86,2.211 2.594,2.215 l 2.728,0.01 -0.018,6.754 z"
               id="path47"
               inkscape:connector-curvature="0"
               style="fill:none;stroke:#ff0000;stroke-width:1.82261276" />
          </g>
          <path
             inkscape:connector-curvature="0"
             style="fill:none;stroke:#ff0000;stroke-width:1.74505413"
             d="M 32.451172,0.73632812 C 14.348731,0.91920041 -0.1818766,15.746249 0.00195313,33.851562 0.08429352,42.03773 3.1685654,49.485753 8.1875,55.179688 c 3.177765,12.852761 10.023374,25.223806 19.851562,35.40625 14.542656,15.067332 33.366602,23.365232 53,23.365232 14.232443,0 28.080708,-4.01089 40.046878,-11.59961 l -4.89258,-7.716794 c -10.50127,6.659994 -22.656748,10.179684 -35.154298,10.179684 -27.518927,0 -49.93333,-18.572436 -59.996093,-40.68945 3.746488,1.439042 7.816416,2.217909 12.072265,2.175781 C 51.220548,66.117909 65.749279,51.291856 65.566406,33.1875 65.382577,15.082186 50.557443,0.55345584 32.451172,0.73632812 Z M 32.785156,12.064453 A 21.453504,21.453504 0 0 1 54.238281,33.517578 21.453504,21.453504 0 0 1 32.785156,54.972656 21.453504,21.453504 0 0 1 11.332031,33.517578 21.453504,21.453504 0 0 1 32.785156,12.064453 Z"
             transform="matrix(1.0444448,0,0,1.0444448,86.667181,-1607.505)"
             id="path49" />
          <path
             id="circle53"
             d="m 134.363,-1586.413 a 6.7979999,6.7979999 0 0 1 -6.798,6.798 6.7979999,6.7979999 0 0 1 -6.798,-6.798 6.7979999,6.7979999 0 0 1 6.798,-6.798 6.7979999,6.7979999 0 0 1 6.798,6.798 z"
             style="fill:none;stroke:#ff0000;stroke-width:1.82261276"
             inkscape:connector-curvature="0" />
          <g
             id="g55"
             style="fill:none;stroke:#ff0000;stroke-width:1.82261276">
            <path
               inkscape:connector-curvature="0"
               style="fill:none;stroke:#ff0000;stroke-width:1.74505413"
               d="M 105.24805,0 A 32.783927,32.783927 0 0 0 72.464844,32.783203 32.783927,32.783927 0 0 0 105.24805,65.568359 32.783927,32.783927 0 0 0 138.03125,32.783203 32.783927,32.783927 0 0 0 105.24805,0 Z m 0.002,11.328125 A 21.454462,21.454462 0 0 1 126.70312,32.783203 21.454462,21.454462 0 0 1 105.25,54.238281 21.454462,21.454462 0 0 1 83.794922,32.783203 21.454462,21.454462 0 0 1 105.25,11.328125 Z"
               transform="matrix(1.0444448,0,0,1.0444448,86.667181,-1607.505)"
               id="circle57" />
          </g>
          <g
             id="g59"
             style="fill:none;stroke:#ff0000;stroke-width:1.82261276" />
          <g
             id="g63"
             style="fill:none;stroke:#ff0000;stroke-width:1.82261276">
            <path
               id="circle65"
               d="m 210.047,-1587.1801 a 6.7969999,6.7969999 0 0 1 -6.797,6.797 6.7969999,6.7969999 0 0 1 -6.797,-6.797 6.7969999,6.7969999 0 0 1 6.797,-6.797 6.7969999,6.7969999 0 0 1 6.797,6.797 z"
               style="fill:none;stroke:#ff0000;stroke-width:1.82261276"
               inkscape:connector-curvature="0" />
          </g>
        </g>
      </g>
      <g
         transform="matrix(0.93750002,0,0,0.93750002,344.51301,-417.67236)"
         id="text4397"
         style="font-style:normal;font-weight:normal;font-size:10.30084801px;line-height:125%;font-family:sans-serif;letter-spacing:0px;word-spacing:0px;fill:#ff0000;fill-opacity:1;stroke:none;stroke-width:0.62790203px;stroke-linecap:butt;stroke-linejoin:miter;stroke-opacity:1">
        <path
           id="path4516"
           style="fill:#ff0000;stroke:none;stroke-width:0.62790203px"
           d="m -83.267629,1100.2188 v 1.0714 q -0.51303,-0.4779 -1.096477,-0.7143 -0.578416,-0.2363 -1.232279,-0.2363 -1.287606,0 -1.971646,0.7896 -0.684041,0.7847 -0.684041,2.2734 0,1.4838 0.684041,2.2735 0.68404,0.7846 1.971646,0.7846 0.653863,0 1.232279,-0.2364 0.583447,-0.2364 1.096477,-0.7142 v 1.0613 q -0.533149,0.3621 -1.131685,0.5432 -0.593505,0.181 -1.257427,0.181 -1.705072,0 -2.685866,-1.0411 -0.980794,-1.0462 -0.980794,-2.8519 0,-1.8107 0.980794,-2.8518 0.980794,-1.0462 2.685866,-1.0462 0.673981,0 1.267487,0.1811 0.598535,0.176 1.121625,0.5331 z"
           inkscape:connector-curvature="0" />
        <path
           id="path4518"
           style="fill:#ff0000;stroke:none;stroke-width:0.62790203px"
           d="m -76.910074,1104.1018 v 0.4526 h -4.255135 q 0.06036,0.9557 0.573387,1.4587 0.51806,0.4979 1.438497,0.4979 0.533149,0 1.031091,-0.1308 0.502971,-0.1307 0.995883,-0.3923 v 0.8752 q -0.497942,0.2112 -1.021032,0.3219 -0.52309,0.1106 -1.061269,0.1106 -1.347962,0 -2.137627,-0.7846 -0.784635,-0.7846 -0.784635,-2.1225 0,-1.3832 0.744397,-2.193 0.749427,-0.8148 2.016914,-0.8148 1.136715,0 1.795607,0.7343 0.663922,0.7293 0.663922,1.9868 z m -0.925467,-0.2716 q -0.01006,-0.7595 -0.427525,-1.2122 -0.412436,-0.4527 -1.096477,-0.4527 -0.774576,0 -1.242339,0.4376 -0.462733,0.4376 -0.533149,1.2323 h 3.29949 z"
           inkscape:connector-curvature="0" />
        <path
           id="path4520"
           style="fill:#ff0000;stroke:none;stroke-width:0.62790203px"
           d="m -70.70844,1103.7497 v 3.4001 h -0.925467 v -3.3699 q 0,-0.7998 -0.311842,-1.1971 -0.311842,-0.3973 -0.935527,-0.3973 -0.749426,0 -1.181982,0.4778 -0.432555,0.4778 -0.432555,1.3027 v 3.1838 h -0.930496 v -5.6333 h 0.930496 v 0.8752 q 0.331961,-0.508 0.779605,-0.7595 0.452674,-0.2515 1.041151,-0.2515 0.970734,0 1.468675,0.6036 0.497942,0.5985 0.497942,1.7654 z"
           inkscape:connector-curvature="0" />
        <path
           id="path4522"
           style="fill:#ff0000;stroke:none;stroke-width:0.62790203px"
           d="m -67.93707,1099.9171 v 1.5994 h 1.90626 v 0.7193 h -1.90626 v 3.058 q 0,0.6891 0.186099,0.8852 0.191129,0.1962 0.769546,0.1962 h 0.950615 v 0.7746 h -0.950615 q -1.071328,0 -1.478735,-0.3974 -0.407407,-0.4023 -0.407407,-1.4586 v -3.058 h -0.679011 v -0.7193 h 0.679011 v -1.5994 z"
           inkscape:connector-curvature="0" />
        <path
           id="path4524"
           style="fill:#ff0000;stroke:none;stroke-width:0.62790203px"
           d="m -61.544307,1102.3816 q -0.155921,-0.091 -0.34202,-0.1308 -0.18107,-0.045 -0.402377,-0.045 -0.784635,0 -1.207131,0.513 -0.417466,0.508 -0.417466,1.4637 v 2.9675 h -0.930496 v -5.6333 h 0.930496 v 0.8752 q 0.291723,-0.5131 0.759487,-0.7595 0.467763,-0.2515 1.136714,-0.2515 0.09557,0 0.211248,0.015 0.115683,0.01 0.256515,0.035 l 0.005,0.9506 z"
           inkscape:connector-curvature="0" />
        <path
           id="path4526"
           style="fill:#ff0000;stroke:none;stroke-width:0.62790203px"
           d="m -58.601925,1102.1653 q -0.744398,0 -1.176953,0.5835 -0.432555,0.5784 -0.432555,1.5894 0,1.0109 0.427525,1.5944 0.432556,0.5784 1.181983,0.5784 0.739367,0 1.171922,-0.5834 0.432555,-0.5835 0.432555,-1.5894 0,-1.0009 -0.432555,-1.5844 -0.432555,-0.5885 -1.171922,-0.5885 z m 0,-0.7846 q 1.20713,0 1.896201,0.7846 0.68907,0.7847 0.68907,2.1729 0,1.3831 -0.68907,2.1728 -0.689071,0.7846 -1.896201,0.7846 -1.212161,0 -1.901231,-0.7846 -0.684041,-0.7897 -0.684041,-2.1728 0,-1.3882 0.684041,-2.1729 0.68907,-0.7846 1.901231,-0.7846 z"
           inkscape:connector-curvature="0" />
        <path
           id="path4528"
           style="fill:#ff0000;stroke:none;stroke-width:0.62790203px"
           d="m -47.501354,1102.3716 v -3.048 h 0.925466 v 7.8262 h -0.925466 v -0.845 q -0.291724,0.503 -0.739368,0.7494 -0.442614,0.2414 -1.066299,0.2414 -1.021031,0 -1.664834,-0.8148 -0.638773,-0.8148 -0.638773,-2.1426 0,-1.3279 0.638773,-2.1427 0.643803,-0.8148 1.664834,-0.8148 0.623685,0 1.066299,0.2465 0.447644,0.2414 0.739368,0.7444 z m -3.153629,1.9666 q 0,1.021 0.417466,1.6044 0.422496,0.5785 1.156833,0.5785 0.734338,0 1.156834,-0.5785 0.422496,-0.5834 0.422496,-1.6044 0,-1.0211 -0.422496,-1.5995 -0.422496,-0.5834 -1.156834,-0.5834 -0.734337,0 -1.156833,0.5834 -0.417466,0.5784 -0.417466,1.5995 z"
           inkscape:connector-curvature="0" />
        <path
           id="path4530"
           style="fill:#ff0000;stroke:none;stroke-width:0.62790203px"
           d="m -39.851164,1104.1018 v 0.4526 H -44.1063 q 0.06036,0.9557 0.573387,1.4587 0.51806,0.4979 1.438497,0.4979 0.53315,0 1.031091,-0.1308 0.502971,-0.1307 0.995883,-0.3923 v 0.8752 q -0.497941,0.2112 -1.021031,0.3219 -0.52309,0.1106 -1.061269,0.1106 -1.347963,0 -2.137628,-0.7846 -0.784634,-0.7846 -0.784634,-2.1225 0,-1.3832 0.744397,-2.193 0.749427,-0.8148 2.016914,-0.8148 1.136715,0 1.795607,0.7343 0.663922,0.7293 0.663922,1.9868 z m -0.925467,-0.2716 q -0.01006,-0.7595 -0.427526,-1.2122 -0.412436,-0.4527 -1.096477,-0.4527 -0.774575,0 -1.242338,0.4376 -0.462734,0.4376 -0.53315,1.2323 h 3.299491 z"
           inkscape:connector-curvature="0" />
        <path
           id="path4532"
           style="fill:#ff0000;stroke:none;stroke-width:0.62790203px"
           d="m -31.451545,1103.629 q 0.326932,0.1106 0.633744,0.4728 0.311842,0.3621 0.623684,0.9959 l 1.031091,2.0521 h -1.091447 l -0.960675,-1.9264 q -0.372199,-0.7545 -0.724279,-1.0009 -0.34705,-0.2465 -0.950615,-0.2465 h -1.106536 v 3.1738 h -1.016002 v -7.5094 h 2.293548 q 1.287606,0 1.92135,0.5382 0.633743,0.5382 0.633743,1.6246 0,0.7092 -0.331961,1.1769 -0.326931,0.4678 -0.955645,0.6489 z m -2.545033,-3.1536 v 2.6657 h 1.277546 q 0.734338,0 1.106537,-0.337 0.377228,-0.342 0.377228,-1.0009 0,-0.6589 -0.377228,-0.9909 -0.372199,-0.3369 -1.106537,-0.3369 z"
           inkscape:connector-curvature="0" />
        <path
           id="path4534"
           style="fill:#ff0000;stroke:none;stroke-width:0.62790203px"
           d="m -26.17035,1102.1653 q -0.744397,0 -1.176952,0.5835 -0.432555,0.5784 -0.432555,1.5894 0,1.0109 0.427525,1.5944 0.432555,0.5784 1.181982,0.5784 0.739368,0 1.171923,-0.5834 0.432555,-0.5835 0.432555,-1.5894 0,-1.0009 -0.432555,-1.5844 -0.432555,-0.5885 -1.171923,-0.5885 z m 0,-0.7846 q 1.207131,0 1.896201,0.7846 0.689071,0.7847 0.689071,2.1729 0,1.3831 -0.689071,2.1728 -0.68907,0.7846 -1.896201,0.7846 -1.21216,0 -1.90123,-0.7846 -0.684041,-0.7897 -0.684041,-2.1728 0,-1.3882 0.684041,-2.1729 0.68907,-0.7846 1.90123,-0.7846 z"
           inkscape:connector-curvature="0" />
        <path
           id="path4536"
           style="fill:#ff0000;stroke:none;stroke-width:0.62790203px"
           d="m -18.012157,1104.3382 q 0,-1.0211 -0.422496,-1.5995 -0.417466,-0.5834 -1.151804,-0.5834 -0.734338,0 -1.156833,0.5834 -0.417466,0.5784 -0.417466,1.5995 0,1.021 0.417466,1.6044 0.422495,0.5785 1.156833,0.5785 0.734338,0 1.151804,-0.5785 0.422496,-0.5834 0.422496,-1.6044 z m -3.148599,-1.9666 q 0.291723,-0.503 0.734337,-0.7444 0.447645,-0.2465 1.066299,-0.2465 1.026061,0 1.664834,0.8148 0.643803,0.8148 0.643803,2.1427 0,1.3278 -0.643803,2.1426 -0.638773,0.8148 -1.664834,0.8148 -0.618654,0 -1.066299,-0.2414 -0.442614,-0.2464 -0.734337,-0.7494 v 0.845 h -0.930497 v -7.8262 h 0.930497 z"
           inkscape:connector-curvature="0" />
        <path
           id="path4538"
           style="fill:#ff0000;stroke:none;stroke-width:0.62790203px"
           d="m -13.33453,1102.1653 q -0.744398,0 -1.176953,0.5835 -0.432555,0.5784 -0.432555,1.5894 0,1.0109 0.427526,1.5944 0.432555,0.5784 1.181982,0.5784 0.739367,0 1.171922,-0.5834 0.432555,-0.5835 0.432555,-1.5894 0,-1.0009 -0.432555,-1.5844 -0.432555,-0.5885 -1.171922,-0.5885 z m 0,-0.7846 q 1.20713,0 1.896201,0.7846 0.68907,0.7847 0.68907,2.1729 0,1.3831 -0.68907,2.1728 -0.689071,0.7846 -1.896201,0.7846 -1.212161,0 -1.901231,-0.7846 -0.684041,-0.7897 -0.684041,-2.1728 0,-1.3882 0.684041,-2.1729 0.68907,-0.7846 1.901231,-0.7846 z m 0.699129,-2.4696 h 1.000913 l -1.639686,1.8912 h -0.769546 z"
           inkscape:connector-curvature="0" />
        <path
           id="path4540"
           style="fill:#ff0000;stroke:none;stroke-width:0.62790203px"
           d="m -8.3048145,1099.9171 v 1.5994 h 1.9062604 v 0.7193 h -1.9062604 v 3.058 q 0,0.6891 0.1860993,0.8852 0.191129,0.1962 0.7695458,0.1962 h 0.9506153 v 0.7746 h -0.9506153 q -1.0713285,0 -1.4787351,-0.3974 -0.4074065,-0.4023 -0.4074065,-1.4586 v -3.058 h -0.679011 v -0.7193 h 0.679011 v -1.5994 z"
           inkscape:connector-curvature="0" />
        <path
           id="path4542"
           style="fill:#ff0000;stroke:none;stroke-width:0.62790203px"
           d="m -5.1763376,1101.5165 h 0.9254668 v 5.6333 h -0.9254668 z m 0,-2.1929 h 0.9254668 v 1.1719 h -0.9254668 z"
           inkscape:connector-curvature="0" />
        <path
           id="path4544"
           style="fill:#ff0000;stroke:none;stroke-width:0.62790203px"
           d="m 1.7344896,1101.7328 v 0.8651 q -0.3923175,-0.2163 -0.78966464,-0.3219 -0.39231745,-0.1107 -0.79469433,-0.1107 -0.90031826,0 -1.39825963,0.5734 -0.4979414,0.5684 -0.4979414,1.5995 0,1.0311 0.4979414,1.6044 0.49794137,0.5684 1.39825963,0.5684 0.40237688,0 0.79469433,-0.1056 0.39734714,-0.1107 0.78966464,-0.3269 v 0.855 q -0.3872878,0.1811 -0.80475377,0.2716 -0.4124363,0.091 -0.88019942,0.091 -1.27251691,0 -2.02194381,-0.7997 -0.7494269,-0.7997 -0.7494269,-2.1577 0,-1.3782 0.7544566,-2.1678 0.7594864,-0.7897 2.07727065,-0.7897 0.42752543,0 0.83493201,0.091 0.40740654,0.086 0.78966464,0.2616 z"
           inkscape:connector-curvature="0" />
        <path
           id="path4546"
           style="fill:#ff0000;stroke:none;stroke-width:0.62790203px"
           d="m 5.9141808,1104.3181 q -1.1216256,0 -1.5541807,0.2565 -0.4325552,0.2565 -0.4325552,0.8751 0,0.4929 0.3219015,0.7847 0.3269312,0.2867 0.8852292,0.2867 0.7695457,0 1.2322791,-0.5432 0.4677632,-0.5483 0.4677632,-1.4536 v -0.2062 z m 1.8459039,-0.3823 v 3.214 H 6.8346179 v -0.8551 q -0.3168718,0.5131 -0.7896647,0.7595 -0.4727928,0.2414 -1.1568335,0.2414 -0.8651103,0 -1.3781408,-0.4828 -0.5080008,-0.4879 -0.5080008,-1.3027 0,-0.9506 0.6337436,-1.4335 0.6387733,-0.4828 1.9012307,-0.4828 h 1.2976655 v -0.091 q 0,-0.6387 -0.4224958,-0.9858 -0.417466,-0.3521 -1.1769523,-0.3521 -0.4828523,0 -0.940556,0.1157 -0.4577037,0.1157 -0.8801994,0.3471 v -0.8551 q 0.5080008,-0.1961 0.9858234,-0.2917 0.4778225,-0.1006 0.9304965,-0.1006 1.2222197,0 1.8257851,0.6337 0.6035653,0.6338 0.6035653,1.9214 z"
           inkscape:connector-curvature="0" />
        <path
           id="path4548"
           style="fill:#ff0000;stroke:none;stroke-width:0.62790203px"
           d="m 12.990983,1099.6404 h 4.748047 v 0.8551 h -3.732046 v 2.2231 h 3.576125 v 0.8551 h -3.576125 v 2.721 h 3.822581 v 0.8551 h -4.838582 z"
           inkscape:connector-curvature="0" />
        <path
           id="path4550"
           style="fill:#ff0000;stroke:none;stroke-width:0.62790203px"
           d="m 23.176143,1102.3716 v -3.048 h 0.925467 v 7.8262 h -0.925467 v -0.845 q -0.291723,0.503 -0.739367,0.7494 -0.442615,0.2414 -1.066299,0.2414 -1.021031,0 -1.664834,-0.8148 -0.638773,-0.8148 -0.638773,-2.1426 0,-1.3279 0.638773,-2.1427 0.643803,-0.8148 1.664834,-0.8148 0.623684,0 1.066299,0.2465 0.447644,0.2414 0.739367,0.7444 z m -3.153628,1.9666 q 0,1.021 0.417466,1.6044 0.422495,0.5785 1.156833,0.5785 0.734338,0 1.156834,-0.5785 0.422495,-0.5834 0.422495,-1.6044 0,-1.0211 -0.422495,-1.5995 -0.422496,-0.5834 -1.156834,-0.5834 -0.734338,0 -1.156833,0.5834 -0.417466,0.5784 -0.417466,1.5995 z"
           inkscape:connector-curvature="0" />
        <path
           id="path4552"
           style="fill:#ff0000;stroke:none;stroke-width:0.62790203px"
           d="m 25.91231,1104.9266 v -3.4101 h 0.925466 v 3.3749 q 0,0.7998 0.311842,1.2021 0.311843,0.3974 0.935527,0.3974 0.749427,0 1.181982,-0.4778 0.437585,-0.4779 0.437585,-1.3027 v -3.1939 h 0.925466 v 5.6333 h -0.925466 v -0.8651 q -0.336991,0.513 -0.784635,0.7645 -0.442615,0.2464 -1.031091,0.2464 -0.970734,0 -1.473705,-0.6035 -0.502971,-0.6036 -0.502971,-1.7655 z m 2.328756,-3.5459 z"
           inkscape:connector-curvature="0" />
        <path
           id="path4554"
           style="fill:#ff0000;stroke:none;stroke-width:0.62790203px"
           d="m 36.600441,1101.7328 v 0.8651 q -0.392317,-0.2163 -0.789664,-0.3219 -0.392318,-0.1107 -0.794695,-0.1107 -0.900318,0 -1.398259,0.5734 -0.497942,0.5684 -0.497942,1.5995 0,1.0311 0.497942,1.6044 0.497941,0.5684 1.398259,0.5684 0.402377,0 0.794695,-0.1056 0.397347,-0.1107 0.789664,-0.3269 v 0.855 q -0.387288,0.1811 -0.804754,0.2716 -0.412436,0.091 -0.880199,0.091 -1.272517,0 -2.021944,-0.7997 -0.749427,-0.7997 -0.749427,-2.1577 0,-1.3782 0.754457,-2.1678 0.759486,-0.7897 2.07727,-0.7897 0.427526,0 0.834933,0.091 0.407406,0.086 0.789664,0.2616 z"
           inkscape:connector-curvature="0" />
        <path
           id="path4556"
           style="fill:#ff0000;stroke:none;stroke-width:0.62790203px"
           d="m 40.780132,1104.3181 q -1.121625,0 -1.55418,0.2565 -0.432556,0.2565 -0.432556,0.8751 0,0.4929 0.321902,0.7847 0.326931,0.2867 0.885229,0.2867 0.769546,0 1.232279,-0.5432 0.467763,-0.5483 0.467763,-1.4536 v -0.2062 z m 1.845904,-0.3823 v 3.214 h -0.925467 v -0.8551 q -0.316871,0.5131 -0.789664,0.7595 -0.472793,0.2414 -1.156834,0.2414 -0.86511,0 -1.378141,-0.4828 -0.508,-0.4879 -0.508,-1.3027 0,-0.9506 0.633743,-1.4335 0.638774,-0.4828 1.901231,-0.4828 h 1.297665 v -0.091 q 0,-0.6387 -0.422495,-0.9858 -0.417466,-0.3521 -1.176953,-0.3521 -0.482852,0 -0.940556,0.1157 -0.457703,0.1157 -0.880199,0.3471 v -0.8551 q 0.508001,-0.1961 0.985823,-0.2917 0.477823,-0.1006 0.930497,-0.1006 1.22222,0 1.825785,0.6337 0.603565,0.6338 0.603565,1.9214 z"
           inkscape:connector-curvature="0" />
        <path
           id="path4558"
           style="fill:#ff0000;stroke:none;stroke-width:0.62790203px"
           d="m 45.452739,1099.9171 v 1.5994 h 1.90626 v 0.7193 h -1.90626 v 3.058 q 0,0.6891 0.186099,0.8852 0.191129,0.1962 0.769546,0.1962 h 0.950615 v 0.7746 h -0.950615 q -1.071329,0 -1.478735,-0.3974 -0.407407,-0.4023 -0.407407,-1.4586 v -3.058 h -0.679011 v -0.7193 h 0.679011 v -1.5994 z"
           inkscape:connector-curvature="0" />
        <path
           id="path4560"
           style="fill:#ff0000;stroke:none;stroke-width:0.62790203px"
           d="m 48.581215,1101.5165 h 0.925467 v 5.6333 h -0.925467 z m 0,-2.1929 h 0.925467 v 1.1719 h -0.925467 z"
           inkscape:connector-curvature="0" />
        <path
           id="path4562"
           style="fill:#ff0000;stroke:none;stroke-width:0.62790203px"
           d="m 50.774166,1101.5165 h 0.980794 l 1.760399,4.7279 1.760398,-4.7279 h 0.980794 l -2.112478,5.6333 h -1.257428 z"
           inkscape:connector-curvature="0" />
        <path
           id="path4564"
           style="fill:#ff0000;stroke:none;stroke-width:0.62790203px"
           d="m 60.094219,1104.3181 q -1.121625,0 -1.55418,0.2565 -0.432556,0.2565 -0.432556,0.8751 0,0.4929 0.321902,0.7847 0.326931,0.2867 0.885229,0.2867 0.769546,0 1.232279,-0.5432 0.467763,-0.5483 0.467763,-1.4536 v -0.2062 z m 1.845904,-0.3823 v 3.214 h -0.925467 v -0.8551 q -0.316871,0.5131 -0.789664,0.7595 -0.472793,0.2414 -1.156834,0.2414 -0.86511,0 -1.378141,-0.4828 -0.508,-0.4879 -0.508,-1.3027 0,-0.9506 0.633743,-1.4335 0.638773,-0.4828 1.901231,-0.4828 h 1.297665 v -0.091 q 0,-0.6387 -0.422495,-0.9858 -0.417466,-0.3521 -1.176953,-0.3521 -0.482852,0 -0.940556,0.1157 -0.457703,0.1157 -0.880199,0.3471 v -0.8551 q 0.508001,-0.1961 0.985823,-0.2917 0.477823,-0.1006 0.930497,-0.1006 1.222219,0 1.825785,0.6337 0.603565,0.6338 0.603565,1.9214 z"
           inkscape:connector-curvature="0" />
      </g>
    </g>
    <text
       xml:space="preserve"
       style="font-style:normal;font-weight:normal;font-size:37.5px;line-height:125%;font-family:sans-serif;letter-spacing:0px;word-spacing:0px;fill:#000000;fill-opacity:1;stroke:none;stroke-width:0.9375px;stroke-linecap:butt;stroke-linejoin:miter;stroke-opacity:1"
       x="-557.16687"
       y="683.59882"
       id="text4570"><tspan
         sodipodi:role="line"
         id="tspan4572"
         x="-557.16687"
         y="716.77753"
         style="stroke-width:0.9375px" /></text>
  </g>
</svg>
